<svg width="1024" height="1024" viewBox="0 0 1024 1024" fill="none" xmlns="http://www.w3.org/2000/svg">
<g clip-path="url(#clip0_19_122)">
<path d="M797.106 834.932C797.542 833.623 797.308 832.902 798.144 831.643L799.048 831.835L800.348 837.8C800.247 839.677 799.73 840.366 798.532 841.782C797.975 839.526 797.575 837.209 797.106 834.932Z" fill="#101A38"/>
<path d="M849.505 855.594L851.695 856.722C851.344 862.344 851.306 868.287 850.43 873.84C850.066 872.91 849.904 872.216 849.89 871.229C849.878 870.309 849.797 869.485 849.63 868.576L848.449 869.924C848.584 865.16 849.137 860.348 849.505 855.594Z" fill="#161F36"/>
<path d="M951.365 595.056C951.628 600.743 951.473 606.419 950.9 612.084C948.94 610.035 949.103 608.011 948.928 605.369C948.988 602.399 948.933 599.505 948.706 596.543C949.712 596.347 950.523 595.626 951.365 595.056Z" fill="#101A38"/>
<path d="M800.348 837.8C801.376 843.869 802.497 849.92 803.711 855.955L801.265 856.78C800.414 851.771 799.38 846.793 798.532 841.782C799.73 840.366 800.247 839.677 800.348 837.8Z" fill="#161F36"/>
<path d="M847.475 887.899L849.717 889.392L848.936 909.061L847.823 908.64C846.842 905.968 847.181 902.82 846.943 899.985C846.85 895.972 847.238 891.906 847.475 887.899Z" fill="#161F36"/>
<path d="M848.449 869.924L849.63 868.576C849.797 869.485 849.878 870.309 849.89 871.229C849.904 872.216 850.066 872.91 850.43 873.84C850.613 878.915 850.246 884.339 849.717 889.392L847.475 887.899C847.464 881.945 848.082 875.872 848.449 869.924Z" fill="#101A38"/>
<path d="M795.868 815.441C796.989 820.858 798.379 826.344 799.048 831.835L798.144 831.643C797.308 832.902 797.542 833.623 797.106 834.932L793.38 815.458L794.867 816.17L795.868 815.441Z" fill="#101A38"/>
<path d="M846.943 899.985C847.181 902.82 846.842 905.968 847.823 908.64L848.936 909.061C848.973 916.751 849.313 924.371 849.553 932.051C848.067 929.827 848.148 927.912 848.252 925.302L848.255 925.296L848.251 925.294L846.778 929.456C846.018 919.986 845.815 909.419 846.943 899.985Z" fill="#101A38"/>
<path d="M850.813 810.092C851.347 808.323 851.423 806.976 853.07 805.998C854.298 816.14 853.599 827.315 852.925 837.499C851.385 835.498 851.231 833.923 850.915 831.455C851.05 824.333 851.016 817.212 850.813 810.092Z" fill="#101A38"/>
<path d="M931.284 328.021C932.641 330.157 933.516 332.263 932.915 334.822C932.359 337.189 930.009 338.853 927.998 339.925C925.666 341.167 922.917 341.849 920.39 342.594C923.237 344.152 926.136 345.616 928.532 347.844C927.408 348.529 927.232 348.799 925.904 348.44C925.685 348.38 925.478 348.281 925.265 348.202C922.728 346.538 919.79 344.906 918.231 342.231C918.3 339.23 927.717 338.796 929.936 335.543C931.233 333.643 930.795 332.223 930.358 330.132L931.284 328.021Z" fill="#101A38"/>
<path d="M890.347 240.817C890.412 238.247 889.895 233.759 891.008 231.584L892.284 231.245C893.242 232.197 893.319 232.887 893.351 234.235C893.479 239.74 892.666 245.667 892.382 251.204C892.387 251.354 892.398 251.503 892.397 251.652C892.379 254.262 892.702 258.615 890.825 260.496L889.842 260.434C888.366 257.619 890.058 244.583 890.347 240.817Z" fill="#101A38"/>
<path d="M839.677 238.681C840.562 238.902 841.024 238.941 841.657 239.609C844.403 242.51 855.067 263.4 854.707 266.766C853.596 266.415 853.057 266.072 852.372 265.097C849.918 261.603 839.292 241.783 839.677 238.681Z" fill="#101A38"/>
<path d="M945.478 249.184C946.409 249.577 946.738 249.787 947.265 250.655C946.612 254.288 932.56 272.794 929.379 276.616L928.157 276.309L927.83 275.434C930.5 268.943 941.047 255.323 945.478 249.184Z" fill="#101A38"/>
<path d="M800.407 263.873C803.134 264.737 823.227 280.626 825.427 283.756C826.189 284.841 825.948 285.128 825.703 286.363C822.329 284.895 801.407 268.723 799.758 265.267L800.407 263.873Z" fill="#101A38"/>
<path d="M801.265 856.78L803.711 855.955C805.858 867.53 808.989 879.607 810.216 891.277C811.027 895.044 811.714 898.833 812.279 902.645C813.757 909.94 815.089 917.261 816.276 924.608C817.154 929.241 819.918 938.788 819.011 943.147C818.92 942.962 818.819 942.782 818.737 942.593C818.149 941.241 817.842 939.779 817.481 938.354C817.505 938.522 817.534 938.69 817.552 938.859C817.744 940.656 817.874 942.718 817.259 944.432C815.56 939.928 815.287 933.54 814.518 928.731C812.268 920.406 811.334 911.201 809.746 902.684L807.437 889.349C804.656 878.814 803.175 867.524 801.265 856.78Z" fill="#101A38"/>
<path d="M858.873 777.822C860.159 779.288 860.196 779.631 862.189 779.985C866.621 794.574 871.53 808.771 876.817 823.076C878.262 826.608 879.731 830.13 881.224 833.642C886.348 845.383 891.502 857.157 896.267 869.047C899.488 876.568 902.797 884.582 904.795 892.526C910.023 907.415 912.191 924.243 911.824 939.926L911.47 942.318C911.092 942.193 910.623 942.051 910.274 941.873C909.657 941.558 908.957 941.204 908.681 940.54C907.923 938.713 909.119 935.126 909.173 933.011C909.244 930.27 909.046 927.52 908.788 924.793C907.617 912.413 904.448 900.201 900.823 888.336C898.42 881.573 895.765 874.89 893.289 868.152C890.392 863.768 882.782 844.902 880.736 839.086C877.848 833.304 875.175 827.028 873.16 820.888C869.436 814.677 860.994 786.337 858.873 777.822Z" fill="#101A38"/>
<path d="M949.373 402.308C949.403 402.136 949.436 401.965 949.464 401.792C949.581 401.055 949.561 401.351 949.499 400.61L949.737 400.736L949.482 401.236L950.56 401.424C951.086 402.523 952.152 405.47 953.289 405.837C953.421 405.88 953.564 405.878 953.702 405.898C962.943 424.107 948.102 472.932 944.879 494.467C943.985 500.154 943.415 505.874 943.169 511.626C942.923 517.378 943.002 523.125 943.407 528.868C944.226 541.197 946.192 553.217 948.897 565.259C949.869 569.59 955.116 586.518 954.463 589.475C954.229 590.535 953.556 591.27 952.827 592.023C952.3 592.883 951.239 594.065 951.365 595.056C950.523 595.626 949.712 596.347 948.706 596.543C948.49 596.574 948.272 596.6 948.056 596.635C945.599 597.041 931.359 604.619 926.644 606.246C925.711 606.574 924.775 606.89 923.834 607.194C922.893 607.498 921.948 607.79 921 608.071C920.052 608.352 919.101 608.621 918.146 608.878C917.191 609.135 916.233 609.38 915.272 609.613C914.311 609.846 913.348 610.066 912.382 610.275C911.415 610.484 910.446 610.681 909.475 610.866C908.504 611.051 907.53 611.223 906.554 611.383C905.579 611.543 904.601 611.691 903.622 611.827C902.643 611.963 901.662 612.087 900.679 612.198C899.696 612.309 898.713 612.408 897.728 612.495C896.743 612.582 895.757 612.656 894.77 612.719C893.783 612.781 892.796 612.831 891.808 612.868C890.82 612.905 889.832 612.93 888.843 612.943C887.854 612.956 886.866 612.956 885.877 612.944C884.888 612.932 883.9 612.908 882.912 612.871C881.924 612.834 880.936 612.785 879.949 612.724C878.962 612.663 877.977 612.589 876.992 612.503C876.007 612.417 875.023 612.319 874.04 612.208C873.058 612.097 872.077 611.974 871.097 611.839C870.118 611.704 869.14 611.556 868.164 611.397C867.189 611.237 866.215 611.065 865.244 610.881C864.272 610.697 863.303 610.501 862.336 610.293C861.37 610.085 860.406 609.865 859.445 609.633C858.484 609.4 857.526 609.156 856.571 608.9C855.616 608.644 854.665 608.376 853.716 608.096C852.768 607.816 851.823 607.524 850.882 607.22C849.941 606.917 849.004 606.601 848.071 606.274C847.138 605.947 846.21 605.609 845.285 605.258C844.36 604.908 843.44 604.546 842.524 604.173C841.609 603.8 840.698 603.415 839.792 603.019C838.886 602.623 837.985 602.216 837.089 601.797C836.194 601.378 835.303 600.949 834.418 600.508C829.428 614.042 825.301 627.81 820.954 641.553C816.943 654.234 812.732 666.822 808.861 679.552C801.387 704.137 793.486 728.423 788.86 753.755C786.487 773.176 789.983 779.197 792.296 797.071L790.473 800.804C786.625 784.425 783.915 770.484 786.21 753.638C789.872 732.685 796.058 712.598 802.171 692.262C811.572 660.984 821.84 629.99 831.62 598.83C830.568 597.59 829.568 596.301 828.552 595.031C829.566 589.803 831.547 585.1 833.685 580.243C833.701 580.556 833.727 580.869 833.731 581.183C833.767 583.857 831.406 586.383 831.695 588.849C832.698 586.498 833.354 584.098 835.327 582.385C834.146 585.83 830.862 591.705 831.976 595.177C839.209 603.722 868.735 609.101 879.95 609.998C901.492 611.72 934.582 604.935 951.143 590.397C951.396 590.174 951.644 589.945 951.894 589.719C952.338 586.027 945.308 561.646 944.103 555.428C940.859 538.681 939.397 520.752 941.041 503.781C941.96 494.793 943.35 485.878 945.209 477.036C949.386 456.862 959.215 425.838 951.099 406.311C950.6 405.117 950.089 403.929 949.566 402.746L949.373 402.308Z" fill="#101A38"/>
<path d="M846.778 929.456L848.251 925.294L848.255 925.296L848.252 925.302C848.148 927.912 848.067 929.827 849.553 932.051C850.138 935.185 853.146 945.713 851.666 948.025C849.891 948.58 848.21 948.842 846.367 949.068C844.956 954.778 858.237 976.823 858.648 983.266C858.719 984.387 858.465 984.657 857.517 985.171C854.653 986.726 849.512 986.753 846.293 986.895C832.288 988.33 784.423 988.996 772.082 984.945C770.955 984.728 770.251 984.284 769.282 983.701C768.675 982.674 768.28 982.241 768.685 980.988C770.814 974.411 787.303 969.142 793.296 966.347C797.853 964.222 802.777 961.631 806.867 958.7C807.805 958.027 815.685 948.809 816.362 947.624C816.892 946.696 817.091 945.477 817.259 944.432C817.874 942.718 817.744 940.656 817.552 938.859C817.534 938.69 817.505 938.522 817.481 938.354C817.842 939.779 818.149 941.241 818.737 942.593C818.819 942.782 818.92 942.962 819.011 943.147C820.13 945.32 820.861 945.818 823.17 946.534C830.094 948.678 838.428 948.082 845.465 946.751C846.614 946.497 847.715 946.107 848.833 945.743C849.002 945.51 849.274 945.326 849.34 945.046C849.364 944.943 846.965 931.385 846.778 929.456Z" fill="#071338"/>
<path d="M819.541 948.181C827.246 950.693 835.303 950.813 843.266 949.807C843.5 951.302 843.712 952.757 843.781 954.269C842.834 955.878 841.869 956.152 840.254 957.039C836.982 958.842 833.819 960.328 830.022 960.481C827.239 960.594 824.466 959.944 822.44 957.931C819.671 955.181 819.661 951.816 819.541 948.181Z" fill="#FEFEFE"/>
<path d="M773.12 983.287L771.816 982.116C771.883 980.727 772.219 980.181 773.235 979.208C781.555 971.232 800.47 969.281 809.051 961.053C812.166 958.066 814.283 954.473 816.702 950.942C817.232 955.078 817.429 958.606 821.099 961.263C824.36 963.623 829.136 963.634 832.929 962.927C837.593 962.058 841.451 959.787 845.534 957.507C849.143 965.631 852.814 974.345 855.448 982.829C851.176 983.552 846.907 984.095 842.605 984.596C836.215 984.507 829.637 985.451 823.193 985.516C806.388 985.686 789.849 984.831 773.12 983.287Z" fill="#FFC600"/>
<path d="M945.495 936.925C945.53 936.611 945.54 936.293 945.6 935.983C945.875 934.575 946.359 934.375 947.443 933.532C948.032 935.528 948.652 937.317 948.46 939.432L947.95 940.253C946.761 940.421 945.681 940.387 944.487 940.342C943.483 940.996 942.92 941.328 942.527 942.548C942.449 942.79 942.451 943.05 942.413 943.3C944.961 955.544 951.585 966.448 955.302 978.313C946.903 981.127 937.925 982.882 929.195 984.338C918.649 986.096 873.658 991.573 865.766 987.326C865.107 986.971 864.764 986.492 864.377 985.876C864.288 983.79 864.854 982.533 866.21 980.977C872.664 973.567 887.731 969.956 896.111 963.882C901.471 959.997 903.817 954.653 908.353 950.212C907.9 948.408 907.174 946.705 908.135 945.037L909.064 944.837C911.525 947.21 913.131 950.588 916.174 952.215C916.402 952.337 916.624 952.468 916.853 952.586C916.992 952.657 917.136 952.715 917.278 952.78C915.931 949.222 914.642 945.765 913.847 942.038L911.47 942.318L911.824 939.926C919.672 939.741 927.514 939.415 935.351 938.949C937.975 938.432 943.726 938.815 945.495 936.925Z" fill="#071338"/>
<path d="M939.924 941.073C940.286 942.032 940.661 942.97 940.928 943.961C941.148 945.59 941.677 946.709 940.561 948.104C937.812 951.54 929.231 955.325 924.723 955.16C923.258 955.106 921.672 954.625 920.258 954.257C919.978 954.06 919.694 953.867 919.422 953.66C919.168 953.467 918.921 953.267 918.67 953.071L917.956 953.282L917.278 952.78C915.931 949.222 914.642 945.765 913.847 942.038C917.411 942.447 920.861 941.626 924.515 942.067C929.631 942.203 934.842 941.636 939.924 941.073Z" fill="#FEFEFE"/>
<path d="M913.847 942.038C917.411 942.447 920.861 941.626 924.515 942.067C921.98 942.264 919.477 942.397 916.932 942.427C917.952 946.32 919.463 950.346 920.258 954.257C919.978 954.06 919.694 953.867 919.422 953.66C919.168 953.467 918.921 953.267 918.67 953.071L917.956 953.282L917.278 952.78C915.931 949.222 914.642 945.765 913.847 942.038Z" fill="#101A38"/>
<path d="M941.451 951.012C943.79 953.367 950.766 972.943 951.427 976.582C930.821 984.057 893.019 986.723 870.927 986.088C869.535 985.905 869.078 985.983 867.991 985.045C868.583 978.217 897.061 968.902 903.605 961.39C906.24 958.367 907.609 954.657 909.112 951.003C912.931 953.699 916.706 956.528 921.376 957.546C928.999 959.209 935.406 955.006 941.451 951.012Z" fill="#FFC600"/>
<path d="M895.437 286.806C899.054 285.809 902.302 286.268 905.589 288.075C906.262 288.446 906.866 288.87 907.463 289.353C910.819 292.25 913.251 295.433 913.506 300.02C913.718 303.843 912.347 306.847 909.912 309.693C908.534 310.846 907.336 311.858 905.68 312.579C905.826 312.664 905.97 312.75 906.117 312.833C914.016 317.3 926.542 319.336 931.284 328.021L930.358 330.132C930.795 332.223 931.233 333.643 929.936 335.543C927.717 338.796 918.3 339.23 918.231 342.231C919.79 344.906 922.728 346.538 925.265 348.202C927.942 350.206 931.051 353.098 931.573 356.547C929.689 362.768 922.211 358.317 919.019 360.864C918.401 364.931 921.658 367.255 923.145 370.69C923.646 371.849 923.54 372.776 923.047 373.919C922.326 375.591 920.783 377.452 919.013 378.058C917.299 378.645 915.354 378.162 913.781 377.392C909.129 375.115 907.668 371.354 906.064 366.801C907.168 363.515 908.786 359.814 909.201 356.385C909.551 353.494 908.795 350.17 906.931 347.892C906.732 347.647 906.522 347.413 906.299 347.19C906.076 346.967 905.842 346.756 905.597 346.557C905.352 346.358 905.098 346.173 904.833 346.001C904.569 345.829 904.296 345.671 904.015 345.527C903.734 345.384 903.447 345.255 903.153 345.142C902.858 345.029 902.559 344.931 902.254 344.848C901.95 344.766 901.642 344.7 901.331 344.65C901.019 344.6 900.706 344.566 900.391 344.549C896.989 344.35 895.008 345.811 892.636 348.047C889.337 343.749 886.339 341.428 885.819 335.648L885.306 336.508C885.285 338.534 885.767 340.107 886.45 341.984L886.713 342.689C884.212 341.13 883.951 336.558 883.32 333.92C883.46 332.745 883.539 331.563 883.633 330.383L882.994 330.234L880.977 331.718C880.015 333.218 878.667 334.298 877.35 335.474C868.705 343.154 850.908 358.013 839.992 360.388L840.211 360.927C841.235 361.183 842.264 361.373 843.3 361.57C843.771 363.104 843.984 363.935 845.443 364.767C846.843 365.566 848.388 365.855 849.632 366.921L849.271 368C848.724 367.897 848.896 367.983 848.315 367.502C846.691 366.159 844.129 364.568 841.961 364.438L840.656 364.45C828.468 362.745 810.031 353.261 801.644 344.433C799.627 342.31 797.525 339.656 797.723 336.544C797.811 335.16 798.325 333.74 799.418 332.858C802.116 331.834 804.932 332.233 807.75 331.83C813.08 331.068 818.271 329.061 823.096 326.737C838.209 319.458 858.248 300.874 872.922 298.262C877.707 297.409 881.949 297.982 886.684 298.764C887.153 296.937 887.601 295.085 888.411 293.373C889.908 290.209 892.126 288.002 895.437 286.806Z" fill="#535F80"/>
<path d="M879.827 329.777C882.073 327.651 884.324 325.817 886.863 324.05C886.75 327.95 886.291 331.778 885.819 335.648L885.306 336.508C885.285 338.534 885.767 340.107 886.45 341.984L886.713 342.689C884.212 341.13 883.951 336.558 883.32 333.92C883.46 332.745 883.539 331.563 883.633 330.383L882.994 330.234L880.977 331.718C880.512 331.141 880.187 330.424 879.827 329.777Z" fill="#101A38"/>
<path d="M895.437 286.806C899.054 285.809 902.302 286.268 905.589 288.075C906.262 288.446 906.866 288.87 907.463 289.353C910.819 292.25 913.251 295.433 913.506 300.02C913.718 303.843 912.347 306.847 909.912 309.693C908.534 310.846 907.336 311.858 905.68 312.579C905.826 312.664 905.97 312.75 906.117 312.833C914.016 317.3 926.542 319.336 931.284 328.021L930.358 330.132C921.883 319.947 913.15 321.146 904.854 314.427C903.832 313.389 902.899 312.635 902.644 311.13C903.781 309.507 906.389 308.928 908.238 308.206C910.155 306.321 911.111 304.332 911.2 301.6C911.333 297.48 908.63 293.742 905.9 290.953C901.753 288.761 898.642 288.706 894.131 289.774C889.844 293.663 889.491 296.731 888.805 302.222C874.396 298.91 869.275 300.258 856.901 308.028C842.522 317.056 823.422 334.241 805.947 334.924C803.531 335.018 801.317 334.316 800.483 337.042C801.258 341.891 807.769 346.313 811.514 349.03C816.394 352.572 828.537 359.788 834.82 358.798C848.75 356.604 865.828 342.576 876.002 333.285L879.827 329.777C880.187 330.424 880.512 331.141 880.977 331.718C880.015 333.218 878.667 334.298 877.35 335.474C868.705 343.154 850.908 358.013 839.992 360.388L840.211 360.927C841.235 361.183 842.264 361.373 843.3 361.57C843.771 363.104 843.984 363.935 845.443 364.767C846.843 365.566 848.388 365.855 849.632 366.921L849.271 368C848.724 367.897 848.896 367.983 848.315 367.502C846.691 366.159 844.129 364.568 841.961 364.438L840.656 364.45C828.468 362.745 810.031 353.261 801.644 344.433C799.627 342.31 797.525 339.656 797.723 336.544C797.811 335.16 798.325 333.74 799.418 332.858C802.116 331.834 804.932 332.233 807.75 331.83C813.08 331.068 818.271 329.061 823.096 326.737C838.209 319.458 858.248 300.874 872.922 298.262C877.707 297.409 881.949 297.982 886.684 298.764C887.153 296.937 887.601 295.085 888.411 293.373C889.908 290.209 892.126 288.002 895.437 286.806Z" fill="#071338"/>
<path d="M880.977 331.718L882.994 330.234L883.633 330.383C883.539 331.563 883.46 332.745 883.32 333.92C883.951 336.558 884.212 341.13 886.713 342.689L886.45 341.984C885.767 340.107 885.285 338.534 885.306 336.508L885.819 335.648C886.339 341.428 889.337 343.749 892.636 348.047C895.008 345.811 896.989 344.35 900.391 344.549C900.706 344.566 901.019 344.6 901.331 344.65C901.642 344.7 901.95 344.766 902.254 344.848C902.559 344.931 902.858 345.029 903.153 345.142C903.447 345.255 903.734 345.384 904.015 345.527C904.296 345.671 904.569 345.829 904.833 346.001C905.098 346.173 905.352 346.358 905.597 346.557C905.842 346.756 906.076 346.967 906.299 347.19C906.522 347.413 906.732 347.647 906.931 347.892C908.795 350.17 909.551 353.494 909.201 356.385C908.786 359.814 907.168 363.515 906.064 366.801C907.668 371.354 909.129 375.115 913.781 377.392C915.354 378.162 917.299 378.645 919.013 378.058C920.783 377.452 922.326 375.591 923.047 373.919C923.54 372.776 923.646 371.849 923.145 370.69C921.658 367.255 918.401 364.931 919.019 360.864C922.211 358.317 929.689 362.768 931.573 356.547C931.051 353.098 927.942 350.206 925.265 348.202C925.478 348.281 925.685 348.38 925.904 348.44C927.232 348.799 927.408 348.529 928.532 347.844C930.993 349.979 933.616 353.057 933.906 356.455C933.927 356.683 933.935 356.911 933.932 357.14C933.929 357.369 933.913 357.598 933.886 357.825C933.859 358.052 933.819 358.277 933.768 358.5C933.717 358.723 933.654 358.943 933.579 359.16C933.505 359.376 933.419 359.588 933.322 359.796C933.225 360.003 933.118 360.205 933 360.401C932.882 360.597 932.754 360.786 932.615 360.969C932.477 361.152 932.33 361.326 932.173 361.493C930.83 362.909 928.505 364.065 926.53 364.002C924.758 363.945 922.87 363.444 921.133 363.092C923.768 366.701 926.536 369.975 925.902 374.775C925.662 376.588 924.806 378.363 923.279 379.426C920.726 381.203 916.785 381.305 913.838 380.708C915.558 383.379 916.561 386.184 917.641 389.151C923.744 386.59 930.944 386.638 937.107 389.077C943.909 391.769 950.663 398.097 953.348 404.955C953.47 405.268 953.584 405.584 953.702 405.898C953.564 405.878 953.421 405.88 953.289 405.837C952.152 405.47 951.086 402.523 950.56 401.424L949.482 401.236L949.737 400.736L949.499 400.61C949.561 401.351 949.581 401.055 949.464 401.792C949.436 401.965 949.403 402.136 949.373 402.308C944.023 395.595 939.362 391.852 930.856 390.02C911.33 413.585 887.288 432.224 865.615 453.64L862.882 456.403C860.799 467.135 857.336 485.18 849.468 493.147C848.939 493.682 848.61 493.504 847.904 493.519C846.733 491.523 852.05 484.097 853.276 481.838C858.756 471.741 860.145 455.142 862.866 443.679C864.632 436.242 868.012 427.696 868.413 420.098C867.677 418.517 866.094 417.939 864.631 417.145C859.461 415.072 854.301 413.207 848.989 411.528C842.196 428.579 831.84 444.21 824.711 461.19C820.933 470.352 817.568 479.663 814.615 489.123C813.368 493.005 812.439 498.275 810.693 501.855C810.275 506.108 809.99 510.174 812.866 513.737C814.262 515.466 816.06 516.74 817.997 517.79C824.878 520.146 830.701 520.052 837.659 517.835C864.104 508.715 885.795 490.599 907.641 473.794L908.602 474.158C909.399 473.511 910.136 472.84 910.872 472.124L911.184 472.294C909.956 473.606 908.653 474.591 908.222 476.366C904.54 480.442 899.443 483.915 895.077 487.239C879.798 498.87 863.423 510.552 845.536 517.857C844.464 529.68 839.696 574.318 835.327 582.385C833.354 584.098 832.698 586.498 831.695 588.849C831.406 586.383 833.767 583.857 833.731 581.183C833.727 580.869 833.701 580.556 833.685 580.243C833.943 575.732 835.839 570.405 836.663 565.82C838.406 556.118 839.283 546.265 840.498 536.487C841.183 530.97 842.598 525.037 842.375 519.501C841.265 519.126 839.13 520.067 837.945 520.415C830.292 522.647 822.788 522.745 815.446 519.43C813.043 517.702 811.156 516.143 809.683 513.536C808.069 510.677 807.526 507.087 808.355 503.895C808.469 497.479 811.289 490.929 812.775 484.713C809.597 486.587 806.534 488.338 803 489.464C800.636 490.448 798.314 491.268 795.804 491.793C787.668 493.495 776.63 493.316 769.547 488.416C767.009 486.661 765.209 484.125 764.75 481.042C763.565 473.077 772.722 456.25 777.546 449.858C784.098 437.997 792.149 425.988 801.215 415.912C802.847 413.78 804.754 411.767 806.514 409.732C809.301 406.735 812.211 403.862 815.242 401.112C818.739 397.685 823.493 395.055 826.534 391.263C830.753 386.001 829.114 378.416 833.228 372.709C834.848 369.558 838.15 366.896 840.656 364.45L841.961 364.438C844.129 364.568 846.691 366.159 848.315 367.502C848.896 367.983 848.724 367.897 849.271 368L849.632 366.921C848.388 365.855 846.843 365.566 845.443 364.767C843.984 363.935 843.771 363.104 843.3 361.57C842.264 361.373 841.235 361.183 840.211 360.927L839.992 360.388C850.908 358.013 868.705 343.154 877.35 335.474C878.667 334.298 880.015 333.218 880.977 331.718Z" fill="#071338"/>
<path d="M837.444 405.616C840.815 401.62 846.344 399.351 850.079 395.478L851.741 395.834C851.759 396.815 851.552 397.345 852.173 398.139C852.229 399.702 852.048 400.867 851.439 402.322C849.651 406.59 846.703 410.495 844.481 414.553C842.448 418.268 840.904 422.267 838.802 425.938C834.57 427.714 831.002 430.367 827.267 432.988C828.78 428.036 831.039 423.157 832.946 418.335C832.782 417.113 832.726 417.667 833.108 416.452C833.303 415.833 833.509 415.244 833.665 414.612C834.183 412.511 834.556 409.861 835.986 408.186C836.512 407.57 836.841 407.147 837.148 406.383C837.251 406.129 837.345 405.872 837.444 405.616Z" fill="#FEFEFE"/>
<path d="M837.444 405.616C840.815 401.62 846.344 399.351 850.079 395.478L851.741 395.834C851.759 396.815 851.552 397.345 852.173 398.139C842.985 404.549 837.647 407.51 832.946 418.335C832.782 417.113 832.726 417.667 833.108 416.452C833.303 415.833 833.509 415.244 833.665 414.612C834.183 412.511 834.556 409.861 835.986 408.186C836.512 407.57 836.841 407.147 837.148 406.383C837.251 406.129 837.345 405.872 837.444 405.616Z" fill="#101A38"/>
<path d="M894.891 348.048C897.423 347.491 900.111 346.704 902.504 348.13C904.164 349.12 905.064 350.818 905.414 352.674C906.402 357.92 902.151 370.935 898.933 375.282C897.296 377.492 894.197 379.611 891.493 380.17L890.628 379.827C890.333 378.303 891.091 376.804 891.963 375.587C893.161 373.917 894.606 372.379 895.982 370.855C895.468 369.53 894.913 368.97 893.916 368.008C895.007 367.742 895.015 367.856 895.871 367C894.728 365.362 892.811 364.944 891.469 363.53C890.164 362.156 890.18 359.928 890.266 358.174C890.413 355.145 890.579 352.192 891.001 349.184L891.306 352.217C892.256 352.857 891.79 352.776 892.625 352.741C893.34 351.276 894.238 350.475 895.431 349.422C895.115 349.318 894.687 348.966 894.404 348.779L894.891 348.048Z" fill="#FEFEFE"/>
<path d="M895.431 349.422C895.115 349.318 894.687 348.966 894.404 348.779L894.891 348.048C896.902 348.323 898.641 348.399 899.956 350.132C900.975 351.475 901.288 353.131 900.995 354.777C900.37 358.279 897.891 360.731 895.133 362.721C896.563 363.682 897.512 364.365 898.407 365.854C898.515 367.136 898.596 367.964 897.784 369.052C897.29 369.713 896.589 370.297 895.982 370.855C895.468 369.53 894.913 368.97 893.916 368.008C895.007 367.742 895.015 367.856 895.871 367C894.728 365.362 892.811 364.944 891.469 363.53C890.164 362.156 890.18 359.928 890.266 358.174C890.413 355.145 890.579 352.192 891.001 349.184L891.306 352.217C892.256 352.857 891.79 352.776 892.625 352.741C893.34 351.276 894.238 350.475 895.431 349.422Z" fill="#101A38"/>
<path d="M895.431 349.422C896.666 349.969 897.708 350.202 898.353 351.524C899.022 352.896 898.599 354.614 897.958 355.912C896.99 357.872 895.422 359.646 893.634 360.898C893.444 358.118 893.227 355.469 892.625 352.741C893.34 351.276 894.238 350.475 895.431 349.422Z" fill="#FEFEFE"/>
<path d="M904.445 370.416C904.488 370.59 904.528 370.763 904.573 370.936L904.805 371.793C904.981 372.462 905.143 373.131 905.366 373.787C906.423 376.896 908.663 378.606 911.472 380.063C912.35 380.195 913.113 380.164 913.838 380.708C915.558 383.379 916.561 386.184 917.641 389.151C916.778 390.096 916.292 390.416 915.067 390.787C911.97 391.995 909.081 394.681 906.519 396.777C899.353 402.637 891.984 409.605 883.246 412.968C882.79 407.514 882.321 402.419 879.59 397.547C881.568 394.72 886.992 384.225 889.382 382.894C890.902 382.049 893.674 382.794 895.546 382.112C900.079 380.459 902.617 374.537 904.445 370.416Z" fill="#FEFEFE"/>
<path d="M911.472 380.063C912.35 380.195 913.113 380.164 913.838 380.708C915.558 383.379 916.561 386.184 917.641 389.151C916.778 390.096 916.292 390.416 915.067 390.787C913.834 387.27 912.041 383.748 911.472 380.063Z" fill="#101A38"/>
<path d="M843.3 361.57C844.81 362.863 846.289 364.172 847.943 365.281C850.509 364.714 853.985 363.491 856.446 364.839C857.132 365.215 857.571 365.781 858.117 366.31C858.159 366.351 858.214 366.373 858.263 366.404C856.438 367.304 855.753 369.087 854.827 370.801L857.248 372.075L857.962 371.649C857.706 372.802 857.447 373.949 857.241 375.113C856.274 375.315 855.351 375.522 854.397 375.778C852.944 376.167 851.127 375.914 849.636 375.83L849.47 376.097C850.81 377.003 851.498 377.057 852.96 377.559C853.325 377.685 853.848 378.061 854.18 378.285C853.925 381.34 853.435 384.6 853.542 387.653C853.4 389.02 853.36 390.368 852.89 391.665C851.972 392.949 851.078 394.256 850.079 395.478C846.344 399.351 840.815 401.62 837.444 405.616C836.068 406.612 834.874 407.998 833.677 409.208C829.152 405.765 824.563 403.233 819.462 400.718C833.002 391.595 829.041 389.613 834.118 376.547C834.18 376.389 834.246 376.232 834.31 376.074L833.626 375.04C833.622 374.054 833.586 373.663 833.228 372.709C834.848 369.558 838.15 366.896 840.656 364.45L841.961 364.438C844.129 364.568 846.691 366.159 848.315 367.502C848.896 367.983 848.724 367.897 849.271 368L849.632 366.921C848.388 365.855 846.843 365.566 845.443 364.767C843.984 363.935 843.771 363.104 843.3 361.57Z" fill="#FEFEFE"/>
<path d="M853.542 387.653C853.4 389.02 853.36 390.368 852.89 391.665L849.116 392.807L848.046 390.589C849.928 389.706 851.727 388.665 853.542 387.653Z" fill="#101A38"/>
<path d="M849.116 392.807C848.331 392.856 847.453 392.865 846.69 393.049C845.686 393.291 845.318 394.07 844.783 394.873C843.953 396.118 843.097 397.27 842.152 398.429L841.57 398.358C841.259 395.712 842.261 392.651 843.272 390.23C844.722 389.51 846.446 390.289 848.046 390.589L849.116 392.807Z" fill="#161F36"/>
<path d="M843.3 361.57C844.81 362.863 846.289 364.172 847.943 365.281C850.509 364.714 853.985 363.491 856.446 364.839C857.132 365.215 857.571 365.781 858.117 366.31C858.159 366.351 858.214 366.373 858.263 366.404C856.438 367.304 855.753 369.087 854.827 370.801L857.248 372.075L857.962 371.649C857.706 372.802 857.447 373.949 857.241 375.113C856.274 375.315 855.351 375.522 854.397 375.778C852.944 376.167 851.127 375.914 849.636 375.83L849.47 376.097C850.81 377.003 851.498 377.057 852.96 377.559C853.325 377.685 853.848 378.061 854.18 378.285C852.006 378.546 849.837 378.417 848.059 376.94C845.789 375.053 846.152 370.699 846.114 367.989L846.107 367.268L843.445 366.015C839.583 368.702 836.847 372.164 834.31 376.074L833.626 375.04C833.622 374.054 833.586 373.663 833.228 372.709C834.848 369.558 838.15 366.896 840.656 364.45L841.961 364.438C844.129 364.568 846.691 366.159 848.315 367.502C848.896 367.983 848.724 367.897 849.271 368L849.632 366.921C848.388 365.855 846.843 365.566 845.443 364.767C843.984 363.935 843.771 363.104 843.3 361.57Z" fill="#101A38"/>
<path d="M849.237 368.498C851.077 369.279 852.929 370.181 854.827 370.801L857.248 372.075C856.383 373.059 855.478 374.182 854.204 374.647C853.112 375.047 851.232 375.085 850.177 374.505C848.84 373.768 848.681 373.284 848.111 371.953C848.262 370.476 848.39 369.777 849.237 368.498Z" fill="#FEFEFE"/>
<path d="M879.799 415.636C899.533 412.836 908.391 392.008 928.416 389.223C922.685 395.357 917.068 401.636 911.048 407.489C900.946 417.31 890.301 426.413 879.911 435.906C874.559 440.796 869.637 446.598 863.982 451.085C866.054 441.624 869.576 432.083 870.951 422.562C871.297 420.17 871.267 418.903 869.814 416.933C869.433 415.135 869.622 413.813 870.613 412.281C871.973 410.178 874.788 407.168 877.333 406.608C878.159 406.426 878.301 406.685 878.988 407.053C879.799 409.771 879.677 412.813 879.799 415.636Z" fill="#FFC600"/>
<path d="M880.977 331.718L882.994 330.234L883.633 330.383C883.539 331.563 883.46 332.745 883.32 333.92C883.197 336.437 883.392 338.736 883.719 341.218C886.098 343.891 888.418 346.71 891.001 349.184C890.579 352.192 890.413 355.145 890.266 358.174C890.18 359.928 890.164 362.156 891.469 363.53C892.811 364.944 894.728 365.362 895.871 367C895.015 367.856 895.007 367.742 893.916 368.008C887.268 373.8 885.638 384.423 880.817 391.695C877.956 396.011 873.421 399.121 870.857 403.657C869.231 406.532 867.686 410.142 867.442 413.427C867.427 413.625 867.419 413.824 867.405 414.022L867.324 415.04C867.308 415.265 867.298 415.489 867.285 415.714C862.272 412.947 856.837 411.958 851.81 409.506L851.531 408.347C858.262 402.05 856.812 383.68 857.241 375.113C857.447 373.949 857.706 372.802 857.962 371.649L857.248 372.075L854.827 370.801C855.753 369.087 856.438 367.304 858.263 366.404C858.214 366.373 858.159 366.351 858.117 366.31C857.571 365.781 857.132 365.215 856.446 364.839C853.985 363.491 850.509 364.714 847.943 365.281C846.289 364.172 844.81 362.863 843.3 361.57C842.264 361.373 841.235 361.183 840.211 360.927L839.992 360.388C850.908 358.013 868.705 343.154 877.35 335.474C878.667 334.298 880.015 333.218 880.977 331.718Z" fill="#FEFEFE"/>
<path d="M866.962 354.2C867.645 355.845 867.579 356.196 869.195 357.08C869.051 361.652 869.63 368.427 868.24 372.651L867.3 372.905C865.472 371.088 867.16 358.302 867.002 354.961L866.962 354.2Z" fill="#161F36"/>
<path d="M876.048 349.981C876.793 351.066 876.524 351.159 877.908 351.421C877.414 355.445 876.532 370.336 874.09 372.615L873.309 372.352C873.55 365.093 875.721 357.839 876.03 350.539C876.038 350.353 876.042 350.167 876.048 349.981Z" fill="#161F36"/>
<path d="M859.393 352.539C863.461 351.025 871.074 347.066 874.901 346.583C878.712 346.102 883.311 348.929 885.517 348.64C886.106 348.563 887.135 347.92 887.717 347.661C887.768 350.132 888.902 352.108 889.181 354.495C890.08 362.198 884.635 368 880.236 373.588C880.642 367.041 883.009 360.579 883.12 354.054C883.149 352.349 882.96 351.463 881.773 350.24C880.33 349.955 879.748 349.663 878.357 350.215L877.908 351.421C876.524 351.159 876.793 351.066 876.048 349.981C874.345 349.599 873.406 349.39 871.76 350.047C869.65 351.903 869.578 354.44 869.195 357.08C867.579 356.196 867.645 355.845 866.962 354.2L866.558 353.274C865.361 353.176 864.716 353.138 863.706 353.991C858.42 358.451 863.906 374.937 860.52 377.412L859.86 377.114C859.7 375.793 859.745 373.023 858.729 372.147C858.498 371.948 858.218 371.815 857.962 371.649L857.248 372.075L854.827 370.801C855.753 369.087 856.438 367.304 858.263 366.404C858.181 365.759 857.989 365.184 857.802 364.563C856.102 363.304 854.264 363.412 852.339 362.75C851.334 362.405 851.39 362.522 850.911 361.495L851.286 360.871C853.524 360.076 856.129 360.462 858.476 360.556C858.577 357.844 858.982 355.215 859.393 352.539Z" fill="#071338"/>
<path d="M816.474 403.741C821.303 403.433 826.716 407.52 830.203 410.583C830.884 411.172 831.548 411.781 832.195 412.409C830.221 417.165 821.819 435.379 821.744 439.275C822.415 441.832 821.096 443.779 820.807 446.282L821.34 446.185L821.792 445.38L822.248 445.587C823.408 443.256 824.07 440.519 824.881 438.037C829.198 436.205 833.477 432.267 837.189 429.389C830.851 442.315 824.027 455.118 818.951 468.605C817.645 472.073 816.205 479.121 813.21 481.041C809.532 483.655 805.97 485.901 801.807 487.682C792.178 490.293 782.389 491.798 773.172 486.763C770.638 485.379 768.43 483.557 767.698 480.638C765.746 472.855 775.787 457.649 779.718 450.662C787.348 438.401 795.443 426.832 804.541 415.608C806.351 414.201 807.926 411.978 809.455 410.245C811.738 407.996 814.043 405.829 816.474 403.741Z" fill="#FFC600"/>
<path d="M821.744 439.275C822.415 441.832 821.096 443.779 820.807 446.282L821.34 446.185L821.792 445.38L822.248 445.587L822.061 446.269C820.747 450.95 817.997 459.372 813.586 461.832L813.32 461.236L813.764 461.666L814.004 461.482L813.439 460.682C814.457 457.506 816.33 454.548 817.646 451.469C819.325 447.538 820.459 443.35 821.744 439.275Z" fill="#101A38"/>
<path d="M622.622 327.89C621.212 308.635 627.02 289.905 639.684 275.202C652.74 260.044 670.458 251.212 690.409 249.71C709.627 248.262 729.263 255.352 743.669 267.999C744.543 268.768 745.398 269.559 746.233 270.371C747.068 271.182 747.882 272.014 748.676 272.867C749.469 273.72 750.241 274.591 750.991 275.482C751.742 276.373 752.469 277.281 753.174 278.208C753.879 279.135 754.561 280.079 755.219 281.04C755.877 282.001 756.511 282.977 757.12 283.97C757.729 284.963 758.314 285.97 758.873 286.991C759.433 288.012 759.967 289.047 760.474 290.095C760.982 291.143 761.464 292.203 761.919 293.275C762.374 294.347 762.802 295.43 763.203 296.523C763.604 297.616 763.978 298.719 764.325 299.831C764.672 300.943 764.99 302.063 765.281 303.19C765.572 304.318 765.834 305.452 766.068 306.593C766.303 307.734 766.508 308.88 766.685 310.031C766.862 311.182 767.011 312.336 767.131 313.495C767.251 314.654 767.342 315.814 767.404 316.977C767.468 318.154 767.503 319.331 767.51 320.51C767.517 321.689 767.494 322.868 767.443 324.045C767.392 325.222 767.313 326.398 767.204 327.572C767.095 328.745 766.957 329.916 766.791 331.083C766.625 332.25 766.431 333.412 766.208 334.569C765.985 335.726 765.733 336.878 765.454 338.023C765.175 339.168 764.867 340.306 764.532 341.436C764.197 342.566 763.835 343.687 763.444 344.799C763.054 345.912 762.637 347.014 762.193 348.106C761.749 349.197 761.279 350.278 760.782 351.347C760.285 352.416 759.762 353.472 759.213 354.515C758.664 355.558 758.09 356.587 757.491 357.602C756.892 358.617 756.269 359.617 755.621 360.602C754.972 361.586 754.3 362.554 753.605 363.506C752.91 364.457 752.191 365.391 751.45 366.308C750.709 367.224 749.945 368.122 749.16 369.001C736.334 383.376 716.688 392.452 697.501 393.521C684.944 394.221 666.392 390.509 656.159 382.881C656.135 382.863 656.115 382.84 656.093 382.819C650.247 379.99 645.08 375.325 640.832 370.475C630.525 360.361 622.872 342.302 622.622 327.89Z" fill="#101A38"/>
<path d="M641.971 368.397C648.796 375.104 655.973 380.174 664.4 384.704C659.718 385.481 652.131 377.804 647.901 375.722C647.752 375.649 647.597 375.59 647.444 375.524L647.374 375.257L647.352 375.432C649.523 377.517 654.091 380.083 655.623 382.141C655.787 382.362 655.936 382.593 656.093 382.819C650.247 379.99 645.08 375.325 640.832 370.475C641.489 369.799 641.687 369.289 641.971 368.397Z" fill="#161F36"/>
<path d="M624.952 318.294C627.288 297.75 635.395 280.213 651.916 267.173C665.886 256.148 685.144 250.643 702.823 252.761C721.198 254.961 738.977 264.205 750.438 278.916C751.133 279.816 751.806 280.732 752.457 281.665C753.107 282.598 753.734 283.547 754.337 284.511C754.94 285.475 755.52 286.453 756.075 287.446C756.63 288.439 757.161 289.444 757.667 290.463C758.173 291.482 758.653 292.512 759.108 293.554C759.563 294.597 759.992 295.65 760.395 296.713C760.798 297.776 761.174 298.849 761.525 299.931C761.875 301.013 762.198 302.103 762.495 303.201C762.791 304.299 763.06 305.404 763.302 306.515C763.544 307.626 763.759 308.743 763.946 309.865C764.133 310.987 764.292 312.113 764.423 313.242C764.554 314.372 764.658 315.504 764.734 316.639C764.809 317.774 764.857 318.91 764.877 320.047C764.896 321.184 764.888 322.321 764.852 323.458C764.815 324.595 764.751 325.73 764.659 326.863C764.566 327.997 764.446 329.128 764.298 330.255C764.162 331.353 763.999 332.447 763.808 333.537C763.618 334.627 763.4 335.712 763.155 336.791C762.91 337.87 762.639 338.943 762.34 340.008C762.041 341.073 761.716 342.131 761.365 343.18C761.014 344.229 760.636 345.269 760.232 346.299C759.829 347.33 759.4 348.349 758.945 349.358C758.49 350.367 758.011 351.363 757.506 352.348C757.002 353.333 756.473 354.304 755.92 355.263C755.367 356.221 754.79 357.165 754.189 358.094C753.589 359.024 752.966 359.938 752.319 360.836C751.673 361.734 751.005 362.615 750.314 363.48C749.624 364.345 748.913 365.192 748.18 366.021C747.447 366.85 746.693 367.661 745.92 368.452C745.147 369.243 744.354 370.015 743.542 370.767C742.73 371.518 741.9 372.249 741.052 372.96C740.203 373.67 739.337 374.358 738.454 375.025C723.722 386.367 703.773 393.002 685.128 390.534C677.721 389.554 671.467 386.567 664.4 384.704C655.973 380.174 648.796 375.104 641.971 368.397C629.578 353.159 624.995 337.774 624.952 318.294Z" fill="#FEFEFE"/>
<path d="M689.559 331.571C693.164 331.261 696.853 331.225 700.325 332.392C702.309 333.058 704.902 334.521 705.721 336.579C706.23 337.857 706.013 338.601 705.584 339.843C704.899 340.492 704.403 340.959 703.449 341.189C701.065 341.764 698.988 340.334 696.964 339.276C690.537 337.796 686.297 342.332 683.699 341.679C682.104 341.279 680.845 340.225 680.089 338.792C680.114 337.924 680.021 337.468 680.444 336.682C682.201 333.419 686.273 332.427 689.559 331.571Z" fill="#101A38"/>
<path d="M689.413 347.576C690.954 347.417 692.557 347.201 694.102 347.394C696.336 347.673 698.444 348.981 699.762 350.801C700.941 352.43 701.393 354.385 701.071 356.367C700.559 359.523 698.702 361.551 696.202 363.362C695.029 363.562 693.82 363.786 692.626 363.731C690.335 363.625 688.159 362.661 686.638 360.925C686.459 360.72 686.291 360.507 686.134 360.285C685.977 360.062 685.833 359.832 685.701 359.595C685.569 359.357 685.45 359.113 685.343 358.863C685.236 358.613 685.143 358.358 685.063 358.098C684.984 357.838 684.918 357.574 684.866 357.307C684.815 357.04 684.777 356.772 684.753 356.501C684.73 356.23 684.721 355.958 684.726 355.686C684.731 355.415 684.751 355.144 684.785 354.874C685.175 351.571 686.901 349.574 689.413 347.576Z" fill="#101A38"/>
<path d="M691.058 314.691C692.225 314.607 693.338 314.582 694.508 314.638C700.304 314.913 711.255 316.973 715.14 321.617C715.971 322.609 716.384 323.843 716.1 325.137C715.799 326.511 714.746 328.007 713.629 328.848C710.94 330.873 704.079 326.565 701.126 325.601C699.52 325.077 697.786 324.86 696.118 324.612C688.916 324.023 677.148 330.912 673.07 328.564C671.863 327.87 671.125 326.973 670.833 325.587C670.477 323.902 671.146 322.131 672.219 320.841C675.609 316.767 685.82 315.231 691.058 314.691Z" fill="#101A38"/>
<path d="M692.341 294.715C692.642 294.699 692.943 294.673 693.245 294.669C701.378 294.55 721.678 298.72 727.079 304.788C727.578 305.349 728.187 306.143 728.086 306.918C727.874 308.546 726.12 311.618 724.66 312.518C724.508 312.612 723.464 313.188 723.162 313.198C720.175 313.289 710.748 308.524 706.862 307.383C703.674 306.446 700.457 305.961 697.169 305.53C685.324 305.283 676.248 309.01 665.512 313.535C664.592 313.438 664.091 313.322 663.311 312.778C661.968 311.841 660.189 309.116 660.064 307.454C659.984 306.401 660.339 305.493 661.026 304.722C666.403 298.69 684.566 295.284 692.341 294.715Z" fill="#101A38"/>
<path d="M40.755 28.5709C41.6765 26.926 42.2261 25.632 44.1609 25.0568C46.3477 24.4068 88.5031 24.9903 94.1609 24.9784L312.026 25.0135L406.258 24.9194C422.522 24.8702 440.201 23.6292 456.257 25.0764C457.489 26.2675 458.788 27.4305 459.865 28.7641C460.518 34.9119 460.287 41.182 460.303 47.3576L460.213 80.345L459.843 208.645L460.011 396.645L460.024 459.018C460.046 468.182 460.972 477.655 460.245 486.775C460.116 488.399 460.033 490.264 459.031 491.63C458.046 492.972 456.666 494.17 455.424 495.274C451.278 495.408 446.871 495.686 442.755 495.056C446.261 494.764 449.826 494.761 453.345 494.584C450.824 494.535 448.238 494.593 445.731 494.333C436.438 493.367 426.303 495.849 416.999 494.225C422.189 493.572 427.633 494.29 432.865 494.245C439.076 494.191 445.271 493.55 451.491 493.61L451.674 493.117C452.563 492.843 453.405 492.515 454.264 492.159C455.54 487.829 454.506 466.864 454.482 461.063L454.506 393.608L454.647 205.536L454.53 120.107C454.502 103.668 454.853 87.1672 454.402 70.7369C441.482 69.078 425.038 70.0929 411.778 70.037L322.224 70.0151L42.194 69.5142L42.2033 157.714L42.1934 181.888C42.2048 185.902 42.631 190.154 42.0296 194.118L40.8941 194.742C40.2559 175.123 40.7425 155.345 40.7471 135.71L40.755 28.5709Z" fill="#DBDCE2"/>
<path d="M142.924 43.5843C144.414 43.4031 145.944 43.2229 147.443 43.412C149.678 43.6939 151.777 45.2545 153.015 47.0948C154.064 48.6545 154.533 50.6106 154.124 52.4603C153.472 55.4078 151.693 56.8671 149.274 58.4519C147.871 58.588 146.463 58.7104 145.054 58.6146C142.698 58.4544 140.599 57.4614 139.129 55.5738C137.976 54.0925 137.47 52.2288 137.82 50.3747C138.412 47.2437 140.335 45.2447 142.924 43.5843Z" fill="#FEFEFE"/>
<path d="M76.6547 43.072C78.2769 43.177 79.8561 43.3165 81.2558 44.2188C81.4928 44.371 81.7218 44.5342 81.9429 44.7086C82.1639 44.883 82.376 45.0677 82.5792 45.2627C82.7823 45.4578 82.9755 45.6622 83.1587 45.876C83.3419 46.0898 83.5142 46.312 83.6758 46.5426C83.8374 46.7732 83.9875 47.0111 84.126 47.2563C84.2644 47.5015 84.3907 47.7529 84.5047 48.0103C84.6187 48.2678 84.7199 48.5302 84.8083 48.7975C84.8968 49.0648 84.9721 49.3358 85.0343 49.6104C85.5003 51.7632 85.0922 54.1556 83.8707 55.9937C82.3785 58.2392 80.4442 58.8773 77.9168 59.4255C76.52 59.2602 75.1101 59.1227 73.8465 58.4586C73.6011 58.3284 73.3627 58.1864 73.1313 58.0326C72.8999 57.8788 72.6766 57.714 72.4616 57.5381C72.2465 57.3622 72.0406 57.1761 71.844 56.9798C71.6473 56.7836 71.4608 56.578 71.2846 56.3632C71.1082 56.1485 70.9429 55.9256 70.7887 55.6944C70.6345 55.4633 70.4921 55.2251 70.3614 54.9799C70.2308 54.7347 70.1126 54.4837 70.0068 54.2267C69.901 53.9698 69.8082 53.7083 69.7284 53.4421C69.0932 51.328 69.4322 48.9388 70.5447 47.0445C71.9496 44.6525 74.0928 43.7711 76.6547 43.072Z" fill="#FEFEFE"/>
<path d="M108.865 43.6279C110.457 43.4977 112.107 43.3355 113.695 43.585C115.972 43.9431 118.149 45.6315 119.427 47.5023C120.524 49.1076 121.054 51.0451 120.614 52.9671C119.966 55.8012 118.237 57.3072 115.898 58.8286C114.398 59.1376 112.767 59.57 111.23 59.382C110.953 59.3458 110.679 59.296 110.408 59.2326C110.137 59.1692 109.869 59.0926 109.605 59.0026C109.341 58.9126 109.082 58.8098 108.828 58.6941C108.575 58.5784 108.327 58.4504 108.086 58.3101C107.845 58.1699 107.612 58.0181 107.386 57.8546C107.16 57.6912 106.943 57.5169 106.734 57.3319C106.525 57.1469 106.326 56.952 106.137 56.7472C105.948 56.5425 105.769 56.3289 105.601 56.1063C105.436 55.8803 105.284 55.6462 105.144 55.4038C105.005 55.1615 104.879 54.9124 104.766 54.6566C104.653 54.4008 104.553 54.1397 104.468 53.8732C104.383 53.6068 104.313 53.3366 104.257 53.0626C104.201 52.7886 104.16 52.5124 104.133 52.234C104.106 51.9556 104.095 51.6766 104.098 51.3969C104.101 51.1173 104.119 50.8387 104.152 50.5609C104.185 50.2833 104.233 50.0081 104.296 49.7355C104.948 46.7647 106.367 45.2351 108.865 43.6279Z" fill="#FEFEFE"/>
<path d="M865.615 453.64C887.288 432.224 911.33 413.585 930.856 390.02C939.362 391.852 944.023 395.595 949.373 402.308L949.566 402.746C950.089 403.929 950.6 405.117 951.099 406.311C959.215 425.838 949.386 456.862 945.209 477.036C943.35 485.878 941.96 494.793 941.041 503.781C939.397 520.752 940.859 538.681 944.103 555.428C945.308 561.646 952.338 586.027 951.894 589.719C951.644 589.945 951.396 590.174 951.143 590.397C934.582 604.935 901.492 611.72 879.95 609.998C868.735 609.101 839.209 603.722 831.976 595.177C830.862 591.705 834.146 585.83 835.327 582.385C839.696 574.318 844.464 529.68 845.536 517.857C863.423 510.552 879.798 498.87 895.077 487.239C899.443 483.915 904.54 480.442 908.222 476.366C908.653 474.591 909.956 473.606 911.184 472.294L910.872 472.124C910.136 472.84 909.399 473.511 908.602 474.158L907.641 473.794C885.795 490.599 864.104 508.715 837.659 517.835C830.701 520.052 824.878 520.146 817.997 517.79C816.06 516.74 814.262 515.466 812.866 513.737C809.99 510.174 810.275 506.108 810.693 501.855C812.439 498.275 813.368 493.005 814.615 489.123C817.568 479.663 820.933 470.352 824.711 461.19C831.84 444.21 842.196 428.579 848.989 411.528C854.301 413.207 859.461 415.072 864.631 417.145C866.094 417.939 867.677 418.517 868.413 420.098C868.012 427.696 864.632 436.242 862.866 443.679C860.145 455.142 858.756 471.741 853.276 481.838C852.05 484.097 846.733 491.523 847.904 493.519C848.61 493.504 848.939 493.682 849.468 493.147C857.336 485.18 860.799 467.135 862.882 456.403L865.615 453.64Z" fill="#FFC600"/>
<path d="M917.889 465.015C921.15 461.777 929.423 452.393 933.521 451.47L933.869 452.016C931.618 457.508 923.682 463.462 918.988 467.221C915.532 470.237 912.031 473.841 908.222 476.366C908.653 474.591 909.956 473.606 911.184 472.294L910.872 472.124C910.136 472.84 909.399 473.511 908.602 474.158L907.641 473.794C910.72 470.648 914.445 467.751 917.889 465.015Z" fill="#101A38"/>
<path d="M834.418 600.508C835.303 600.949 836.194 601.378 837.089 601.797C837.985 602.216 838.886 602.623 839.792 603.019C840.698 603.415 841.609 603.8 842.524 604.173C843.44 604.546 844.36 604.908 845.284 605.258C846.209 605.609 847.138 605.947 848.071 606.274C849.004 606.601 849.941 606.917 850.882 607.22C851.823 607.524 852.768 607.816 853.716 608.096C854.664 608.376 855.616 608.644 856.571 608.9C857.526 609.156 858.484 609.4 859.445 609.633C860.406 609.865 861.37 610.085 862.336 610.293C863.303 610.501 864.272 610.697 865.244 610.881C866.215 611.065 867.189 611.237 868.164 611.397C869.14 611.556 870.118 611.704 871.097 611.839C872.077 611.974 873.058 612.097 874.04 612.208C875.023 612.319 876.007 612.417 876.992 612.503C877.977 612.589 878.962 612.663 879.949 612.724C880.936 612.785 881.924 612.834 882.912 612.871C883.9 612.908 884.888 612.932 885.877 612.944C886.866 612.956 887.854 612.956 888.843 612.943C889.832 612.93 890.82 612.905 891.808 612.868C892.796 612.831 893.783 612.781 894.77 612.719C895.757 612.656 896.743 612.582 897.728 612.495C898.713 612.408 899.696 612.309 900.679 612.198C901.662 612.087 902.643 611.963 903.622 611.827C904.601 611.691 905.579 611.543 906.554 611.383C907.53 611.223 908.504 611.051 909.475 610.866C910.446 610.681 911.415 610.484 912.381 610.275C913.348 610.066 914.312 609.846 915.273 609.613C916.234 609.38 917.191 609.135 918.146 608.878C919.101 608.621 920.052 608.352 921 608.071C921.948 607.79 922.893 607.498 923.834 607.194C924.775 606.89 925.711 606.574 926.644 606.246C931.359 604.619 945.599 597.041 948.056 596.635C948.272 596.6 948.49 596.574 948.706 596.543C948.933 599.505 948.988 602.399 948.928 605.369C949.103 608.011 948.94 610.035 950.9 612.084C948.999 642.038 939.957 677.169 932.01 706.334C930.146 713.245 928.225 720.141 926.248 727.021C923.757 735.546 920.11 744.751 920.017 753.722C919.873 767.558 932.642 790.784 936.441 805.812C941.43 825.547 942.48 846.634 943.327 866.889C943.773 876.8 944.587 886.835 944.54 896.75C945.082 904.876 945.349 913.035 946.056 921.146C946.398 925.071 947.522 929.692 947.443 933.532C946.359 934.375 945.875 934.575 945.6 935.983C945.54 936.293 945.53 936.611 945.495 936.925C943.726 938.815 937.975 938.432 935.351 938.949C927.514 939.415 919.672 939.741 911.824 939.926C912.191 924.243 910.023 907.415 904.795 892.526C902.797 884.582 899.488 876.568 896.267 869.047C891.502 857.157 886.348 845.383 881.224 833.642C879.731 830.13 878.262 826.608 876.817 823.076C871.53 808.771 866.621 794.574 862.189 779.985C860.196 779.631 860.159 779.288 858.873 777.822C856.103 771.956 854.156 757.267 852.966 750.345C850.179 755.414 847.178 761.424 843.582 765.917C844.705 770.507 845.775 775.195 847.128 779.719C849.678 788.245 853.202 796.963 853.07 805.998C851.423 806.976 851.347 808.323 850.813 810.092C851.016 817.212 851.05 824.333 850.915 831.455C851.231 833.923 851.385 835.498 852.925 837.499C852.761 842.013 852.945 847.252 852.084 851.668C851.965 853.343 851.915 855.058 851.695 856.722L849.505 855.594C849.137 860.348 848.584 865.16 848.449 869.924C848.082 875.872 847.464 881.945 847.475 887.899C847.238 891.906 846.85 895.972 846.943 899.985C845.815 909.419 846.018 919.986 846.778 929.456C846.965 931.385 849.364 944.943 849.34 945.046C849.274 945.326 849.002 945.51 848.833 945.743C847.715 946.107 846.614 946.497 845.465 946.751C838.428 948.082 830.094 948.678 823.17 946.534C820.861 945.818 820.13 945.32 819.011 943.147C819.918 938.788 817.154 929.241 816.276 924.608C815.089 917.261 813.757 909.94 812.279 902.645C811.714 898.833 811.027 895.044 810.216 891.277C808.989 879.607 805.858 867.53 803.711 855.955C802.497 849.92 801.376 843.869 800.348 837.8L799.048 831.835C798.379 826.344 796.989 820.858 795.868 815.441L794.867 816.17L793.38 815.458L792.328 810.516C791.64 807.288 790.932 804.074 790.473 800.804L792.296 797.071C789.983 779.197 786.487 773.176 788.86 753.755C793.486 728.423 801.387 704.137 808.861 679.552C812.732 666.822 816.943 654.234 820.954 641.553C825.301 627.81 829.428 614.042 834.418 600.508Z" fill="#F9C477"/>
<path d="M793.919 805.987C794.626 809.126 795.276 812.278 795.868 815.441L794.867 816.17L793.38 815.458L792.328 810.516C792.769 808.938 793.256 807.487 793.919 805.987Z" fill="#161F36"/>
<path d="M790.473 800.804L792.296 797.071C792.846 799.999 793.615 803.033 793.919 805.987C793.256 807.487 792.769 808.938 792.328 810.516C791.64 807.288 790.932 804.074 790.473 800.804Z" fill="#101A38"/>
<path d="M841.738 770.039C840.201 772.351 838.994 775.984 836.238 777.051L835.919 776.394C836.412 773.253 838.15 770.615 839.692 767.89C840.347 768.631 840.964 769.422 841.738 770.039Z" fill="#161F36"/>
<path d="M850.915 831.455C851.231 833.923 851.385 835.498 852.925 837.499C852.761 842.013 852.945 847.252 852.084 851.668C851.965 853.343 851.915 855.058 851.695 856.722L849.505 855.594C849.609 851.721 849.941 847.828 850.167 843.959C850.432 839.786 850.539 835.624 850.915 831.455Z" fill="#101A38"/>
<path d="M842.224 763.61C842.002 765.293 841.524 767.105 842.12 768.741L842.907 768.728C843.175 767.608 843.114 766.744 843.033 765.609L843.364 765.335L843.582 765.917C844.705 770.507 845.775 775.195 847.128 779.719C849.678 788.245 853.202 796.963 853.07 805.998C851.423 806.976 851.347 808.323 850.813 810.092C850.643 806.477 850.54 802.829 849.932 799.256C849.329 795.711 843.057 771.847 841.738 770.039C840.964 769.422 840.347 768.631 839.692 767.89C840.49 766.437 841.366 765.028 842.224 763.61Z" fill="#101A38"/>
<path d="M842.224 763.61C846.659 753.111 858.533 735.939 864.915 725.655C878.928 703.48 892.39 680.975 905.301 658.14C908.812 651.913 920.921 625.814 925.217 622.964C926.107 625.929 914.718 646.418 912.579 650.4C901.502 671.021 889.306 691.228 876.975 711.119C869.507 723.166 861.135 735.333 854.712 747.948C856.912 758.744 859.14 769.389 862.189 779.985C860.196 779.631 860.159 779.288 858.873 777.822C856.103 771.956 854.156 757.267 852.966 750.345C850.179 755.414 847.178 761.424 843.582 765.917L843.364 765.335L843.033 765.609C843.114 766.744 843.175 767.608 842.907 768.728L842.12 768.741C841.524 767.105 842.002 765.293 842.224 763.61Z" fill="#161F36"/>
<path d="M948.928 605.369C949.103 608.011 948.94 610.035 950.9 612.084C948.999 642.038 939.957 677.169 932.01 706.334C930.146 713.245 928.225 720.141 926.248 727.021C923.757 735.546 920.11 744.751 920.017 753.722C919.873 767.558 932.642 790.784 936.441 805.812C941.43 825.547 942.48 846.634 943.327 866.889C943.773 876.8 944.587 886.835 944.54 896.75C945.082 904.876 945.349 913.035 946.056 921.146C946.398 925.071 947.522 929.692 947.443 933.532C946.359 934.375 945.875 934.575 945.6 935.983C945.54 936.293 945.53 936.611 945.495 936.925C945.494 935.892 945.539 936.202 945.408 935.362C943.558 923.513 942.792 911.471 942.24 899.501C941.833 890.91 941.333 882.286 941.442 873.683C940.419 867.847 940.603 861.342 940.225 855.407C939.278 840.54 938.288 825.224 934.942 810.661C932.653 800.693 928.87 791.051 925.161 781.542C922.305 774.218 919.123 766.963 917.848 759.156C917.318 755.915 917.44 752.629 917.507 749.357C913.11 751.422 907.965 755.145 903.048 755.335L902.817 754.782C906.602 750.89 912.615 747.814 917.766 746.244C922.309 733.482 925.688 719.914 929.189 706.828C936.445 679.7 943.5 651.724 947.27 623.884C948.101 617.755 948.249 611.521 948.928 605.369Z" fill="#101A38"/>
<path d="M632.461 486.549C634.745 486.402 636.805 486.756 639.014 487.299C645.647 488.931 652.127 491.247 658.644 493.286L700.38 506.501C724.551 514.029 748.835 521.212 772.653 529.815C780.117 532.51 788.425 534.848 795.326 538.719C796.346 540.861 797.039 543.102 797.784 545.35C797.105 547.598 796.36 549.829 794.601 551.479C789.339 556.412 767.68 563.755 759.988 566.388C754.961 568.108 749.454 569.548 744.875 572.275C740.369 574.958 736.992 579.205 734.88 583.971C732.197 590.026 730.711 596.836 728.797 603.191C723.132 622.01 718.343 640.991 713.338 659.991C705.158 691.042 696.717 721.977 688.943 753.134C686.999 760.927 684.652 768.612 682.874 776.449C682.362 778.702 681.677 779.799 680.19 781.604C687.307 803.29 694.973 824.785 702.242 846.42C705.047 854.765 709.008 870.226 712.737 877.251C712.22 880.187 711.83 883.469 710.143 885.996C708.728 888.115 706.468 889.566 704.173 890.586C695.42 894.476 676.518 897.221 666.409 899.297C672.345 899.576 678.358 900.113 683.542 903.333C688.119 906.177 691.013 910.658 692.106 915.907C692.179 916.266 692.242 916.627 692.297 916.989C692.352 917.351 692.397 917.714 692.434 918.079C692.471 918.443 692.498 918.808 692.516 919.174C692.535 919.54 692.544 919.906 692.544 920.273C692.544 920.639 692.535 921.005 692.517 921.371C692.498 921.737 692.471 922.102 692.435 922.466C692.398 922.831 692.353 923.194 692.298 923.556C692.243 923.919 692.18 924.279 692.108 924.638C692.035 924.997 691.954 925.354 691.863 925.709C691.772 926.064 691.673 926.417 691.565 926.767C691.457 927.117 691.34 927.464 691.215 927.808C691.09 928.152 690.956 928.493 690.814 928.831C690.671 929.168 690.521 929.502 690.362 929.832C690.203 930.162 690.035 930.488 689.86 930.809C689.685 931.131 689.501 931.448 689.31 931.76C689.119 932.073 688.921 932.38 688.714 932.683C685.228 937.727 679.229 940.997 673.213 941.846C665.776 942.896 654.418 938.96 648.62 934.232C648.385 934.041 648.156 933.845 647.931 933.643C647.707 933.44 647.488 933.232 647.274 933.018C647.06 932.805 646.852 932.586 646.649 932.362C646.446 932.137 646.25 931.908 646.059 931.674C645.868 931.439 645.684 931.2 645.505 930.956C645.326 930.713 645.154 930.465 644.988 930.212C644.822 929.959 644.663 929.702 644.51 929.441C644.357 929.18 644.211 928.916 644.072 928.647C643.933 928.379 643.801 928.107 643.676 927.832C643.551 927.557 643.433 927.279 643.322 926.998C643.211 926.717 643.107 926.433 643.011 926.147C642.914 925.86 642.825 925.571 642.744 925.28C642.662 924.989 642.588 924.697 642.521 924.402C642.454 924.107 642.395 923.81 642.344 923.512C642.293 923.215 642.249 922.916 642.213 922.616C642.177 922.315 642.149 922.014 642.128 921.713C641.583 914.611 644.88 908.788 649.381 903.631C612.909 912.373 576.121 920.009 539.547 928.334C501.84 936.916 464.228 946.074 426.171 953.04C427.227 953.373 428.279 953.718 429.327 954.077C434.489 955.853 439.055 958.49 441.401 963.654C443.611 968.519 443.913 974.239 441.969 979.225C439.776 984.847 434.939 990.194 429.306 992.492C421.343 995.74 413.901 991.551 406.707 988.382C401.131 985.926 395.258 982.643 393.083 976.565C391.078 970.959 392.715 965.489 395.017 960.306C387.572 960.805 380.646 961.797 373.168 960.641C358.006 958.296 341.694 950.664 327.244 945.219C314.575 940.445 301.574 935.999 289.112 930.734C285.079 929.03 281.06 926.126 279.481 921.881C278.654 919.658 278.771 917.333 279.885 915.231C283.93 907.605 296.978 904.631 304.529 902.024C311.274 899.856 317.914 897.112 324.57 894.67C335.03 890.888 345.511 887.165 356.012 883.5L451.996 850.745C473.141 843.342 494.383 836.231 515.723 829.41C526.12 826.032 536.45 822.381 546.965 819.384C548.077 818.072 549.038 816.569 550.041 815.17C538.386 818.415 526.491 820.99 514.745 823.91L424.418 846.195L383.043 856.595C375.314 858.584 349.395 866.955 343.764 866.543C338.053 866.124 329.475 861.969 323.851 859.911L289.149 847.246L255.005 835.123C247.998 832.692 240.798 830.516 233.94 827.686C230.452 826.247 226.87 825.172 225.43 821.456C222.893 814.907 221.829 807.043 220.356 800.122C217.037 784.028 213.815 767.915 210.688 751.782C207.779 737.171 204.516 722.646 201.675 708.016C200.446 701.688 198.912 695.242 198.182 688.839C197.837 685.818 197.838 682.241 199.284 679.474C200.473 677.2 207.179 674.665 209.522 673.725C226.537 666.905 244.099 661.163 261.317 654.86L392.492 607.399C436.359 591.058 480.391 575.173 524.588 559.744C539.284 554.657 553.793 548.937 568.674 544.397C570.336 536.639 570.832 526.333 573.989 519.264C578.839 508.405 607.07 505.237 609.15 501.087C609.865 499.661 609.625 497.657 610.623 496.286C613.341 492.553 627.773 488.058 632.461 486.549Z" fill="#101A38"/>
<path d="M684.213 907.462C685.62 908.824 687.11 910.152 688.344 911.675C688.942 914.674 689.34 916.9 688.837 919.957C688.024 924.891 687.951 927.923 684.287 931.9L683.54 932.056C683.384 930.877 683.408 930.87 684.167 929.889C684.56 929.381 685.002 928.978 685.451 928.523C687.529 926.416 687.011 922.721 687.074 919.923C687.393 919.868 687.665 919.66 687.951 919.509C687.82 915.003 684.026 911.833 684.213 907.462Z" fill="#161F36"/>
<path d="M671.327 903.085C676.182 903.435 680.346 904.337 684.213 907.462C684.026 911.833 687.82 915.003 687.951 919.509C687.665 919.66 687.393 919.868 687.074 919.923C686.756 917.814 686.131 915.61 685.143 913.716C682.333 908.331 676.499 905.686 671.034 903.826L671.327 903.085Z" fill="#535F80"/>
<path d="M410.274 957.624C411.166 957.473 411.744 957.462 412.63 957.654C411.524 960.111 408.975 962.326 407.363 964.527C402.748 970.827 405.143 975.03 406.172 981.692L405.214 981.522C401.618 979.418 399.158 977.478 398.146 973.249C397.311 969.758 398.076 965.646 400.112 962.689C402.837 958.731 405.868 958.386 410.274 957.624Z" fill="#FEFEFE"/>
<path d="M507.73 852.086L508.741 852.175C503.625 855.695 499.541 858.145 497.494 864.462C495.793 869.709 496.58 874.567 499.036 879.384L499.356 880.001L499.012 880.394L496.483 879.445C494.398 877.839 492.379 876.209 491.149 873.824C488.085 867.879 492.422 862.125 494.235 856.571L494.402 856.048C498.823 854.655 503.266 853.334 507.73 852.086Z" fill="#FEFEFE"/>
<path d="M671.034 903.826C668.703 903.98 666.568 904.603 664.508 905.723C658.32 909.089 653.058 917.247 654.372 924.507C654.764 926.676 656.631 929.174 655.954 931.316C653.79 931.006 651.57 929.513 650.171 927.868C648.18 925.527 647.551 922.417 647.892 919.417C648.449 914.512 651.399 909.944 655.205 906.898C660.341 902.787 665.109 902.522 671.327 903.085L671.034 903.826Z" fill="#FEFEFE"/>
<path d="M328.13 704.517L328.768 704.997C328.877 710.206 327.45 716.288 326.724 721.489C320.987 719.707 315.315 717.689 309.628 715.754L302.796 713.461C311.172 710.322 319.694 707.493 328.13 704.517Z" fill="#FEFEFE"/>
<path d="M422.314 962.02C424.098 962.084 425.967 962.231 427.611 962.974C427.922 963.112 428.226 963.266 428.521 963.435C428.816 963.604 429.102 963.788 429.379 963.987C429.655 964.186 429.92 964.399 430.175 964.625C430.43 964.851 430.672 965.089 430.902 965.34C431.132 965.591 431.349 965.853 431.552 966.126C431.755 966.399 431.944 966.682 432.118 966.975C432.292 967.268 432.45 967.569 432.593 967.878C432.736 968.187 432.863 968.502 432.974 968.824C433.081 969.143 433.172 969.466 433.247 969.794C433.322 970.123 433.38 970.454 433.422 970.787C433.465 971.121 433.49 971.456 433.499 971.793C433.508 972.129 433.5 972.465 433.476 972.801C433.451 973.136 433.41 973.47 433.353 973.802C433.296 974.133 433.222 974.461 433.132 974.786C433.042 975.11 432.936 975.429 432.815 975.743C432.694 976.057 432.557 976.364 432.405 976.664C430.78 979.9 428.379 981.138 425.077 982.27C422.843 982.503 420.928 982.683 418.838 981.712C418.574 981.591 418.317 981.456 418.066 981.309C417.815 981.162 417.573 981.003 417.338 980.831C417.103 980.66 416.878 980.477 416.661 980.284C416.444 980.09 416.238 979.886 416.041 979.671C415.845 979.456 415.66 979.233 415.486 979C415.313 978.767 415.151 978.526 415.001 978.277C414.851 978.028 414.714 977.772 414.59 977.509C414.465 977.246 414.354 976.978 414.257 976.704C413.237 973.903 413.596 970.62 414.906 967.977C416.548 964.665 418.87 963.103 422.314 962.02Z" fill="#FEFEFE"/>
<path d="M513.118 860.06C514.648 859.909 516.388 859.893 517.88 860.302C520.677 861.069 523.162 862.96 524.474 865.558C525.71 868.004 525.876 870.757 524.987 873.347C523.718 877.045 521.159 878.715 517.825 880.425C516.016 880.659 513.942 880.754 512.173 880.254C511.888 880.173 511.607 880.078 511.332 879.969C511.056 879.86 510.786 879.737 510.523 879.601C510.26 879.464 510.004 879.315 509.755 879.153C509.507 878.992 509.267 878.818 509.036 878.632C508.805 878.446 508.584 878.249 508.373 878.04C508.162 877.832 507.961 877.614 507.772 877.386C507.583 877.157 507.405 876.92 507.24 876.674C507.075 876.428 506.922 876.174 506.782 875.913C505.353 873.235 505.295 869.944 506.275 867.108C507.54 863.449 509.752 861.711 513.118 860.06Z" fill="#FEFEFE"/>
<path d="M670.616 910.539C672.636 910.446 674.483 910.478 676.376 911.277C676.692 911.408 677.001 911.554 677.302 911.716C677.604 911.878 677.897 912.055 678.18 912.246C678.464 912.437 678.737 912.642 679 912.861C679.263 913.08 679.515 913.311 679.754 913.555C679.994 913.799 680.221 914.055 680.435 914.322C680.649 914.589 680.849 914.866 681.035 915.153C681.221 915.44 681.392 915.735 681.549 916.04C681.706 916.344 681.846 916.655 681.971 916.974C682.111 917.333 682.233 917.699 682.336 918.07C682.439 918.441 682.523 918.817 682.589 919.197C682.654 919.577 682.7 919.959 682.727 920.344C682.754 920.729 682.761 921.114 682.749 921.499C682.737 921.884 682.706 922.268 682.655 922.65C682.605 923.033 682.536 923.411 682.447 923.786C682.358 924.161 682.251 924.531 682.125 924.896C681.999 925.26 681.855 925.617 681.693 925.967C680.068 929.481 677.647 930.903 674.103 932.124C672.145 932.215 669.975 932.34 668.089 931.717C665.542 930.875 663.307 928.909 662.246 926.436C661.145 923.871 661.281 920.943 662.297 918.375C663.872 914.397 666.81 912.172 670.616 910.539Z" fill="#FEFEFE"/>
<path d="M613.496 506.467C616.688 506.993 619.623 508.907 623.046 509.427C610.844 515.597 597.645 520.437 584.992 525.628C583.429 531.847 582.693 538.335 581.733 544.674C581.61 545.138 581.323 545.678 581.133 546.123C579.138 546.665 576.787 545.884 574.795 545.481C575.905 538.891 576.29 531.544 578.461 525.228C579.284 522.833 580.456 520.408 582.489 518.806C584.95 516.866 606.782 509.805 612.908 506.764L613.496 506.467Z" fill="#FEFEFE"/>
<path d="M789.411 541.041C790.463 541.221 790.488 541.438 791.24 542.137C791.498 543.01 791.74 543.75 791.518 544.673C791.025 546.722 788.746 548.042 787.033 548.971C783.751 550.748 780.043 551.89 776.541 553.152C765.771 557.033 753.756 560.154 743.552 565.239C732.491 570.751 728.723 580.484 725.025 591.485C723.182 591.494 721.429 591.746 719.608 592.015C719.032 592.249 719.411 592.143 718.431 592.113C717.684 589.274 721.882 580.975 723.257 578.227C725.44 573.862 728.467 568.668 732.178 565.439C742.763 556.227 775.47 545.726 789.411 541.041Z" fill="#FEFEFE"/>
<path d="M551.325 626.572C552.39 628.098 547.765 647.52 547.383 651.001C536.906 653.991 526.497 658.041 516.166 661.536L515.847 661.238C515.537 658.836 521.565 641.507 522.723 637.501C532.184 633.668 541.718 630.025 551.325 626.572Z" fill="#FEFEFE"/>
<path d="M366.069 790.046C366.164 792.908 351.442 855.58 350.828 856.536C349.454 857.236 348.473 857.337 346.977 857.398L346.481 856.522C345.237 837.026 344.647 817.413 343.935 797.887C351.232 795.044 358.61 792.431 366.069 790.046Z" fill="#FEFEFE"/>
<path d="M269.548 660.512L269.955 660.821C270.911 663.713 271.096 695.976 271.289 702.54C256.696 697.512 242.029 692.707 227.289 688.126C221.633 686.027 215.775 684.3 210.04 682.412C214.801 680.213 219.934 678.51 224.84 676.647C239.646 671.023 254.691 666.018 269.548 660.512Z" fill="#FEFEFE"/>
<path d="M517.165 638.976C517.827 638.921 517.422 638.897 518.342 639.282C518.675 642.679 512.814 658.102 511.755 663.018L453.178 684.005L452.304 683.72C452.451 678.07 456.759 665.578 458.337 659.63C466.129 656.684 474.128 654.234 481.992 651.479L517.165 638.976Z" fill="#FEFEFE"/>
<path d="M453.47 661.085L453.86 661.719C453.47 667.048 449.141 679.626 447.581 685.831C429.012 693.455 409.755 699.296 391.003 706.449C390.213 705.051 395.108 683.904 395.723 681.099C414.906 674.239 434.155 667.568 453.47 661.085Z" fill="#FEFEFE"/>
<path d="M390.385 683.037L391.235 683.159C391.83 686.578 387.167 703.718 386.219 708.034C369.957 713.132 354.008 719.913 337.844 725.441L334.378 724.227C333.048 723.711 331.951 723.218 330.755 722.445C330.107 718.091 332.317 707.899 332.919 703.07C351.858 695.879 371.171 689.46 390.385 683.037Z" fill="#FEFEFE"/>
<path d="M647.448 574.794C656.762 577.823 666.178 580.527 675.518 583.475C686.994 587.096 698.408 590.988 710.211 593.426C701.878 597.341 692.236 599.698 683.506 602.771C668.1 607.874 653.102 614.173 637.625 619.086L647.448 574.794Z" fill="#FEFEFE"/>
<path d="M564.826 553.993C565.331 553.929 564.959 553.949 565.916 554.232C566.362 558.165 562.125 575.377 561.142 580.291C558.366 594.178 555.443 608.064 553.263 622.06C543.983 625.061 534.792 628.803 525.629 632.17C524.926 632.361 525.321 632.349 524.453 632.018C524.26 629.874 542.38 567.75 544.846 560.795C551.532 558.604 558.192 556.336 564.826 553.993Z" fill="#FEFEFE"/>
<path d="M381.267 718.481L382.19 718.645C382.292 718.918 382.464 719.175 382.494 719.464C382.553 720.025 368.302 780.757 366.845 786.194C359.136 788.926 351.45 791.516 343.895 794.668C343.222 787.629 343.25 780.403 342.983 773.326L341.547 732.636C354.128 726.927 368.152 722.912 381.267 718.481Z" fill="#FEFEFE"/>
<path d="M281.089 776.997C299.297 783.88 317.954 789.423 335.962 796.865C336.527 816.743 337.263 836.615 338.17 856.481C322.485 851.68 307.07 845.601 291.598 840.131C290.312 833.567 289.511 826.862 288.4 820.261L281.089 776.997Z" fill="#FEFEFE"/>
<path d="M632.96 490.064C635.157 489.895 637.083 489.988 639.24 490.487C646.407 492.142 653.425 494.842 660.468 496.995C676.437 501.822 692.363 506.789 708.245 511.895C719.87 515.678 731.516 519.392 743.185 523.035C756.914 527.319 770.728 531.462 783.8 537.538C776.323 540.158 768.499 541.973 760.929 544.369C758.212 545.514 755.257 546.347 752.463 547.308C731.978 541.357 711.789 533.739 691.485 527.116C680.75 523.614 617.939 504.853 613.13 501.357C613.068 500.604 612.89 500.168 613.278 499.474C615.726 495.094 628.185 491.69 632.96 490.064Z" fill="#FFC600"/>
<path d="M720.939 598.069L721.161 598.253C721.28 598.582 721.485 598.892 721.517 599.24C721.676 601.005 703.177 667.807 701.152 674.649C695.554 676.327 690.022 678.597 684.481 680.493C674.706 683.796 664.882 686.944 655.009 689.939L654.444 689.256C655.691 681.91 658.368 674.361 660.194 667.094C664.635 649.577 668.973 632.035 673.21 614.468C689.058 608.777 704.879 603.143 720.939 598.069Z" fill="#FEFEFE"/>
<path d="M219.004 754.659C229.98 759.02 241.095 762.629 252.244 766.483C260.322 769.276 268.294 772.371 276.447 774.945C278.451 783.674 279.782 792.609 281.332 801.432C283.49 813.718 285.754 826.007 287.354 838.38C269.133 831.447 250.49 825.645 232.307 818.64C230.061 807.922 227.974 797.167 225.625 786.471C223.298 775.877 220.714 765.377 219.004 754.659Z" fill="#FEFEFE"/>
<path d="M334.648 637.037L335.351 637.757C333.609 658.533 332.713 679.656 329.398 700.25C318.547 703.683 307.805 707.43 297.172 711.49L280.128 705.758L275.093 704.011C274.042 689.073 274.021 673.943 273.599 658.97C281.178 656.605 288.638 653.492 296.088 650.733C308.865 645.954 321.719 641.388 334.648 637.037Z" fill="#FEFEFE"/>
<path d="M205.277 688.855C224.969 695.888 244.931 702.287 264.694 709.148C269.6 729.059 272.638 750.451 275.802 770.755C272.057 770.494 263.341 766.575 259.334 765.182C245.712 760.448 232.025 755.983 218.49 750.995C215.387 739.448 213.423 727.61 211.129 715.886C209.291 706.851 207.34 697.841 205.277 688.855Z" fill="#FEFEFE"/>
<path d="M269.167 710.692C290.742 717.479 311.888 725.507 333.411 732.441C334.153 752.415 335.193 772.346 335.526 792.342C329.119 790.366 322.829 787.851 316.489 785.651C304.454 781.473 292.389 777.414 280.426 773.028C276.148 752.353 273.014 731.453 269.167 710.692Z" fill="#FEFEFE"/>
<path d="M472.863 587.052C473.343 588.937 456.853 649.227 455.212 656.691C446.658 658.764 438.207 662.188 429.884 665.048C418.988 668.793 407.975 672.25 397.154 676.202C396.733 674.37 409.237 614.841 410.881 609.392C431.113 601.064 452.279 594.491 472.863 587.052Z" fill="#FEFEFE"/>
<path d="M405.251 611.486L406.058 611.572C406.739 613.206 393.949 671.55 392.355 678.124C373.423 685.446 353.937 691.938 334.717 698.506C334.055 698.577 334.432 698.606 333.615 698.243C335.712 677.165 337.017 655.909 339.646 634.9C361.469 627.073 383.26 618.806 405.251 611.486Z" fill="#FEFEFE"/>
<path d="M539.345 562.532L540.122 562.679C540.363 564.77 522.389 625.524 520.26 633.737C513.528 635.542 506.916 638.556 500.335 640.91C486.999 645.655 473.636 650.321 460.245 654.908L459.779 654.845C458.874 652.538 475.518 592.495 477.523 584.941L539.345 562.532Z" fill="#FEFEFE"/>
<path d="M699.845 678.563C700.08 680.511 676.963 768.511 674.762 777.19C660.201 781.058 645.344 784.062 630.713 787.722C630.691 780.086 636.59 760.815 638.739 752.308C643.413 733.001 648.263 713.737 653.289 694.518C668.597 688.75 684.4 684.015 699.845 678.563Z" fill="#FEFEFE"/>
<path d="M436.943 766.574C437.048 770.261 432.242 786.194 431.095 790.808C427.063 807.034 423.605 823.357 419.031 839.448C397.623 844.381 376.601 850.821 355.196 855.789C355.102 851.227 357.737 843.8 358.772 839.115C362.415 822.364 366.197 805.644 370.117 788.955C392.294 781.2 414.569 773.74 436.943 766.574Z" fill="#FEFEFE"/>
<path d="M596.401 642.099L596.651 642.338C596.96 644.132 580.122 707.836 578.072 715.659C568.524 719.234 558.656 722.074 548.982 725.299C537.71 729.057 526.489 733.176 515.057 736.418L514.791 736.241C514.039 733.695 530.143 672.907 532.289 664.611C553.223 656.129 574.95 649.144 596.401 642.099Z" fill="#FEFEFE"/>
<path d="M454.527 692.024L455.223 692.141C455.389 692.542 455.503 692.724 455.486 693.212C455.384 696.201 451.02 710.786 450.049 714.58C446.017 730.333 442.529 746.26 438.199 761.928C416.205 769.42 394.381 777.145 372.217 784.163L371.776 784.225C371.662 783.942 371.486 783.676 371.435 783.375C371.272 782.41 385.201 723.388 386.804 717.107C399.249 711.459 412.212 707.268 425.068 702.687C434.911 699.179 444.595 695.29 454.527 692.024Z" fill="#FEFEFE"/>
<path d="M527.631 666.02L528.026 666.113L528.198 666.969C525.137 675.005 523.676 684.19 521.589 692.553C517.814 707.68 513.849 722.743 510.213 737.908C488.011 745.751 465.695 753.254 443.265 760.417L442.7 760.278C442.377 756.623 446.908 742.414 448.004 737.923L459.388 690.456C481.591 681.287 504.926 673.892 527.631 666.02Z" fill="#FEFEFE"/>
<path d="M668.454 616.044C668.504 616.087 668.571 616.117 668.605 616.174C668.764 616.438 668.96 616.695 669.027 616.995C669.497 619.094 651.934 684.635 650.002 691.862C639.601 695.631 629.021 698.854 618.519 702.323L582.619 714.416L582.319 714.178C581.822 712.267 598.953 647.672 600.837 640.657C623.078 631.699 646.003 624.484 668.454 616.044Z" fill="#FEFEFE"/>
<path d="M508.461 742.563C508.641 747.389 505.79 755.572 504.589 760.575C499.742 781.178 494.457 801.667 488.735 822.044C466.957 826.864 445.226 832.576 423.658 838.273C423.308 834.688 439.115 773.771 441.354 764.932L508.461 742.563Z" fill="#FEFEFE"/>
<path d="M576.369 720.07L576.542 720.191C576.665 720.458 576.847 720.705 576.911 720.992C577.109 721.876 556.89 799.286 554.954 805.67C534.638 810.546 514.277 815.117 494.117 820.618L493.569 819.946C493.633 815.321 497.9 802.501 499.187 797.328C503.819 778.703 507.945 759.929 512.866 741.38C521.846 737.848 531.243 735.158 540.409 732.14L576.369 720.07Z" fill="#FEFEFE"/>
<path d="M673.287 786.084L674.431 786.158C676.455 788.417 704.161 869.855 706.434 879.238C705.958 880.995 705.253 883.335 703.698 884.413C699.764 887.141 678.459 890.106 672.157 891.572C591.866 910.621 511.365 928.732 430.653 945.905C418.895 948.457 407.222 951.718 395.359 953.728C387.924 954.988 380.777 955.529 373.34 954.109C355.654 950.732 331.981 940.424 314.47 933.916C306.635 931.004 295.905 927.956 288.746 923.98C287.675 923.385 286.555 922.468 285.966 921.376C285.251 920.052 285.418 919.019 285.685 917.64C287.142 915.608 289.029 914.51 291.25 913.417C297.113 910.534 303.971 908.727 310.145 906.492C325.056 901.074 340.009 895.775 355.004 890.595C397.441 875.488 440.063 860.922 482.87 846.897C506.064 839.144 529.977 832.526 552.705 823.51C555.217 820.708 555.922 817.019 556.888 813.482C558.984 812.769 561.17 812.241 563.304 811.643C562.581 816.332 562.216 824.308 558.267 827.462C555.197 829.915 514.713 842.217 507.908 844.489L388.406 885.315C368.561 891.928 348.774 898.714 329.047 905.671C320.422 908.712 311.395 911.397 302.988 914.934C301.483 915.567 299.528 916.505 298.647 917.972C298.254 918.627 298.125 919.31 298.393 920.018C298.982 921.574 300.43 922.423 301.834 923.163C308.087 926.458 315.919 928.387 322.589 930.883C336.973 936.267 351.636 942.873 366.476 946.76C368.932 947.399 371.416 947.897 373.928 948.256C376.439 948.615 378.963 948.832 381.5 948.907C399.542 949.345 421.995 941.795 440.003 937.957C489.618 927.271 539.15 916.208 588.597 904.769L661.94 887.812C674.212 885.045 687.288 883.365 699.231 879.527C700.228 876.639 679.366 818.267 676.947 811.594C674.808 805.692 669.193 792.841 668.67 787.612C669.929 786.559 671.72 786.415 673.287 786.084Z" fill="#FEFEFE"/>
<path d="M573.939 553.719C584.611 555.494 595.286 559.129 605.641 562.231C618.538 566.094 631.509 569.829 644.274 574.107C642.593 581.865 640.513 589.527 638.804 597.278C637.072 605.135 635.73 613.174 633.472 620.896C625.397 623.555 617.366 626.338 609.378 629.245C591.755 635.871 573.783 641.673 556.082 648.125C559.223 636.462 561.157 624.574 563.465 612.734C567.476 593.155 570.968 573.483 573.939 553.719Z" fill="#FEFEFE"/>
<path d="M647.383 696.563L648.188 696.449L648.668 696.943C647.697 704.573 645.017 712.476 643.171 719.971C637.565 742.729 630.702 765.56 626.533 788.613C604.469 792.98 582.754 799.231 560.756 803.887C559.957 803.97 560.354 804.053 559.603 803.498C559.761 797.721 564.099 785.459 565.713 779.155C570.853 759.089 575.864 738.991 580.747 718.86C602.846 711.089 625.058 703.657 647.383 696.563Z" fill="#FEFEFE"/>
<path d="M633.552 512.134C646.354 515.226 658.962 519.751 671.505 523.748L748.304 548.953C744.409 550.579 740.402 552.141 736.675 554.131C723.268 561.291 716.758 572.985 712.389 587.018L703.833 584.203L635.628 562.952C619.32 558.008 602.818 553.727 586.679 548.245C587.681 541.968 588.589 535.494 590.449 529.407C605.061 524.726 619.387 518.049 633.552 512.134Z" fill="#FEFEFE"/>
<path d="M660.387 789.146L661.656 789.181C664.745 792.69 688.47 865.005 691.523 874.309C685.32 875.599 679.158 877.492 672.972 878.934L616.552 892.094C568.565 903.332 520.488 914.17 472.321 924.609C455.476 928.494 438.609 932.279 421.718 935.962C408.044 938.952 393.936 943.583 379.817 942.868C365.784 942.157 341.347 931.241 327.478 926.056C321.692 923.893 315.677 922.371 309.897 920.184L310.164 919.56C336.52 908.961 363.628 900.512 390.479 891.309C422.987 880.167 455.298 868.506 487.994 857.913C486.705 860.217 485.114 862.964 484.582 865.569C483.657 870.102 484.611 874.972 487.385 878.688C492.016 884.892 503.2 890.056 510.796 890.972C517.153 891.738 523.471 889.463 528.369 885.428C532.512 882.015 535.068 877.375 535.518 872.006C535.949 866.867 534.692 860.393 531.267 856.407C526.809 851.218 520.216 849.798 513.723 849.309C525.206 844.422 554.936 837.928 562.751 832.007C568.408 827.722 568.671 817.009 569.736 810.39C587.238 805.814 604.89 802.16 622.5 798.077C635.139 795.147 647.683 791.789 660.387 789.146Z" fill="#FEFEFE"/>
<path d="M42.194 69.5144L322.224 70.0153L411.778 70.0372C425.038 70.0931 441.482 69.0782 454.402 70.7371C454.853 87.1674 454.502 103.668 454.53 120.107L454.647 205.536L454.506 393.608L454.482 461.063C454.506 466.864 455.54 487.829 454.264 492.159C453.405 492.515 452.563 492.843 451.674 493.117L451.491 493.61C445.271 493.55 439.076 494.191 432.865 494.245C427.633 494.29 422.189 493.572 416.999 494.225C426.303 495.849 436.438 493.367 445.731 494.333C448.238 494.593 450.824 494.535 453.345 494.584C449.826 494.761 446.261 494.764 442.755 495.056C349.312 494.499 255.869 494.469 162.425 494.967L88.263 494.852C77.4091 494.863 66.3092 495.499 55.4867 495.108C53.122 495.022 50.7411 494.709 48.5382 493.805C45.3896 492.511 43.4552 490.196 42.1184 487.139C40.731 485.391 40.83 482.819 40.7814 480.669C40.3379 461.061 40.749 441.364 40.7529 421.746L40.7611 308.309L40.745 234.784C40.729 221.529 40.0963 207.96 40.8941 194.742L42.0296 194.118C42.631 190.154 42.2048 185.902 42.1934 181.888L42.2033 157.714L42.194 69.5144Z" fill="#EDEDED"/>
<path d="M42.1184 487.139C44.8018 489.143 46.588 491.572 49.5923 493.275C79.0593 494.014 108.664 493.295 138.15 493.365L333.178 493.176L412.167 493.075L437.252 493.242C442.038 493.24 446.898 492.917 451.674 493.117L451.491 493.61C445.271 493.55 439.076 494.191 432.865 494.245C427.633 494.29 422.189 493.572 416.999 494.225C426.303 495.849 436.438 493.367 445.731 494.333C448.238 494.593 450.824 494.535 453.345 494.584C449.826 494.761 446.261 494.764 442.755 495.056C349.312 494.499 255.869 494.469 162.425 494.967L88.263 494.852C77.4091 494.863 66.3092 495.499 55.4867 495.108C53.122 495.022 50.7411 494.709 48.5382 493.805C45.3896 492.511 43.4552 490.196 42.1184 487.139Z" fill="#B9BBD0"/>
<path d="M70.5709 103.701C94.8985 102.671 119.613 103.351 143.972 103.384C175.179 103.426 206.569 103.062 237.757 104.289C238.044 134.619 237.617 164.993 237.543 195.327L237.517 337.914C237.665 361.07 237.668 384.226 237.527 407.383C237.535 414.607 238.671 440.276 237.012 444.795L235.625 445.057C202.137 445.67 168.506 445.017 135.003 445.033C113.429 445.043 89.9103 446.16 68.5469 445.035L67.8333 111.385C67.8432 109.237 67.4951 106.026 68.4953 104.15L70.5709 103.701Z" fill="#FEFEFE"/>
<path d="M96.2065 209.093C103.262 209.027 110.317 209.055 117.372 209.178C116.747 209.67 115.57 209.701 114.804 209.795L114.031 209.883C113.035 211.776 113.674 213.841 113.344 215.866C113.118 217.248 112.536 217.731 111.509 218.6C108.546 219.313 105.625 217.146 103.109 215.789L103.468 209.655C100.962 209.662 98.6614 209.702 96.2065 209.093Z" fill="#EDEDED"/>
<path d="M152.216 209.147L184.079 209.139C189.176 209.152 194.955 208.678 199.971 209.459C196.107 210.105 191.717 209.693 187.787 209.682C187.736 212.008 187.998 214.785 186.785 216.843C185.753 218.595 184.553 219.539 182.588 219.984C181.284 219.824 180.376 219.428 179.482 218.451C177.078 215.824 177.434 212.932 177.515 209.653C169.976 209.701 159.503 210.771 152.216 209.147Z" fill="#EDEDED"/>
<path d="M161.571 274.007L210.417 273.998C210.344 276.667 210.081 279.344 209.887 282.007C204.301 282.441 198.474 282.144 192.857 282.127L161.182 281.981L161.571 274.007Z" fill="#DBDCE2"/>
<path d="M141.186 274.267L151.702 274.041L151.582 281.986L97.375 281.984L88.6367 282.001C88.5361 279.474 88.563 276.922 88.5303 274.392C106.083 274.504 123.635 274.462 141.186 274.267Z" fill="#DBDCE2"/>
<path d="M75.2832 253.294L229.735 253.518C229.772 256.087 230.361 260.836 229.171 262.995L228.125 263.207C177.125 263.177 126.084 262.698 75.0913 263.282L75.2832 253.294Z" fill="#DBDCE2"/>
<path d="M91.2879 143.908L165.601 143.781C180.77 143.656 196.03 144.248 211.056 141.953C211.775 150.567 211.559 159.286 211.565 167.926L211.56 205.186C207.53 206.339 203.675 207.451 199.971 209.459C194.955 208.678 189.176 209.152 184.079 209.139L152.216 209.147C140.601 209.027 128.987 209.037 117.372 209.178C110.317 209.055 103.262 209.027 96.2065 209.093C94.6236 209.09 92.9057 209.349 91.5706 208.373C89.9615 202.829 91.2394 182.68 91.3029 175.966L91.2879 143.908Z" fill="#77809C"/>
<path d="M208.792 143.756C209.269 143.703 208.913 143.715 209.813 144.069C210.5 150.464 209.911 157.531 209.914 163.99L210.019 204.052C207.532 204.74 205.059 205.675 202.609 206.495L201.861 206.656C200.685 203.3 201.547 152.468 201.55 144.731C203.969 144.505 206.385 144.095 208.792 143.756Z" fill="#DBDCE2"/>
<path d="M194.618 144.761L200.155 144.713C199.928 165.801 200.643 186.909 200.23 207.991C182.491 208.56 164.621 208.086 146.866 208.06C130.374 208.036 113.86 208.468 97.375 208.261L92.5257 208.028L92.4895 145.071L159.968 145.02C171.49 145.017 183.108 145.287 194.618 144.761Z" fill="#EDEDED"/>
<path d="M185.433 156.743C186.4 156.721 186.561 156.792 187.39 157.2L187.167 157.825C185.139 158.84 183.568 158.644 181.375 158.487C180.866 158.46 180.187 158.246 179.684 158.134L179.728 157.626C181.651 156.813 183.365 156.804 185.433 156.743Z" fill="#FEFEFE"/>
<path d="M180.729 192.186C182.97 192.059 186.736 191.435 188.633 192.652L188.81 193.714C187.031 193.867 184.454 194.354 182.708 193.928C181.358 193.599 181.32 193.334 180.729 192.186Z" fill="#FEFEFE"/>
<path d="M178.356 180.695C180.721 180.517 183.335 180.269 185.691 180.519C187.233 180.682 187.301 180.826 188.231 181.97C186.345 182.647 183.437 182.784 181.45 182.53C179.787 182.317 179.407 181.968 178.356 180.695Z" fill="#FEFEFE"/>
<path d="M179.56 174.228C181.612 174.093 185.68 173.395 187.425 174.53C188.012 174.912 187.83 175.674 187.88 176.307C185.497 176.329 181.976 176.771 179.869 175.635L179.56 174.228Z" fill="#FEFEFE"/>
<path d="M180.699 167.677C182.271 167.574 184.113 167.296 185.668 167.548C186.765 167.727 186.808 167.899 187.356 168.774L186.864 170.017C184.619 170.05 182.323 170.258 180.145 169.636L179.806 168.801L180.699 167.677Z" fill="#FEFEFE"/>
<path d="M177.974 186.195C180.576 186.067 184.917 185.422 187.3 186.393C188.157 186.743 188.017 186.982 188.328 187.788C185.609 187.989 180.573 188.899 178.195 187.481L177.974 186.195Z" fill="#FEFEFE"/>
<path d="M140.861 157.115C141.797 156.982 142.8 156.819 143.745 156.88C145.177 156.973 146.548 157.487 147.538 158.526L147.501 159.474L146.255 160.544L143.598 161.686C142.154 161.459 141.986 161.495 140.953 160.489C140.672 159.176 140.488 158.444 140.861 157.115Z" fill="#FEFEFE"/>
<path d="M160.421 176.391C161.992 176.48 163.66 177.33 164.522 178.736C165.19 179.827 165.079 180.242 164.748 181.35L162.686 182.084C161.274 182.132 160.181 182.115 158.935 181.281C157.738 180.481 157.641 180.125 157.426 178.816C158.192 177.332 158.976 177.171 160.421 176.391Z" fill="#FEFEFE"/>
<path d="M167.552 183.237C169.446 184.232 170.863 186.142 172.287 187.711C170.908 188.788 169.414 189.659 167.918 190.564C166.479 189.32 164.87 188.085 163.62 186.653C162.814 185.728 162.786 185.627 162.884 184.471C164.223 183.359 165.889 183.41 167.552 183.237Z" fill="#FEFEFE"/>
<path d="M148.398 161.934L149.959 162.067C151.276 162.958 152.312 163.74 153.334 164.965C153.624 166.248 153.782 166.363 153.203 167.518L150.188 168.435L148.511 168.563C146.524 167.625 145.192 165.883 143.726 164.291C145.248 163.444 146.835 162.703 148.398 161.934Z" fill="#FEFEFE"/>
<path d="M154.398 168.78C155.828 168.939 157.446 170.307 158.43 171.316C159.347 172.257 159.383 173.012 159.398 174.268C158.52 175.734 157.452 175.913 155.922 176.616C154.842 176.284 154.104 175.741 153.198 175.075C151.723 173.991 151.418 173.388 151.114 171.59C151.905 169.947 152.851 169.693 154.398 168.78Z" fill="#FEFEFE"/>
<path d="M173.517 189.505C173.649 189.593 173.784 189.677 173.913 189.771C176.248 191.467 179.179 193.835 179.744 196.741C178.847 198.137 177.733 198.244 176.213 198.836C175.551 198.486 175.745 198.626 175.2 198.209C172.917 196.467 170.262 194.974 169.851 191.931C170.804 190.405 171.899 190.229 173.517 189.505Z" fill="#FEFEFE"/>
<path d="M148.876 313.003C157.919 316.013 167.009 318.875 176.146 321.588C180.733 322.948 185.605 323.977 190.093 325.598C189.382 347.11 189.683 368.692 189.707 390.216C189.718 399.833 190.143 409.697 189.564 419.287C178.712 421.856 165.585 427.205 154.725 430.811C145.687 428.304 119.731 420.608 112.59 416.306C111.983 385.728 112.324 354.997 112.54 324.411C124.84 321.275 136.563 316.024 148.876 313.003Z" fill="#77809C"/>
<path d="M148.217 314.584C152.564 314.823 179.942 323.915 185.654 326.098C175.959 330.067 165.79 332.633 156.115 336.637C155.948 336.703 155.789 336.796 155.614 336.836C153.226 337.391 122.157 326.324 118.178 324.36C127.982 320.664 138.168 317.551 148.217 314.584Z" fill="#FEFEFE"/>
<path d="M155.16 338.662C160.661 335.779 182.281 328.16 188.384 326.836L188.127 386.883C188.125 397.165 187.628 407.763 188.453 417.998C177.455 422.183 166.083 425.576 154.954 429.429C155.017 422.875 155.003 416.321 154.91 409.768C155.029 393.981 155.056 378.194 154.989 362.407C154.987 354.557 154.625 346.487 155.16 338.662Z" fill="#DBDCE2"/>
<path d="M113.885 325.267C122.841 326.754 144.503 334.636 153.455 338.483C153.753 356.078 153.456 373.703 153.598 391.303C153.365 403.987 153.633 416.674 153.453 429.357C145.345 426.899 119.275 418.994 113.544 415.195C114.628 411.229 113.689 396.441 113.691 391.504L113.885 325.267Z" fill="#FEFEFE"/>
<path d="M260.503 103.738C317.175 102.429 374.054 103.453 430.745 103.504C431.364 118.799 430.973 134.23 430.973 149.54L430.661 242.73C430.465 308.828 431.282 374.98 430.55 441.07C430.535 442.423 430.801 444.095 429.956 445.209C373.273 444.851 316.589 444.868 259.906 445.261C259.629 431.434 259.979 417.598 259.991 403.769L260.001 319.258L259.829 142.898C259.862 136.928 258.813 107.031 260.503 103.738Z" fill="#FEFEFE"/>
<path d="M291.24 273.74C326.559 272.65 362.097 274.063 397.447 274.093C397.494 276.306 397.991 280.149 396.875 281.991L290.597 281.986C290.484 279.723 289.828 275.417 291.24 273.74Z" fill="#DBDCE2"/>
<path d="M267.565 253.134L421.501 253.193L421.547 262.544L267.505 262.641L267.565 253.134Z" fill="#DBDCE2"/>
<path d="M344.446 319.341C346.157 319.658 345.773 323.714 346.898 325.067C350.212 325.822 354.173 325.502 357.529 325.134C357.939 324.159 358.021 323.793 358.882 323.132C360.317 324.141 359.07 325.056 360.28 326.058C361.125 326.757 364.051 327.476 365.225 327.927C372.142 330.588 377.468 333.825 382.652 339.206C392.503 349.432 397.546 362.792 397.24 376.944C396.972 389.402 392.562 402.56 383.349 411.25C376.505 417.705 356.393 428.379 346.909 428.166C339.241 430.514 328.219 427.176 321.27 423.862C320.534 423.505 319.807 423.129 319.09 422.736C318.373 422.343 317.665 421.932 316.968 421.505C316.271 421.078 315.584 420.633 314.908 420.172C314.232 419.711 313.568 419.233 312.916 418.74C312.263 418.247 311.623 417.737 310.995 417.212C310.368 416.687 309.753 416.148 309.152 415.593C308.551 415.038 307.963 414.469 307.39 413.886C306.817 413.303 306.258 412.706 305.713 412.095C305.169 411.484 304.64 410.861 304.126 410.224C303.612 409.587 303.114 408.939 302.631 408.278C302.149 407.617 301.683 406.945 301.234 406.261C300.785 405.578 300.352 404.884 299.936 404.179C299.521 403.474 299.123 402.76 298.742 402.036C298.361 401.312 297.998 400.579 297.653 399.837C297.308 399.095 296.982 398.345 296.673 397.588C296.365 396.83 296.075 396.065 295.804 395.293C295.526 394.511 295.268 393.722 295.029 392.927C294.79 392.132 294.572 391.332 294.373 390.526C294.175 389.72 293.997 388.91 293.839 388.095C293.681 387.28 293.544 386.461 293.427 385.64C293.31 384.818 293.214 383.994 293.139 383.167C293.064 382.34 293.009 381.512 292.975 380.683C292.941 379.854 292.928 379.024 292.936 378.194C292.943 377.364 292.972 376.535 293.021 375.706C293.07 374.877 293.141 374.051 293.232 373.226C293.323 372.401 293.434 371.578 293.566 370.759C293.698 369.94 293.851 369.124 294.024 368.312C294.197 367.5 294.39 366.693 294.603 365.891C294.816 365.089 295.05 364.293 295.303 363.502C295.557 362.712 295.83 361.929 296.123 361.152C296.416 360.375 296.728 359.606 297.059 358.845C297.39 358.084 297.74 357.331 298.109 356.588C303.189 346.169 313.746 336.725 324.844 333.144C328.377 332.005 332.424 332.117 335.848 330.808C337.929 330.013 338.585 327.624 340.423 326.376C341.54 325.617 343.833 325.207 345.151 324.754C344.786 322.966 344.31 321.177 344.446 319.341Z" fill="#DBDCE2"/>
<path d="M334.873 332.749C344.192 332.67 352.075 333.107 360.483 337.597C371.709 343.591 381.446 355.159 385.069 367.398C388.477 378.91 387.322 392.907 381.452 403.428C376.572 412.173 368.785 419.936 359.25 423.421C355.315 424.859 351.375 425.599 347.387 426.738C342.906 426.669 338.642 427.183 334.103 426.747C327.234 426.088 318.516 421.176 312.867 417.276C303.493 410.806 296.977 397.295 295.007 386.35C292.877 374.512 295.754 361.411 302.654 351.542C310.268 340.652 322.082 334.974 334.873 332.749Z" fill="#FEFEFE"/>
<path d="M327.589 128.117C346.53 127.552 365.508 128.36 384.455 127.847L384.226 221.178C377.639 227.699 367.076 233.762 359.319 239.117C357.902 239.881 356.567 240.313 354.961 240.518C348.343 241.36 310.194 241.561 304.787 240.066C304.178 235.58 304.497 230.594 304.498 226.062L304.527 201.669C304.543 187.608 303.525 169.998 304.734 156.394C304.882 154.736 305.045 153.419 305.898 151.952C308.921 146.753 322.781 132.133 327.589 128.117Z" fill="#535F80"/>
<path d="M382.421 129.989C383.237 130.86 382.935 211.867 382.936 220.795C376.477 226.808 365.558 234 357.69 238.174L357.304 237.787C356.002 233.069 356.805 217.897 356.808 212.282C356.771 191.679 356.865 171.078 357.09 150.478C361.735 144.137 375.615 134.664 382.421 129.989Z" fill="#DBDCE2"/>
<path d="M330 129.25C346.825 128.912 363.648 128.971 380.469 129.427C372.507 136.21 361.581 142.064 355.447 150.601L355.428 239.071C339.132 240.019 322.386 239.448 306.051 239.379L305.878 182.608C305.857 174.581 304.896 162.892 306.413 155.221C306.857 152.974 308.213 151.049 309.624 149.297C312.677 145.506 316.328 142.118 319.615 138.524C322.043 135.869 324.219 132.55 327.026 130.308C328 129.53 328.786 129.385 330 129.25Z" fill="#FEFEFE"/>
<path d="M338.258 216.638C341.095 216.235 345.42 215.645 348.116 216.635C349.073 216.986 349.007 217.429 349.423 218.301C346.692 218.588 343.053 219.343 340.393 218.659C339.007 218.303 338.971 217.812 338.258 216.638Z" fill="#77809C"/>
<path d="M318.543 226.774C319.146 226.885 319.475 227.077 320.004 227.372C319.863 228.577 319.65 229.616 320.111 230.781C324.099 233.131 324.779 227.659 327.608 227.027C327.301 229.007 326.529 229.907 325.247 231.409C324.215 232.075 323.407 232.311 322.211 232.565C320.369 232.242 319.396 231.219 318.027 230.009C315.799 230.125 312.945 230.648 311.125 229.123L311.456 228.34C313.61 227.001 316.073 227.008 318.543 226.774Z" fill="#77809C"/>
<path d="M333.838 222.93C336.514 223.692 337.743 226.365 339.838 226.952C343.036 227.849 346.899 226.133 350.113 227.484L350.43 228.295L349.739 229.067C347.041 229.835 344.16 229.604 341.375 229.588L339.873 229.647C337.888 231.087 336.339 231.915 333.89 232.356C332.355 232.632 331.426 232.619 330.13 231.744C329.537 230.358 330.191 228.459 330.655 227.086C330.747 226.815 330.844 226.546 330.938 226.276L329.286 225.852C330.106 224.56 332.446 223.68 333.838 222.93Z" fill="#77809C"/>
<path d="M311.246 205.665C316.368 205.176 346.405 204.833 350.653 205.836L351.036 206.885L350.383 207.681C346.539 208.503 342.448 207.105 338.513 207.652C337.339 207.815 336.816 208.014 336.052 208.949L337.029 211.041C337.107 212.443 337.158 213.839 336.962 215.236C336.747 216.758 336.267 217.652 335.043 218.551C332.261 218.79 329.579 216.88 326.81 216.428C325.825 216.267 325.817 216.34 324.98 215.685C325.43 214.566 325.405 214.65 326.514 214.154C327.404 214.808 328.308 215.39 329.246 215.971L329.905 215.522C330.067 213.332 331.545 210.384 331.313 208.491C331.221 207.738 331.111 208.016 330.197 207.881C324.359 207.017 316.102 209.686 311.246 205.665Z" fill="#77809C"/>
<path d="M312.2 189.255C320.231 189.286 328.262 189.273 336.293 189.215C340.05 189.197 344.378 188.75 348.064 189.328C348.859 189.453 349.475 189.53 349.871 190.255C350.693 191.76 350.192 193.679 349.88 195.268C346.093 196.218 316.132 196.299 312.603 195.448C311.334 193.381 311.777 191.543 312.2 189.255Z" fill="#DBDCE2"/>
<path d="M341.627 156.25C344.866 155.628 348.373 155.849 351.669 155.85C351.616 160.395 353.081 171.624 350.366 174.962C343.31 178.184 328.876 176.762 320.75 176.745C317.978 176.808 315.208 176.905 312.436 176.803C310.448 174.137 311.285 160.791 311.337 156.827C321.436 156.839 331.524 156.296 341.627 156.25Z" fill="#DBDCE2"/>
<path d="M312.745 160.044C313.336 160.134 313.931 160.211 314.521 160.303C320.513 161.238 334.054 159.141 338.615 162.208C339.525 166.042 338.85 170.882 338.743 174.838C330.272 174.722 321.738 175.266 313.245 175.255C313.363 170.176 312.786 165.127 312.745 160.044Z" fill="#FEFEFE"/>
</g>
<defs>
<clipPath id="clip0_19_122">
<rect width="1024" height="1024" fill="white"/>
</clipPath>
</defs>
</svg>
