<svg width="31" height="33" viewBox="0 0 31 33" fill="none" xmlns="http://www.w3.org/2000/svg">
<path d="M8.13281 30.8203C6.14062 30.8203 4.53516 29.7891 4.51172 28.2773H11.7656C11.7305 29.7891 10.1016 30.8203 8.13281 30.8203ZM12.7031 26.3789C12.7031 26.8242 12.3281 27.1641 11.8945 27.1641H4.34766C3.92578 27.1641 3.57422 26.8125 3.57422 26.3789C3.57422 25.9336 3.92578 25.582 4.34766 25.582H11.8945C12.3281 25.582 12.7031 25.9219 12.7031 26.3789ZM13.062 3.68356C12.6878 4.16881 12.3724 4.69516 12.1194 5.2523C11.039 4.49501 9.67211 4.05469 8.19141 4.05469C4.6875 4.05469 1.83984 6.50391 1.83984 9.73828C1.83984 13.2422 4.13672 14.0273 5.20312 22.6406H11.1797C11.643 18.8567 12.3483 16.5836 12.9935 14.928C13.3346 15.7435 13.6968 16.6307 14.0399 17.6758C13.5427 19.1944 13.0957 21.0861 12.8555 23.6836C12.8203 24.1406 12.5625 24.457 12.0117 24.457H4.35938C3.82031 24.457 3.5625 24.1406 3.52734 23.6836C2.77734 15.5742 0 14.3438 0 9.73828C0 5.58984 3.59766 2.21484 8.19141 2.21484C10.0347 2.21484 11.7156 2.75823 13.062 3.68356Z" fill="#FC8B04"/>
<path d="M20.7305 0C15.5039 0 11.3789 3.86719 11.3789 8.64844C11.3789 13.9453 14.6016 15.3633 15.4805 24.8906C15.5273 25.4062 15.7969 25.6992 16.3477 25.6992H25.125C25.6758 25.6992 25.9336 25.4062 25.9922 24.8906C26.8711 15.3633 30.1055 13.9453 30.1055 8.64844C30.1055 3.86719 25.9688 0 20.7305 0ZM20.7305 1.91016C24.7734 1.91016 28.207 4.80469 28.207 8.64844C28.207 12.7266 25.4531 13.8047 24.2461 23.7891H17.2266C16.0195 13.8047 13.2891 12.7266 13.2891 8.64844C13.2891 4.80469 16.6875 1.91016 20.7305 1.91016ZM16.3477 28.6172H25.1367C25.5938 28.6172 25.9453 28.2773 25.9453 27.8203C25.9453 27.3633 25.5938 27.0117 25.1367 27.0117H16.3477C15.8906 27.0117 15.5508 27.3633 15.5508 27.8203C15.5508 28.2773 15.8906 28.6172 16.3477 28.6172ZM20.7422 32.6484C22.9453 32.6484 24.7383 31.5586 24.8438 29.9297H16.6406C16.7344 31.5586 18.5273 32.6484 20.7422 32.6484Z" fill="black" fill-opacity="0.85"/>
</svg>
