<?xml version="1.0" encoding="utf-8" ?>
<svg xmlns="http://www.w3.org/2000/svg" xmlns:xlink="http://www.w3.org/1999/xlink" width="1024" height="1024">
	<path fill="#FEFEFE" d="M0 0L1024 0L1024 1024L0 1024L0 0Z"/>
	<path fill="#5BC1E7" d="M506.267 181.083C508.391 180.949 510.538 181.06 512.558 181.773C516.125 183.031 519.07 185.636 520.548 189.143Q520.799 189.74 520.99 190.358Q521.18 190.977 521.307 191.612Q521.434 192.247 521.497 192.891Q521.56 193.535 521.557 194.183Q521.555 194.83 521.488 195.474Q521.421 196.118 521.289 196.751Q521.158 197.385 520.963 198.003Q520.769 198.62 520.513 199.215C518.77 203.244 515.554 205.579 511.576 207.13C508.517 207.151 505.797 206.889 503.062 205.385C499.622 203.495 496.819 200.346 495.821 196.497Q495.672 195.927 495.58 195.345Q495.488 194.763 495.454 194.174Q495.421 193.586 495.446 192.997Q495.471 192.408 495.554 191.825Q495.638 191.242 495.779 190.669Q495.921 190.097 496.118 189.542Q496.316 188.987 496.568 188.454Q496.819 187.921 497.123 187.416C499.136 184.084 502.586 182.046 506.267 181.083Z"/>
	<path fill="#D45655" d="M735.323 535.104C737.959 534.912 740.559 535.009 742.983 536.179C746.09 537.678 748.298 540.427 749.357 543.681C750.522 547.26 750.342 551.243 748.463 554.549C746.378 558.218 743.093 559.848 739.187 560.991C736.43 561.245 733.814 561.075 731.291 559.826Q730.716 559.542 730.173 559.198Q729.631 558.855 729.128 558.458Q728.624 558.06 728.165 557.611Q727.706 557.163 727.297 556.669Q726.887 556.175 726.531 555.641Q726.175 555.107 725.878 554.538Q725.58 553.97 725.343 553.373Q725.106 552.777 724.933 552.159Q724.747 551.484 724.629 550.794Q724.511 550.104 724.462 549.406Q724.412 548.708 724.432 548.008Q724.451 547.309 724.54 546.614Q724.628 545.92 724.784 545.238Q724.941 544.556 725.163 543.892Q725.386 543.229 725.673 542.59Q725.96 541.952 726.309 541.345C728.432 537.709 731.365 536.132 735.323 535.104Z"/>
	<path fill="#F9D156" d="M591.178 184.532C593.558 184.377 595.619 184.373 597.872 185.277Q598.558 185.55 599.214 185.891Q599.869 186.232 600.487 186.636Q601.105 187.041 601.679 187.506Q602.253 187.97 602.778 188.49Q603.303 189.01 603.773 189.58Q604.243 190.15 604.653 190.764Q605.064 191.378 605.41 192.03Q605.757 192.682 606.037 193.366C607.364 196.613 607.4 200.248 605.898 203.443C604.122 207.219 601.061 209.213 597.236 210.521C594.746 210.81 592.13 210.894 589.738 210.047C586.336 208.842 583.61 206.467 582.109 203.169C580.673 200.016 580.464 196.307 581.724 193.061C583.481 188.532 587.003 186.45 591.178 184.532Z"/>
	<path fill="#5BC1E7" d="M504.973 153.708Q506.862 153.537 508.76 153.542Q510.657 153.548 512.545 153.73Q514.434 153.912 516.297 154.269Q518.16 154.626 519.982 155.155C530.863 158.38 541.052 166.671 546.388 176.678C544.291 178.573 542.119 180.852 539.745 182.373C538.224 183.346 536.118 184.107 534.393 183.264C532.708 182.441 531.587 180.466 530.495 179.009C525.473 172.309 519.44 169.478 511.457 167.915C496.734 167.329 493.325 172.944 483.433 181.518C481.664 183.051 479.598 184.136 477.194 183.858C473.278 183.405 470.631 180.087 468.237 177.3C469.348 175.597 470.478 173.91 471.755 172.325C480.704 161.207 490.784 155.267 504.973 153.708Z"/>
	<path fill="#A14781" d="M895.554 740.56C896.917 740.369 898.445 740.171 899.804 740.499C902.733 741.205 903.948 743.364 905.455 745.756L905.59 761.55C911.033 761.687 920.183 760.257 924.627 763.748C926.131 764.929 926.802 766.587 926.936 768.445C927.077 770.384 926.686 772.377 925.315 773.83C921.569 777.802 910.773 775.998 905.693 776.021C905.638 780.589 906.351 786.894 904.708 791.189C903.798 793.569 902.45 794.672 900.15 795.627C897.605 795.361 895.226 795.279 893.338 793.332C890.006 789.897 891.088 782.355 891.135 777.881C884.857 777.945 878.39 778.325 872.208 777.105C870.148 775.561 868.102 773.898 867.625 771.236C867.244 769.111 867.293 767.121 868.682 765.345C872.012 761.088 886.565 762.594 891.852 762.233C891.907 757.607 891.316 752.856 891.763 748.253C892.099 744.801 892.879 742.796 895.554 740.56Z"/>
	<path fill="#5BC1E7" d="M389.439 87.6187C392.564 87.3434 396.147 86.7224 398.705 89.0055C402.702 92.573 401.325 102.5 401.519 107.499C405.267 107.533 409.09 107.096 412.825 107.383C415.438 107.584 417.955 108.393 419.662 110.488C420.909 112.02 421.73 114.008 421.435 115.992C421.026 118.744 418.119 120.892 416.097 122.448C411.124 122.874 406.018 122.614 401.028 122.582C401.084 126.498 401.395 130.679 400.913 134.562C400.49 137.978 399.731 140.015 397.005 142.12C395.54 142.348 393.987 142.642 392.501 142.626C390.584 142.604 388.764 142.029 387.46 140.569C384.123 136.837 385.482 127.403 385.549 122.488C380.56 122.495 375.534 122.636 370.564 122.153C369.719 121.439 368.848 120.716 368.095 119.905C366.693 118.396 364.514 115.16 364.8 113.019C364.967 111.778 365.627 110.856 366.554 110.07C371.417 105.948 379.613 107.146 385.539 107.467C385.617 102.75 384.837 97.7778 385.652 93.1247C386.145 90.3099 387.156 89.205 389.439 87.6187Z"/>
	<path fill="#F9D156" d="M139.144 766.453Q139.842 766.444 140.535 766.517Q141.229 766.591 141.909 766.746Q142.589 766.901 143.246 767.136Q143.903 767.37 144.528 767.681C151.497 771.077 146.579 780.148 148.916 785.501C149.274 786.32 149.895 787.558 150.902 787.756C155.716 788.707 160.228 787.684 165.042 789.586C166.911 790.324 169.237 791.659 169.88 793.701C170.556 795.845 169.556 798.254 168.378 800.031C164.593 805.739 157.291 802.993 151.763 804.174C146.141 805.375 150.527 816.68 147.129 821.289C145.668 823.27 143.553 823.957 141.229 824.345C139.112 823.779 137.099 823.182 135.446 821.667C131.184 817.759 132.084 809.356 131.96 804.069C125.941 803.603 118.077 804.739 112.858 801.234C111.587 800.38 110.559 799.166 110.411 797.585C110.175 795.055 112.004 792.328 113.596 790.535C117.592 786.034 126.46 788.062 131.958 787.671C132.009 783.082 131.665 777.807 133.041 773.401C134.169 769.792 135.902 768.229 139.144 766.453Z"/>
	<path fill="#FBA646" d="M144.53 689.404C156.206 699.311 171.413 705.542 186.45 707.932L186.54 736.889C181.919 736.334 177.516 735.664 172.975 734.599C154.012 729.102 143.185 723 127.969 710.918C133.6 703.827 139.843 697.19 144.53 689.404Z"/>
	<path fill="#FBA646" d="M271.458 551.91C287.186 565.467 296.268 585.937 302.563 605.298C295.55 607.096 288.635 609.342 281.647 611.257L274.396 613.335C268.62 595.027 263.865 586.338 251.408 571.814Q261.319 561.748 271.458 551.91Z"/>
	<path fill="#FBA646" d="M183.293 518.69C184.685 518.543 185.291 518.363 186.603 518.911C188.128 526.269 187.415 538.967 187.533 546.852C172.396 548.499 158.824 554.795 146.31 563.196C143.768 561.04 141.491 558.536 139.17 556.144C134.849 551.562 130.592 546.905 125.965 542.627C141.773 528.953 162.763 521.112 183.293 518.69Z"/>
	<path fill="#FBA646" d="M199.242 518.391C204.266 519.253 209.353 519.646 214.373 520.591C232.938 524.084 247.388 531.895 262.396 542.967C258.935 546.33 255.768 550.054 252.523 553.627Q247.522 558.597 242.811 563.843C228.487 554.823 216.07 548.815 198.886 547.299C199.191 537.676 199.085 528.02 199.242 518.391Z"/>
	<path fill="#FBA646" d="M117.444 550.753C121.477 552.625 133.104 567.101 136.812 571.292C134.473 574.842 131.471 578.063 129.007 581.564C120.512 593.632 117.396 604.893 115.583 619.367L106.096 619.266C99.7483 619.266 93.394 619.404 87.0463 619.478C89.3243 593.955 98.9092 569.037 117.444 550.753Z"/>
	<path fill="#5BC1E7" d="M501.323 125.7C508.234 124.778 516.433 125.284 523.214 126.796C541.609 130.9 559.549 143.529 569.677 159.373C567.876 161.528 565.895 163.874 563.613 165.541C562.26 166.529 560.163 167.604 558.482 166.836C556.181 165.783 553.348 161.822 551.576 159.918C541.909 149.529 530.097 142.513 515.986 140.133C511.501 139.693 507.239 139.413 502.735 139.888C485.82 141.672 472.824 150.054 462.244 162.932C460.716 164.792 458.932 167.078 456.283 167.086C452.254 167.098 448.593 162.305 446.116 159.569C447.206 157.589 448.552 155.763 449.982 154.015C463.198 137.865 480.534 127.733 501.323 125.7Z"/>
	<path fill="#FBA646" d="M87.1314 630.58C96.6132 630.715 106.105 630.592 115.583 630.873C118.343 650.855 123.974 664.792 136.931 680.484L126.881 693.515C124.512 696.678 122.145 699.815 119.582 702.825Q118.296 701.847 117.092 700.768C113.39 697.418 110.157 693.071 107.229 689.049C94.5678 671.658 88.2778 651.959 87.1314 630.58Z"/>
	<path fill="#F9D156" d="M184.09 564.118C185.351 564.003 184.764 563.874 185.852 564.491C186.546 570.02 186.034 576.213 186.039 581.813Q185.973 600.153 186.2 618.492Q159.537 618.407 132.875 618.709C132.374 618.698 131.882 618.517 131.398 618.391C131.181 617.931 131.128 617.888 131.046 617.304C130.257 611.698 137.091 597.789 140.22 592.956C150.464 577.135 165.951 567.926 184.09 564.118Z"/>
	<path fill="#F9D156" d="M131.437 633.482C149.788 633.488 168.098 633.943 186.465 633.765Q185.958 662.312 186.192 690.863C178.718 690.56 169.545 685.833 163.351 681.911C145.432 670.565 135.924 653.748 131.437 633.482Z"/>
	<path fill="#F9D156" d="M199.577 563.322C212.429 565.322 224.236 569.31 234.584 577.414C246.824 587 255.845 602.075 257.751 617.539C248.926 616.759 239.521 617.329 230.64 617.461Q215.1 617.643 199.561 617.448L199.577 563.322Z"/>
	<path fill="#7FBE71" d="M921.736 478.102Q922.88 477.967 924.03 477.92Q925.181 477.873 926.331 477.915Q927.482 477.957 928.626 478.087Q929.77 478.218 930.901 478.436Q932.031 478.653 933.142 478.958Q934.252 479.262 935.336 479.651Q936.42 480.04 937.471 480.511Q938.522 480.982 939.533 481.532Q940.144 481.864 940.738 482.226Q941.332 482.589 941.907 482.981Q942.482 483.372 943.037 483.792Q943.592 484.213 944.124 484.66Q944.657 485.108 945.167 485.581Q945.676 486.055 946.161 486.554Q946.646 487.053 947.106 487.575Q947.565 488.098 947.998 488.643Q948.43 489.188 948.835 489.754Q949.239 490.32 949.615 490.906Q949.991 491.491 950.336 492.095Q950.682 492.699 950.997 493.319Q951.312 493.94 951.595 494.575Q951.878 495.211 952.13 495.86Q952.38 496.509 952.598 497.169Q952.816 497.83 953.001 498.501C954.971 505.686 954.151 513.371 950.31 519.798C945.788 527.363 938.512 531.917 930.064 533.902C923.655 534.709 917.56 534.193 911.896 530.768C905.204 526.722 900.016 519.373 898.39 511.729C896.798 504.241 898.677 496.107 902.965 489.814C907.616 482.987 913.762 479.591 921.736 478.102Z"/>
	<path fill="#FEFEFE" d="M924.692 494.191C927.434 494.267 929.777 494.467 932.187 495.896Q932.696 496.196 933.174 496.546Q933.651 496.895 934.092 497.289Q934.533 497.684 934.932 498.12Q935.332 498.556 935.687 499.029Q936.041 499.502 936.348 500.008Q936.654 500.514 936.909 501.048Q937.164 501.581 937.365 502.137Q937.566 502.694 937.711 503.267Q937.865 503.886 937.957 504.517Q938.049 505.149 938.078 505.786Q938.106 506.424 938.071 507.061Q938.035 507.698 937.937 508.328Q937.838 508.958 937.677 509.576Q937.516 510.193 937.294 510.791Q937.072 511.39 936.792 511.963Q936.511 512.536 936.175 513.078C934.171 516.243 931.367 517.757 927.822 518.643C924.604 518.672 922.037 518.507 919.268 516.67Q918.737 516.325 918.244 515.929Q917.75 515.532 917.298 515.089Q916.847 514.646 916.441 514.159Q916.036 513.673 915.682 513.149Q915.327 512.625 915.026 512.068Q914.725 511.511 914.482 510.926Q914.238 510.342 914.054 509.737Q913.87 509.131 913.747 508.51C913.124 505.231 913.789 501.8 915.781 499.099C918.06 496.011 921 494.728 924.692 494.191Z"/>
	<path fill="#7FBE71" d="M402.575 869.634C409.116 869.244 415.204 870.647 420.666 874.411C426.735 878.593 430.704 885.048 432.052 892.259Q432.185 892.937 432.284 893.621Q432.382 894.305 432.446 894.993Q432.51 895.682 432.54 896.372Q432.569 897.063 432.563 897.754Q432.557 898.445 432.517 899.135Q432.476 899.825 432.401 900.512Q432.325 901.199 432.215 901.881Q432.105 902.563 431.961 903.239Q431.817 903.915 431.638 904.583Q431.46 905.25 431.248 905.908Q431.037 906.566 430.792 907.213Q430.547 907.859 430.27 908.492Q429.993 909.125 429.685 909.744Q429.376 910.362 429.037 910.964Q428.697 911.566 428.328 912.15Q427.958 912.734 427.56 913.299C422.353 920.803 415.373 923.925 406.747 925.463C399.831 925.617 393.272 924.209 387.52 920.155C381.579 915.968 377.414 909.797 376.309 902.539C375.189 895.187 376.998 887.224 381.497 881.278C386.702 874.398 394.215 870.8 402.575 869.634Z"/>
	<path fill="#FEFEFE" d="M402.217 885.555C404.375 885.462 406.431 885.296 408.467 886.158C411.968 887.641 414.612 890.148 415.926 893.76C417.088 896.955 416.955 900.612 415.367 903.64C413.394 907.403 410.333 908.942 406.399 910.058C404.199 910.053 402.136 909.837 400.064 909.04C396.828 907.795 394.035 905.479 392.653 902.247Q392.433 901.726 392.266 901.184Q392.1 900.643 391.989 900.088Q391.879 899.533 391.825 898.969Q391.771 898.405 391.775 897.839Q391.778 897.273 391.839 896.71Q391.9 896.147 392.018 895.594Q392.136 895.04 392.309 894.501Q392.482 893.962 392.709 893.443C394.558 889.203 398.041 887.084 402.217 885.555Z"/>
	<path fill="#7FBE71" d="M866.845 389.138C865.353 386.637 864.316 383.504 863.499 380.709C859.773 367.976 859.592 351.579 866.126 339.696C871.379 330.143 880.302 322.514 890.841 319.528Q892.033 319.187 893.24 318.907Q894.447 318.626 895.666 318.406Q896.886 318.186 898.115 318.027Q899.344 317.868 900.579 317.771Q901.815 317.673 903.053 317.638Q904.292 317.602 905.531 317.629Q906.77 317.655 908.006 317.744Q909.242 317.832 910.472 317.982Q911.702 318.132 912.924 318.343Q914.145 318.555 915.354 318.827Q916.563 319.099 917.757 319.431Q918.951 319.763 920.126 320.154Q921.302 320.545 922.457 320.995Q923.612 321.445 924.743 321.951Q925.874 322.458 926.978 323.02Q928.082 323.583 929.157 324.2C924.551 329.297 917.884 334.791 911.12 336.572L909.249 336.083C907.537 335.98 906.06 335.683 904.575 336.718C901.612 340.357 903.584 360.441 903.508 366.191C903.23 365.203 902.998 363.234 902.186 362.667C897.252 365.604 892.441 369.159 887.784 372.493C887.608 372.619 887.481 372.801 887.33 372.955L887.522 373.55C884.822 377.52 883.69 381.029 883.509 385.88C881.113 389.428 875.647 391.933 871.501 392.788C870.711 392.951 870.123 392.905 869.352 392.693C868.54 391.644 868.194 390.71 867.74 389.481L867.087 389.031L866.845 389.138Z"/>
	<path fill="#7FBE71" d="M646.775 112.181C653.175 111.868 659.996 114.141 665.057 118.024C671.417 122.904 675.15 130.229 676.003 138.135C676.825 145.749 674.721 153.55 669.743 159.436C663.769 166.5 656.388 169.044 647.52 169.707C640.851 169.604 635.044 168.101 629.66 163.981Q629.085 163.539 628.534 163.069Q627.982 162.599 627.454 162.102Q626.926 161.605 626.423 161.083Q625.921 160.56 625.445 160.014Q624.969 159.467 624.521 158.897Q624.072 158.328 623.653 157.736Q623.233 157.145 622.844 156.534Q622.454 155.923 622.095 155.293Q621.736 154.663 621.409 154.016Q621.082 153.369 620.787 152.707Q620.493 152.044 620.231 151.368Q619.97 150.692 619.742 150.004Q619.515 149.316 619.322 148.617Q619.129 147.918 618.97 147.211Q618.812 146.503 618.689 145.789Q618.566 145.075 618.479 144.355Q618.391 143.65 618.338 142.942Q618.284 142.234 618.267 141.525Q618.249 140.815 618.267 140.105Q618.284 139.395 618.337 138.687Q618.39 137.979 618.478 137.275Q618.566 136.57 618.69 135.871Q618.813 135.172 618.971 134.479Q619.128 133.787 619.321 133.103Q619.513 132.42 619.739 131.747Q619.964 131.074 620.224 130.413Q620.483 129.752 620.775 129.104Q621.066 128.457 621.39 127.825Q621.714 127.193 622.069 126.578Q622.423 125.963 622.808 125.366Q623.193 124.77 623.607 124.193Q624.021 123.616 624.464 123.061C630.116 116.005 638.073 113.054 646.775 112.181Z"/>
	<path fill="#FEFEFE" d="M645.23 128.05C647.826 127.884 650.295 128.04 652.678 129.184Q653.278 129.466 653.848 129.807Q654.417 130.148 654.95 130.543Q655.483 130.939 655.973 131.385Q656.464 131.832 656.908 132.324Q657.353 132.817 657.746 133.352Q658.139 133.886 658.477 134.457Q658.815 135.028 659.095 135.63Q659.374 136.232 659.593 136.858Q659.812 137.471 659.967 138.103Q660.122 138.734 660.213 139.379Q660.303 140.023 660.327 140.673Q660.352 141.323 660.31 141.973Q660.268 142.622 660.16 143.263Q660.053 143.905 659.881 144.533Q659.709 145.16 659.474 145.767Q659.238 146.373 658.943 146.953C656.903 150.911 653.493 152.759 649.38 153.992C646.875 154.234 644.535 154.198 642.198 153.168C638.849 151.694 636.293 149.073 635.001 145.637C633.777 142.379 633.961 138.926 635.501 135.811C637.51 131.747 641.082 129.507 645.23 128.05Z"/>
	<path fill="#5BC1E7" d="M504.844 96.2321C510.106 96.2309 515.323 96.4333 520.537 97.1935C541.688 100.277 557.718 107.804 573.886 121.953C578.863 126.308 583.869 130.999 587.808 136.341C588.853 137.759 591.045 140.947 590.471 142.818C589.543 145.843 583.229 148.965 580.507 150.366C576.892 146.925 573.865 142.713 570.526 138.993C557.908 124.934 536.617 113.009 517.499 112.003C496.653 109.017 472.59 115.206 456.165 128.628C451.476 132.46 441.384 146.062 436.145 146.911C434.824 147.126 433.42 146.904 432.352 146.068C430.37 144.514 427.806 141.973 427.645 139.281C427.456 136.131 430.558 132.85 432.538 130.662C452.13 109.013 475.681 97.6275 504.844 96.2321Z"/>
	<defs>
		<linearGradient id="gradient_0" gradientUnits="userSpaceOnUse" x1="889.87946" y1="364.01556" x2="939.90277" y2="403.12341">
			<stop offset="0" stop-color="#5EBD87"/>
			<stop offset="1" stop-color="#188CA0"/>
		</linearGradient>
	</defs>
	<path fill="url(#gradient_0)" d="M929.157 324.2C940.463 332.599 948.266 343.189 950.314 357.411C953.946 382.629 937.102 408.23 922.514 427.409C917.448 434.069 911.625 442.02 904.951 447.054C890.852 431.868 874.122 408.7 866.845 389.138L867.087 389.031L867.74 389.481C868.194 390.71 868.54 391.644 869.352 392.693C870.123 392.905 870.711 392.951 871.501 392.788C875.647 391.933 881.113 389.428 883.509 385.88C883.69 381.029 884.822 377.52 887.522 373.55L887.33 372.955C887.481 372.801 887.608 372.619 887.784 372.493C892.441 369.159 897.252 365.604 902.186 362.667C902.998 363.234 903.23 365.203 903.508 366.191C903.584 360.441 901.612 340.357 904.575 336.718C906.06 335.683 907.537 335.98 909.249 336.083L911.12 336.572C917.884 334.791 924.551 329.297 929.157 324.2Z"/>
	<path fill="#FEFEFE" d="M904.928 379.973C905.621 379.963 906.325 379.936 907.015 380.022Q907.306 380.058 907.592 380.123Q907.878 380.188 908.156 380.281Q908.434 380.375 908.701 380.497Q908.968 380.618 909.221 380.766Q909.474 380.914 909.711 381.087Q909.948 381.26 910.167 381.456Q910.385 381.652 910.582 381.869Q910.779 382.086 910.953 382.322C911.938 383.659 912.113 385.104 911.754 386.718C911.293 388.795 909.775 389.855 908.104 390.922C907.877 390.961 907.65 391.009 907.421 391.037C905.692 391.252 904.097 391.064 902.771 389.854C901.582 388.768 901.206 387.206 901.353 385.66C901.617 382.879 902.83 381.669 904.928 379.973Z"/>
	<path fill="#FEFEFE" d="M903.508 366.191C903.584 360.441 901.612 340.357 904.575 336.718C906.06 335.683 907.537 335.98 909.249 336.083C909.786 337.093 910.23 338.111 910.38 339.257C910.995 343.963 911.243 371.898 910.05 375.677C909.718 376.726 909.284 376.961 908.453 377.623C907.226 377.85 906.315 377.783 905.253 377.023C904.205 376.272 903.583 375.105 903.432 373.847C903.143 371.434 903.503 368.629 903.508 366.191Z"/>
	<path fill="#FEFEFE" d="M887.522 373.55C889.167 373.137 889.549 372.877 891.181 373.486C894.897 379.608 882.067 394.534 904.715 400.058C909.097 401.127 914.47 399.381 918.118 396.953C921.005 395.032 923.17 392.487 923.699 388.979C924.919 380.892 917.465 377.682 920.815 373.005C922.046 372.624 922.618 372.623 923.785 373.26C926.632 374.812 929.1 378.431 929.865 381.539Q930.093 382.483 930.228 383.445Q930.363 384.407 930.405 385.377Q930.447 386.348 930.394 387.318Q930.341 388.288 930.195 389.248Q930.049 390.208 929.811 391.15Q929.572 392.092 929.244 393.006Q928.916 393.92 928.5 394.798Q928.085 395.676 927.587 396.51C924.602 401.417 918.786 405.207 913.228 406.478C906.756 407.958 899.895 407.057 894.261 403.445C889.102 400.138 885.126 394.74 883.93 388.689C883.746 387.758 883.621 386.823 883.509 385.88C883.69 381.029 884.822 377.52 887.522 373.55Z"/>
	<path fill="#0F3F80" d="M148.013 307.292C152.316 303.023 158.434 295.212 164.642 294.227C169.52 296.9 214.742 340.207 215.591 343.341C215.86 344.33 214.989 345.983 214.411 346.772C213.362 348.202 211.576 349.678 209.743 349.822C208.562 349.914 207.409 349.531 206.326 349.118L205.766 349.452C205.218 353.756 205.546 358.318 205.578 362.659C205.669 374.817 206.549 387.517 205.621 399.618C196.98 398.695 187.828 399.02 179.126 398.994L123.489 399.345L123.393 348.501C120.284 348.698 116.224 348.917 113.899 346.375C113.156 345.563 112.861 344.502 112.905 343.421C112.968 341.851 113.527 340.661 114.44 339.414C117.809 334.81 122.696 330.948 126.882 327.101C133.994 320.567 141.161 314.101 148.013 307.292Z"/>
	<path fill="#FEFEFE" d="M164.233 310.316C167.279 312.276 170.196 315.877 172.807 318.429C179.411 324.886 185.949 331.475 192.849 337.616L193.064 386.598Q179.504 386.756 165.944 386.679L136.481 386.538L136.631 337.266C146.086 328.494 154.974 319.264 164.233 310.316Z"/>
	<path fill="#0F3F80" d="M159.997 345.415C162.991 345.316 166.013 345.395 169.01 345.394L169.001 356.177L159.933 356.228L159.997 345.415Z"/>
	<path fill="#0F3F80" d="M160.244 361.295Q164.604 361.363 168.963 361.494C169.157 364.467 169.893 369.396 168.837 372.129C165.889 372.609 163.204 372.868 160.212 372.786L160.244 361.295Z"/>
	<path fill="#0F3F80" d="M144.37 345.422L153.993 345.461L154.003 356.048L144.338 356.067L144.37 345.422Z"/>
	<path fill="#0F3F80" d="M174.537 345.395L184.176 345.501C184.188 349.073 184.113 352.648 184.073 356.22L174.527 356.354L174.537 345.395Z"/>
	<path fill="#0F3F80" d="M174.912 361.499L184.139 361.59C184.399 365.305 184.247 369.095 184.233 372.821C181.155 373.06 177.982 372.934 174.891 372.953L174.912 361.499Z"/>
	<path fill="#0F3F80" d="M144.497 361.09L154.049 361.098L153.929 372.576L144.402 372.627Q144.42 366.858 144.497 361.09Z"/>
	<defs>
		<linearGradient id="gradient_1" gradientUnits="userSpaceOnUse" x1="284.19165" y1="425.68539" x2="301.77792" y2="155.80133">
			<stop offset="0" stop-color="#F98F38"/>
			<stop offset="1" stop-color="#FEEC4B"/>
		</linearGradient>
	</defs>
	<path fill="url(#gradient_1)" d="M148.013 307.292C145.987 282.828 149.748 260.28 160.253 238.02C177.195 202.118 207.284 176.59 244.464 163.43C269.968 154.404 301.227 152.617 327.676 158.39C339.444 160.959 350.547 165.128 361.404 170.282Q362.785 170.946 364.152 171.639Q365.519 172.332 366.871 173.054Q368.222 173.777 369.558 174.528Q370.894 175.279 372.214 176.058Q373.533 176.838 374.836 177.645Q376.138 178.453 377.423 179.288Q378.708 180.123 379.975 180.985Q381.242 181.848 382.49 182.737Q383.738 183.627 384.967 184.543Q386.196 185.458 387.405 186.4Q388.614 187.342 389.802 188.31Q390.991 189.278 392.158 190.27Q393.326 191.263 394.472 192.281Q395.618 193.298 396.742 194.34Q397.866 195.382 398.967 196.448Q400.068 197.513 401.147 198.602Q402.225 199.691 403.28 200.803Q404.335 201.915 405.366 203.049Q406.396 204.183 407.403 205.339Q408.409 206.495 409.39 207.672Q410.372 208.849 411.328 210.047Q412.284 211.245 413.214 212.463Q414.144 213.681 415.048 214.919Q415.951 216.156 416.828 217.413Q417.706 218.67 418.556 219.945Q419.406 221.22 420.228 222.513Q421.051 223.806 421.846 225.117Q422.64 226.427 423.407 227.754Q424.173 229.081 424.911 230.425Q425.649 231.768 426.358 233.126Q427.067 234.485 427.747 235.859Q428.427 237.232 429.077 238.62C434.018 249.048 437.489 259.723 441.339 270.559C433.236 278.625 424.589 286.127 416.262 293.958C405.443 304.133 394.795 314.512 383.792 324.488C370.919 336.16 357.566 347.311 344.476 358.736L317.306 382.848Q300.681 397.622 284.3 412.667C279.283 417.189 274.281 422.274 268.868 426.281C249.735 421.538 233.453 416.314 216.085 406.863C212.82 405.086 207.72 402.73 205.621 399.618C206.549 387.517 205.669 374.817 205.578 362.659C205.546 358.318 205.218 353.756 205.766 349.452L206.326 349.118C207.409 349.531 208.562 349.914 209.743 349.822C211.576 349.678 213.362 348.202 214.411 346.772C214.989 345.983 215.86 344.33 215.591 343.341C214.742 340.207 169.52 296.9 164.642 294.227C158.434 295.212 152.316 303.023 148.013 307.292Z"/>
	<path fill="#FDE94D" d="M294.786 159.747C304.254 159.704 322.693 160.282 331.035 164.465C333.151 165.526 334.752 167.351 336.728 168.628C337.648 168.003 337.953 167.791 339.084 167.605C341.352 169.586 346.058 174.768 346.4 177.821C346.601 179.613 342.15 179.717 341.025 180.634C339.983 181.483 340.743 184.885 339.484 186.171C335.7 190.038 324.377 193.666 319.142 193.576L318.488 192.582C318.696 191.068 318.72 190.37 318.16 188.89C314.985 188.973 313.249 187.261 310.941 185.352C307.431 185.022 306.179 186.5 303.131 186.843C299.45 187.258 294.864 184.893 291.006 184.798C286.194 184.68 281.322 186.508 276.543 185.833C271.103 185.064 268.398 182.163 265.428 177.859C264.645 176.725 264.547 176.051 264.891 174.721C266.113 170.005 289.377 163.131 294.243 160.099C294.426 159.986 294.605 159.865 294.786 159.747Z"/>
	<path fill="#0F3F80" d="M298.612 205.829C299.173 205.899 299.458 205.909 300.031 206.109C304.02 207.5 365.779 271.102 367.02 275.423C367.376 276.663 367.068 277.868 366.515 278.991C365.8 280.444 364.219 281.629 362.702 282.122C359.944 283.019 357.223 281.231 354.84 280.042C354.416 294.646 354.747 309.344 354.727 323.958C354.719 330.423 355.285 337.5 354.358 343.895C354.024 346.199 353.533 348.423 351.865 350.132C345.303 352.263 307.005 350.997 296.75 350.979C289.986 350.987 249.521 352.192 246.248 350.154C244.995 348.074 244.505 346.127 244.207 343.719C243.318 336.542 243.971 328.581 243.985 321.327L244.099 277.822C242.221 279.328 239.917 281.714 237.386 281.87C235.568 281.982 233.655 280.786 232.417 279.561C231.231 278.388 230.116 276.432 230.36 274.692C230.645 272.661 233.496 270.042 234.902 268.57C239.163 264.115 243.984 260.098 248.464 255.857Q258.005 246.649 267.343 237.235Q277.036 227.497 286.601 217.634C290.506 213.633 294.308 209.406 298.612 205.829Z"/>
	<path fill="#FEFEFE" d="M298.778 224.84C302.02 226.669 305.479 230.685 308.228 233.318C320.106 244.697 331.059 257.054 343.029 268.293L342.836 338.622L300.75 338.676L256.687 338.793C256.372 314.973 256.619 291.114 256.586 267.29Q278.108 246.489 298.778 224.84Z"/>
	<path fill="#0F3F80" d="M293.527 301.16L306.174 301.227L306.229 316.471L293.315 316.515C293.447 311.401 293.458 306.275 293.527 301.16Z"/>
	<path fill="#0F3F80" d="M293.635 277.139L306.49 277.121L306.449 292.343L293.496 292.326L293.635 277.139Z"/>
	<path fill="#0F3F80" d="M315.105 301.207L329.012 301.229C329.029 306.266 329.067 311.299 328.875 316.333C324.295 316.688 319.611 316.558 315.015 316.616L315.105 301.207Z"/>
	<path fill="#0F3F80" d="M270.462 301.328L284.678 301.338L284.661 316.51C279.953 316.54 275.278 316.558 270.575 316.253C270.32 311.309 270.483 306.282 270.462 301.328Z"/>
	<path fill="#0F3F80" d="M270.168 276.908L284.516 276.967C284.532 281.997 284.901 287.309 284.274 292.294Q277.255 292.248 270.237 292.33L270.168 276.908Z"/>
	<path fill="#0F3F80" d="M315.401 276.926L329.51 276.861L329.495 292.522L315.353 292.534L315.401 276.926Z"/>
	<path fill="#0F3F80" d="M748.439 337.632C726.779 335.439 707.79 324.974 694.085 308.124C680.404 291.304 674.241 271.661 676.489 250.017C678.772 228.044 687.711 208.832 705.017 194.828C722.308 180.836 744.062 175.6 765.985 177.929C786.021 180.056 802.07 189.694 816.004 203.823C818.81 200.429 822.167 195.486 826.937 194.916C829.232 194.642 831.314 195.571 833.014 197.066C835.335 199.106 837.212 202.228 838.7 204.91C835.971 211.501 829.765 215.508 825.547 221.074C834.552 241.944 836.525 264.933 828.085 286.363C825.534 292.843 821.98 298.704 818.164 304.501Q828.068 313.94 838.367 322.947C841.842 326.047 846.234 329.164 848.983 332.908L848.943 469.937C848.973 489.805 848.378 509.798 848.991 529.649C877.745 534.823 900.043 545.628 917.06 570.336Q917.74 571.315 918.396 572.311Q919.052 573.307 919.682 574.318Q920.313 575.33 920.918 576.358Q921.524 577.385 922.103 578.427Q922.682 579.469 923.235 580.525Q923.788 581.582 924.315 582.651Q924.842 583.721 925.341 584.804Q925.841 585.886 926.313 586.981Q926.786 588.076 927.231 589.182Q927.675 590.288 928.093 591.405Q928.51 592.522 928.899 593.649Q929.288 594.776 929.649 595.912Q930.01 597.049 930.342 598.194Q930.674 599.339 930.978 600.492Q931.281 601.645 931.556 602.805Q931.831 603.965 932.076 605.132Q932.322 606.299 932.538 607.471Q932.755 608.644 932.942 609.821Q933.129 610.999 933.286 612.181Q933.444 613.363 933.572 614.548Q933.699 615.733 933.798 616.922Q933.896 618.11 933.965 619.3Q934.033 620.491 934.072 621.682Q934.111 622.874 934.12 624.066Q934.129 625.259 934.108 626.451Q934.087 627.643 934.036 628.834Q933.986 630.025 933.906 631.215Q933.825 632.404 933.715 633.592Q933.605 634.779 933.465 635.963Q933.326 637.147 933.156 638.327Q932.987 639.507 932.789 640.683Q932.59 641.859 932.362 643.029Q932.123 644.202 931.856 645.368Q931.589 646.535 931.294 647.695Q930.999 648.855 930.675 650.007Q930.352 651.159 930 652.303Q929.649 653.447 929.27 654.582Q928.891 655.717 928.484 656.843Q928.077 657.969 927.643 659.084Q927.209 660.199 926.748 661.304Q926.287 662.408 925.8 663.501Q925.312 664.594 924.798 665.675Q924.283 666.755 923.743 667.823Q923.203 668.891 922.636 669.945Q922.07 671 921.479 672.04Q920.887 673.08 920.27 674.106Q919.653 675.132 919.011 676.142Q918.37 677.152 917.704 678.146Q917.038 679.141 916.348 680.119Q915.658 681.096 914.944 682.057Q914.23 683.018 913.493 683.961Q912.757 684.904 911.997 685.829Q911.237 686.754 910.456 687.66Q909.674 688.566 908.87 689.453Q908.066 690.34 907.241 691.207Q906.416 692.073 905.57 692.92Q904.724 693.767 903.858 694.592Q902.992 695.418 902.106 696.223Q901.22 697.027 900.314 697.81Q899.409 698.592 898.485 699.353Q897.56 700.113 896.618 700.851Q895.675 701.588 894.715 702.303Q893.755 703.017 892.778 703.708Q891.801 704.399 890.807 705.066C877.981 713.704 864.361 719.723 849.005 721.86Q848.569 765.428 848.616 808.995L848.73 844.006C848.752 854.653 849.583 866.081 847.093 876.5C845.462 883.323 840.817 890.135 835.906 895.037C830.422 900.512 824.061 904.122 816.46 905.676C809.628 907.073 802.386 906.624 795.443 906.614L767.84 906.56L674.224 906.508C661.909 906.44 653.412 903.401 643.153 896.672C636.687 903.12 630.32 910.269 623.153 915.933Q575.123 915.636 527.093 915.882C522.818 923.918 517.499 931.052 508.452 933.983Q507.798 934.19 507.135 934.364Q506.472 934.538 505.802 934.68Q505.131 934.821 504.454 934.929Q503.777 935.037 503.096 935.112Q502.414 935.187 501.73 935.227Q501.046 935.268 500.36 935.275Q499.675 935.282 498.99 935.255Q498.305 935.228 497.622 935.168Q496.939 935.107 496.26 935.013Q495.581 934.918 494.907 934.791Q494.234 934.663 493.567 934.502Q492.901 934.341 492.243 934.148Q491.586 933.954 490.939 933.729Q490.291 933.503 489.656 933.245Q489.021 932.988 488.399 932.699Q487.777 932.411 487.17 932.092C480.184 928.422 475.203 922.071 472.975 914.543C470.942 907.673 471.545 899.887 475.063 893.588C479.319 885.971 486.163 882.596 494.013 879.875C494.012 858.405 494.373 836.889 494.13 815.426L354.878 815.517Q354.631 838.492 354.697 861.469C354.755 870.383 355.936 880.846 354.238 889.597C353.448 893.666 352.192 896.738 349.232 899.669C345.979 902.89 341.831 905.392 337.283 906.227C333.308 906.957 328.728 906.563 324.669 906.565L300.629 906.568C274.048 906.566 247.393 907.03 220.823 906.582C213.14 906.452 207.082 905.872 201.411 899.982C198.772 897.241 196.223 893.216 195.707 889.372C194.459 880.076 195.301 869.636 195.255 860.234Q194.862 831.704 195.007 803.174L195.504 695.751C195.594 678.152 195.054 660.352 195.658 642.78C195.855 637.049 196.385 632.513 200.768 628.332C204.304 624.958 209.666 621.146 214.461 620.02C223.365 617.931 241.007 618.932 250.68 618.887L318.223 618.717L318.144 528.141C318.155 510.065 318.68 491.794 318.061 473.734L300.914 490.049C289.545 500.895 278.683 511.587 261.812 511.119C252.273 510.854 243.106 507.19 236.549 500.152C228.759 491.79 226.282 482.419 226.4 471.238C191.718 470.768 157.036 471.227 122.352 471.108C119.62 478.535 115.124 483.968 107.933 487.417C101.284 490.606 93.8594 490.777 86.9993 488.158Q86.3633 487.916 85.7401 487.642Q85.117 487.369 84.5083 487.064Q83.8997 486.76 83.307 486.425Q82.7143 486.09 82.1392 485.727Q81.564 485.363 81.0077 484.971Q80.4515 484.579 79.9155 484.159Q79.3796 483.74 78.8653 483.294Q78.351 482.848 77.8597 482.377Q77.3683 481.906 76.9012 481.411Q76.434 480.916 75.9922 480.399Q75.5504 479.881 75.135 479.342Q74.7197 478.803 74.3318 478.244Q73.9439 477.684 73.5845 477.106Q73.2251 476.529 72.8951 475.933Q72.5651 475.338 72.2652 474.727Q71.9654 474.116 71.6965 473.491Q71.4319 472.895 71.1975 472.286Q70.963 471.677 70.7593 471.057Q70.5555 470.437 70.383 469.808Q70.2105 469.179 70.0696 468.541Q69.9287 467.904 69.8198 467.261Q69.7109 466.618 69.6342 465.97Q69.5576 465.322 69.5134 464.671Q69.4693 464.02 69.4577 463.368Q69.4461 462.715 69.4671 462.063Q69.4881 461.411 69.5416 460.761Q69.5951 460.11 69.6811 459.464Q69.767 458.817 69.8852 458.175Q70.0033 457.533 70.1534 456.898Q70.3034 456.263 70.485 455.637Q70.6666 455.01 70.8792 454.393Q71.0919 453.776 71.3351 453.171C73.9414 446.775 79.2319 441.151 85.6262 438.461C92.3985 435.612 100.253 435.942 106.978 438.77C114.859 442.086 119.578 448.237 122.609 455.986C122.869 456.653 123.11 457.315 123.342 457.992L232.631 458.001C242.412 446.659 256.965 435.565 268.868 426.281C274.281 422.274 279.283 417.189 284.3 412.667Q300.681 397.622 317.306 382.848L344.476 358.736C357.566 347.311 370.919 336.16 383.792 324.488C394.795 314.512 405.443 304.133 416.262 293.958C424.589 286.127 433.236 278.625 441.339 270.559L464.965 248.325C478.466 235.591 490.265 222.425 510.322 223.007C515.86 223.168 521.576 224.542 526.448 227.189C534.655 231.647 541.812 238.969 548.921 245.019C563.548 257.469 578.309 270.746 593.478 282.438L593.443 251.301C593.441 245.694 593.078 239.817 593.634 234.246C593.784 232.737 594.131 229.467 595.386 228.44C596.676 227.384 598.65 227.317 600.242 227.225C609.02 226.717 618.29 227.391 627.127 227.373C635.261 227.357 651.43 226.299 658.783 227.66C660.164 227.916 661.262 228.42 661.993 229.689C662.786 231.068 662.829 232.681 662.897 234.232C663.339 244.253 662.761 254.478 662.82 264.523Q663.122 306.122 662.837 347.721C671.569 355.764 679.987 364.246 688.844 372.128C696.245 378.715 704.028 384.883 711.524 391.363Q732.509 409.555 753.068 428.228C761.709 435.992 777.602 448.175 784.247 456.558C787.859 461.116 789.819 467.585 790.058 473.349Q790.1 474.295 790.094 475.243Q790.089 476.19 790.036 477.136Q789.984 478.082 789.884 479.024Q789.785 479.966 789.638 480.902Q789.492 481.838 789.299 482.766Q789.107 483.693 788.868 484.61Q788.63 485.527 788.346 486.431Q788.062 487.335 787.734 488.224Q787.406 489.112 787.033 489.983Q786.661 490.855 786.246 491.706Q785.831 492.558 785.374 493.388Q784.917 494.218 784.42 495.024Q783.922 495.83 783.385 496.611Q782.848 497.391 782.273 498.144Q781.698 498.897 781.086 499.62Q780.474 500.343 779.827 501.035C773.415 507.851 765.011 511.016 755.748 511.214C740.024 511.551 732.004 503.715 721.19 493.668C715.604 488.477 709.946 483.338 704.485 478.015Q702.642 476.243 700.852 474.417C700.193 503.926 700.699 533.504 700.789 563.019C700.882 593.458 700.557 623.977 701.261 654.402C715.643 654.365 730.302 654.915 744.658 654.183C743.022 648.505 741.325 642.874 740.501 637.008C737.748 617.405 742.658 596.262 752.098 579.023C763.662 557.906 785.661 540.191 808.78 533.484C817.407 530.981 826.874 529.346 835.88 529.42C835.887 465.465 836.545 401.433 835.767 337.488C828.182 331.074 817.484 319.93 809.815 314.8C795.129 326.938 781.281 336.03 761.672 337.136Q761.601 349.752 761.773 362.366C761.844 367.625 762.339 373.305 761.71 378.514C761.512 380.159 761.202 381.706 760.043 382.961C758.722 384.392 757.038 385.09 755.096 385.032C753.319 384.978 751.715 384.514 750.473 383.186C749.317 381.95 748.748 380.234 748.497 378.59C747.807 374.065 748.484 369.025 748.525 364.446C748.605 355.512 748.405 346.569 748.439 337.632Z"/>
	<path fill="#FEFEFE" d="M94.8484 449.59C97.5334 449.55 100.179 449.819 102.619 451.029Q103.263 451.345 103.87 451.727Q104.478 452.108 105.043 452.549Q105.608 452.991 106.125 453.489Q106.641 453.986 107.104 454.534Q107.566 455.083 107.97 455.675Q108.374 456.268 108.714 456.9Q109.054 457.531 109.328 458.194Q109.601 458.857 109.805 459.545C110.812 462.902 110.528 466.558 108.784 469.625C106.502 473.636 102.909 475.384 98.6115 476.521C95.4555 476.593 92.4952 476.474 89.6302 474.997C86.5216 473.395 84.2037 470.7 83.2128 467.333Q83.0158 466.651 82.8907 465.952Q82.7655 465.254 82.7135 464.546Q82.6615 463.838 82.6833 463.128Q82.705 462.419 82.8002 461.715Q82.8955 461.012 83.0632 460.322Q83.2309 459.632 83.4692 458.963Q83.7076 458.295 84.014 457.654Q84.3204 457.014 84.6916 456.409C87.0427 452.601 90.6131 450.628 94.8484 449.59Z"/>
	<path fill="#5BC1E7" d="M497.197 893.18C500.427 892.979 503.402 893.19 506.349 894.639C510.016 896.442 512.894 899.54 514.187 903.444Q514.414 904.117 514.572 904.811Q514.729 905.504 514.815 906.209Q514.9 906.915 514.913 907.626Q514.925 908.337 514.865 909.045Q514.805 909.753 514.672 910.452Q514.54 911.15 514.336 911.831Q514.133 912.512 513.861 913.169Q513.589 913.826 513.251 914.451C510.919 918.811 506.781 921.201 502.158 922.502C498.412 922.666 495.227 922.32 491.93 920.376Q491.254 919.982 490.623 919.521Q489.992 919.059 489.413 918.534Q488.833 918.009 488.311 917.427Q487.789 916.844 487.331 916.211Q486.873 915.577 486.483 914.9Q486.092 914.222 485.775 913.507Q485.458 912.792 485.216 912.049Q484.975 911.305 484.812 910.54Q484.671 909.831 484.6 909.111Q484.53 908.391 484.53 907.668Q484.53 906.945 484.601 906.225Q484.672 905.506 484.813 904.796Q484.954 904.087 485.164 903.395Q485.374 902.703 485.651 902.035Q485.928 901.367 486.268 900.729Q486.609 900.091 487.011 899.49C489.466 895.848 492.995 894.034 497.197 893.18Z"/>
	<path fill="#589B40" d="M881.358 656.839C895.974 658.541 902.536 657.714 915.879 651.389C910.239 672.473 894.523 688.224 876.024 698.879C867.61 703.725 858.763 706.62 849.296 708.602C849.2 698.229 848.933 688.647 843.162 679.612Q844.979 679.464 846.781 679.194C861.594 676.892 872.578 668.675 881.358 656.839Z"/>
	<path fill="#E17C2E" d="M809.829 236.382C811.566 234.38 813.28 232.459 815.233 230.661C822.09 247.965 823.075 267.394 815.604 284.73C808.48 301.261 793.981 314.739 777.228 321.202Q775.768 321.773 774.282 322.271Q772.796 322.769 771.286 323.191Q769.777 323.614 768.249 323.961Q766.72 324.308 765.176 324.578Q763.632 324.848 762.077 325.04Q760.521 325.233 758.958 325.347Q757.394 325.462 755.828 325.498Q754.26 325.534 752.694 325.492Q751.127 325.45 749.564 325.33Q748.001 325.21 746.446 325.011Q744.892 324.813 743.349 324.537Q741.806 324.262 740.279 323.909Q738.751 323.557 737.243 323.129Q735.736 322.7 734.251 322.197Q732.767 321.694 731.309 321.117Q729.852 320.541 728.425 319.892C712.352 312.552 699.021 298.344 692.886 281.768C689.801 273.431 688.189 264.67 688.563 255.78C689.263 261.199 691.497 267.108 693.685 272.109C700.9 288.605 713.368 302.127 730.342 308.628Q731.754 309.161 733.19 309.625Q734.626 310.088 736.083 310.48Q737.541 310.873 739.015 311.193Q740.49 311.513 741.979 311.761Q743.467 312.009 744.966 312.183Q746.465 312.358 747.971 312.458Q749.477 312.559 750.985 312.586Q752.494 312.612 754.003 312.565Q755.511 312.518 757.015 312.396Q758.519 312.275 760.016 312.08Q761.512 311.885 762.997 311.617Q764.483 311.349 765.953 311.009Q767.423 310.668 768.875 310.256Q770.326 309.844 771.756 309.361Q773.186 308.878 774.59 308.325Q775.994 307.773 777.37 307.152C792.145 300.541 802.4 289.809 808.158 274.672C812.376 263.585 814.913 247.61 809.829 236.382Z"/>
	<path fill="#FEFEFE" d="M606.698 241.002L650.134 240.991C650.499 253.816 650.151 266.738 650.136 279.571L650.152 335.9C635.773 322.237 620.4 309.52 606.549 295.334L606.698 241.002Z"/>
	<path fill="#FEFEFE" d="M831.278 589.627C840.331 588.623 849.2 590.045 856.824 595.267Q857.529 595.754 858.209 596.275Q858.889 596.795 859.543 597.348Q860.197 597.902 860.823 598.486Q861.449 599.071 862.046 599.685Q862.643 600.299 863.209 600.942Q863.775 601.585 864.309 602.254Q864.843 602.924 865.344 603.619Q865.845 604.314 866.311 605.032Q866.777 605.751 867.208 606.491Q867.638 607.231 868.032 607.992Q868.426 608.753 868.783 609.531Q869.139 610.31 869.457 611.106Q869.775 611.901 870.054 612.711Q870.333 613.521 870.572 614.343Q870.81 615.166 871.009 615.999Q871.207 616.832 871.365 617.674Q871.532 618.594 871.653 619.521Q871.774 620.449 871.849 621.381Q871.923 622.313 871.951 623.248Q871.978 624.182 871.959 625.117Q871.94 626.052 871.874 626.985Q871.808 627.918 871.696 628.846Q871.583 629.775 871.424 630.696Q871.265 631.618 871.061 632.53Q870.856 633.443 870.606 634.344Q870.355 635.245 870.06 636.132Q869.765 637.02 869.426 637.891Q869.087 638.763 868.705 639.616Q868.323 640.47 867.898 641.303Q867.474 642.136 867.008 642.947Q866.543 643.758 866.037 644.545Q865.531 645.332 864.987 646.092C859.442 653.996 852.278 658.213 842.843 659.926C833.294 660.731 824.979 660.031 816.773 654.623C809.107 649.572 803.367 641.211 801.626 632.174Q801.457 631.276 801.332 630.371Q801.206 629.466 801.126 628.556Q801.045 627.646 801.008 626.733Q800.972 625.821 800.98 624.907Q800.989 623.993 801.042 623.081Q801.095 622.169 801.192 621.261Q801.289 620.353 801.431 619.45Q801.572 618.547 801.758 617.653Q801.943 616.758 802.172 615.874Q802.401 614.99 802.673 614.117Q802.945 613.245 803.259 612.387Q803.573 611.529 803.928 610.688Q804.284 609.846 804.68 609.023Q805.076 608.2 805.512 607.397Q805.948 606.594 806.422 605.813Q806.897 605.033 807.409 604.276C813.292 595.716 821.246 591.445 831.278 589.627Z"/>
	<path fill="#0F3F80" d="M833.932 605.05C838.445 604.667 843.115 605.498 846.994 607.912C851.198 610.527 854.008 614.741 855.05 619.557C856.254 625.122 855.185 631.258 851.939 635.963C848.653 640.724 844.167 642.985 838.623 643.938C834.897 643.869 831.225 643.361 827.812 641.782C823.05 639.578 819.499 635.685 817.892 630.674Q817.742 630.2 817.616 629.718Q817.49 629.237 817.39 628.75Q817.289 628.263 817.213 627.771Q817.137 627.28 817.087 626.785Q817.036 626.29 817.011 625.793Q816.986 625.296 816.987 624.799Q816.987 624.301 817.013 623.804Q817.039 623.308 817.091 622.813Q817.142 622.318 817.219 621.826Q817.295 621.335 817.397 620.848Q817.499 620.361 817.625 619.88Q817.752 619.399 817.903 618.925Q818.054 618.451 818.229 617.985Q818.404 617.52 818.603 617.064Q818.802 616.608 819.024 616.162Q819.246 615.717 819.49 615.284C822.663 609.575 827.847 606.716 833.932 605.05Z"/>
	<path fill="#FEFEFE" d="M833.099 609.127C836.588 608.615 839.797 608.71 843.053 610.212Q843.771 610.545 844.45 610.95Q845.13 611.355 845.765 611.827Q846.399 612.3 846.982 612.835Q847.564 613.37 848.089 613.963Q848.613 614.555 849.074 615.198Q849.535 615.841 849.927 616.528Q850.32 617.215 850.64 617.939Q850.959 618.662 851.203 619.415Q851.339 619.827 851.453 620.245Q851.568 620.663 851.661 621.087Q851.754 621.511 851.825 621.938Q851.896 622.366 851.944 622.797Q851.993 623.228 852.02 623.661Q852.047 624.094 852.051 624.527Q852.056 624.961 852.038 625.394Q852.02 625.828 851.98 626.259Q851.94 626.691 851.878 627.12Q851.815 627.55 851.731 627.975Q851.647 628.4 851.541 628.821Q851.435 629.241 851.308 629.656Q851.181 630.07 851.032 630.478Q850.884 630.885 850.715 631.285Q850.545 631.684 850.356 632.074Q850.166 632.464 849.957 632.844C847.524 637.168 843.855 639.251 839.192 640.482C836.308 640.611 833.751 640.38 831.034 639.327Q830.269 639.034 829.536 638.666Q828.804 638.298 828.113 637.859Q827.421 637.419 826.777 636.913Q826.133 636.406 825.543 635.838Q824.953 635.269 824.423 634.644Q823.892 634.02 823.427 633.345Q822.962 632.67 822.567 631.953Q822.172 631.235 821.851 630.481Q821.554 629.802 821.327 629.097Q821.1 628.391 820.946 627.666Q820.792 626.942 820.712 626.205Q820.632 625.468 820.627 624.727Q820.622 623.986 820.693 623.248Q820.763 622.51 820.908 621.784Q821.053 621.057 821.271 620.349Q821.489 619.641 821.778 618.958C823.961 613.735 828.056 611.101 833.099 609.127Z"/>
	<path fill="#FEFEFE" d="M788.393 654.532C786.6 649.652 784.214 644.863 782.845 639.846C779.579 627.877 781.102 612.873 786.284 601.633C792.361 588.45 804.062 578.163 817.636 573.205Q818.92 572.744 820.225 572.346Q821.53 571.948 822.853 571.614Q824.176 571.28 825.513 571.012Q826.851 570.743 828.2 570.54Q829.549 570.337 830.906 570.2Q832.264 570.063 833.626 569.993Q834.989 569.923 836.353 569.919Q837.717 569.916 839.08 569.979Q840.443 570.042 841.801 570.172Q843.159 570.301 844.509 570.497Q845.859 570.693 847.198 570.955Q848.537 571.217 849.862 571.544Q851.186 571.87 852.493 572.262Q853.8 572.653 855.087 573.107Q856.373 573.562 857.636 574.079Q858.898 574.596 860.134 575.174C872.486 580.987 883.56 592.998 888.05 605.924Q888.51 607.278 888.902 608.654Q889.294 610.029 889.618 611.422Q889.941 612.815 890.196 614.223Q890.45 615.63 890.634 617.048Q890.818 618.466 890.932 619.892Q891.046 621.318 891.089 622.747Q891.132 624.177 891.104 625.607Q891.077 627.036 890.978 628.463Q890.88 629.89 890.711 631.31Q890.542 632.73 890.303 634.14Q890.063 635.55 889.755 636.947Q889.446 638.343 889.069 639.723Q888.691 641.102 888.246 642.461Q887.801 643.82 887.289 645.156Q886.777 646.491 886.199 647.799Q885.622 649.108 884.98 650.386C883.886 652.6 882.63 654.722 881.358 656.839C872.578 668.675 861.594 676.892 846.781 679.194Q844.979 679.464 843.162 679.612C838.599 674.249 835.366 668.503 830.229 663.443C831.565 663.589 832.909 663.721 834.254 663.762C845.284 664.094 855.142 661.348 863.189 653.548C870.695 646.271 875.364 635.587 875.522 625.13Q875.537 624.171 875.504 623.213Q875.471 622.254 875.39 621.299Q875.309 620.343 875.181 619.393Q875.053 618.443 874.878 617.5Q874.703 616.557 874.48 615.624Q874.258 614.692 873.99 613.771Q873.722 612.85 873.408 611.944Q873.095 611.038 872.736 610.148Q872.378 609.259 871.975 608.389Q871.573 607.518 871.128 606.669Q870.683 605.82 870.196 604.993Q869.709 604.167 869.182 603.366Q868.654 602.566 868.088 601.792Q867.521 601.018 866.917 600.274Q866.312 599.53 865.671 598.816Q865.031 598.103 864.355 597.422C856.879 589.786 847.07 585.772 836.393 585.748C825.692 585.723 815.992 590.099 808.535 597.712Q807.861 598.397 807.222 599.115Q806.583 599.833 805.981 600.582Q805.379 601.331 804.815 602.109Q804.251 602.887 803.727 603.692Q803.202 604.497 802.719 605.328Q802.236 606.158 801.794 607.012Q801.353 607.866 800.955 608.74Q800.557 609.615 800.203 610.508Q799.849 611.402 799.541 612.312Q799.232 613.222 798.969 614.146Q798.707 615.071 798.49 616.007Q798.274 616.943 798.105 617.889Q797.936 618.835 797.814 619.789Q797.693 620.742 797.619 621.7Q797.545 622.658 797.519 623.619Q797.494 624.579 797.516 625.54C797.761 637.142 802.852 646.326 811.015 654.245L788.393 654.532Z"/>
	<path fill="#7FBE71" d="M217.645 631.083C225.727 630.611 233.941 630.856 242.041 630.836L285.842 630.818L316.509 630.869C322.181 630.88 328.111 630.522 333.742 631.075C337.649 631.459 339.585 633.495 341.926 636.45C342.233 644.927 342.039 653.479 342.07 661.965L332.75 661.993L208.554 662.303C208.558 655.637 206.868 643.774 209.45 637.9C211.146 634.04 213.981 632.632 217.645 631.083Z"/>
	<path fill="#0F3F80" d="M271.783 641.248C278.451 641.184 295.828 639.606 300.843 643.207C302.149 644.144 302.9 645.361 303.025 646.991C303.147 648.588 302.43 650.448 301.324 651.588C297.286 655.75 285.344 654.114 279.75 654.029C273.29 654.067 255.629 655.324 250.58 652.636C249.024 651.807 247.154 649.247 246.861 647.496C246.665 646.324 246.782 645.349 247.575 644.411C251.708 639.516 265.927 641.191 271.783 641.248Z"/>
	<path fill="#5BC1E7" d="M208.502 674.539C240.541 675.081 272.674 674.562 304.723 674.51C297.697 682.516 289.64 689.619 282.095 697.128C269.198 709.964 256.612 723.011 243.542 735.7C232.308 746.608 220.343 760.104 208.013 769.394Q208.588 721.968 208.502 674.539Z"/>
	<path fill="#7FBE71" d="M273.335 855.741Q307.659 855.585 341.982 855.936C341.915 864.564 343.058 879.752 341.983 887.482C341.818 888.665 341.533 889.476 340.663 890.341C338.988 892.008 336.311 892.832 334.05 893.247C327.642 894.423 320.485 893.917 313.959 893.96L278.109 894.018Q257.12 894.008 236.133 893.719C229.498 893.649 222.065 894.256 215.567 893.203C213.164 892.814 211.102 892.248 209.23 890.655C207.438 885.985 208.551 862.956 208.553 855.951Q240.945 856.079 273.335 855.741Z"/>
	<path fill="#0F3F80" d="M273.924 862.116C276.361 862.18 278.555 862.509 280.695 863.722C283.705 865.429 285.847 868.204 286.602 871.599Q286.739 872.225 286.81 872.863Q286.882 873.5 286.887 874.141Q286.892 874.783 286.83 875.421Q286.769 876.059 286.642 876.688Q286.515 877.316 286.324 877.928Q286.133 878.541 285.879 879.13Q285.625 879.719 285.312 880.278Q284.999 880.838 284.63 881.362C282.233 884.772 279.19 886.106 275.214 886.81C272.608 886.895 269.914 886.344 267.691 884.944C263.959 882.594 262.737 878.726 261.796 874.692C262.395 872.17 263.085 869.81 264.562 867.644C266.849 864.291 270.044 862.848 273.924 862.116Z"/>
	<path fill="#7FBE71" d="M759.528 654.914C753.138 636.015 751.745 616.722 758.46 597.66Q758.803 596.697 759.169 595.743Q759.536 594.789 759.926 593.845Q760.315 592.9 760.728 591.965Q761.141 591.03 761.577 590.106Q762.013 589.181 762.471 588.268Q762.929 587.355 763.41 586.453Q763.89 585.551 764.393 584.661Q764.896 583.771 765.42 582.894Q765.944 582.017 766.49 581.153Q767.036 580.289 767.602 579.438Q768.169 578.588 768.757 577.752Q769.344 576.916 769.952 576.094Q770.56 575.273 771.188 574.467Q771.816 573.66 772.463 572.87Q773.111 572.079 773.778 571.305Q774.444 570.53 775.13 569.772Q775.815 569.014 776.52 568.274Q777.224 567.533 777.945 566.81Q778.667 566.086 779.407 565.381Q780.146 564.676 780.903 563.989Q781.66 563.302 782.433 562.634Q783.206 561.966 783.996 561.317Q784.785 560.668 785.591 560.039Q786.396 559.409 787.216 558.8Q788.037 558.191 788.872 557.602Q789.707 557.013 790.556 556.444Q791.406 555.876 792.269 555.329Q793.132 554.782 794.008 554.256Q794.884 553.73 795.773 553.226Q796.662 552.722 797.563 552.239Q798.464 551.757 799.377 551.297Q800.289 550.837 801.213 550.4C821.812 540.616 845.693 540.194 867.044 547.903C888.201 555.542 904.429 571.08 913.888 591.418C922.431 609.788 922.781 632.476 915.879 651.389C902.536 657.714 895.974 658.541 881.358 656.839C882.63 654.722 883.886 652.6 884.98 650.386Q885.622 649.108 886.199 647.799Q886.777 646.491 887.289 645.156Q887.801 643.82 888.246 642.461Q888.691 641.102 889.069 639.723Q889.446 638.343 889.755 636.947Q890.063 635.55 890.303 634.14Q890.542 632.73 890.711 631.31Q890.88 629.89 890.978 628.463Q891.077 627.036 891.104 625.607Q891.132 624.177 891.089 622.747Q891.046 621.318 890.932 619.892Q890.818 618.466 890.634 617.048Q890.45 615.63 890.196 614.223Q889.942 612.815 889.618 611.422Q889.294 610.029 888.902 608.654Q888.51 607.278 888.05 605.924C883.56 592.998 872.486 580.987 860.134 575.174Q858.898 574.596 857.636 574.079Q856.373 573.562 855.087 573.107Q853.8 572.653 852.493 572.262Q851.186 571.87 849.862 571.544Q848.537 571.217 847.198 570.955Q845.859 570.693 844.509 570.497Q843.159 570.301 841.801 570.172Q840.443 570.042 839.08 569.979Q837.717 569.916 836.353 569.919Q834.989 569.923 833.626 569.993Q832.264 570.063 830.906 570.2Q829.549 570.337 828.2 570.54Q826.851 570.743 825.513 571.012Q824.176 571.28 822.853 571.614Q821.53 571.948 820.225 572.346Q818.92 572.744 817.636 573.205C804.062 578.163 792.361 588.45 786.284 601.633C781.102 612.873 779.579 627.877 782.845 639.846C784.214 644.863 786.6 649.652 788.393 654.532L759.528 654.914Z"/>
	<path fill="#5BC1E7" d="M212.233 842.544C219.837 836.167 226.551 828.032 233.578 820.979L276.08 778.628Q298.51 755.995 321.217 733.64C327.898 727.131 335.028 721.054 341.504 714.347L341.802 842.867L258.943 842.636C243.413 842.641 227.744 843.038 212.233 842.544Z"/>
	<path fill="#CBDEE5" d="M834.923 780.934C835.232 799.136 835.005 817.366 835.05 835.572C835.078 846.714 836.279 859.629 834.213 870.569C833.301 875.396 830.396 881.193 826.989 884.748C818.884 893.209 810.111 893.515 799.124 893.518L706.649 893.182L680.22 893.129C675.642 893.118 670.556 893.5 666.051 892.747C660.366 891.797 653.683 887.735 649.665 883.612C639.293 872.967 640.504 859.213 640.541 845.524C640.561 837.976 640.512 830.417 640.729 822.873C640.786 820.893 640.813 818.907 641.011 816.936C641.586 817.254 641.698 817.264 642.194 817.836C643.6 819.458 644.693 823.551 645.67 825.627Q646.736 827.949 648.079 830.122Q649.422 832.296 651.021 834.288C656.422 840.984 664.729 846.959 673.487 847.831C682.126 848.692 691.451 848.128 700.148 848.113L748.715 848.009Q765.625 847.987 782.535 848.141C790.11 848.197 798.331 848.75 805.813 847.529C811.806 846.552 817.841 843.397 822.485 839.539C828.195 834.795 832.696 827.179 834.095 819.888C834.969 815.331 834.595 810.421 834.557 805.786C834.49 797.534 834.193 789.16 834.923 780.934Z"/>
	<path fill="#FEFEFE" d="M304.723 674.51L341.451 674.547L341.504 714.347C335.028 721.054 327.898 727.131 321.217 733.64Q298.51 755.995 276.08 778.628L233.578 820.979C226.551 828.032 219.837 836.167 212.233 842.544C210.94 842.748 210.133 842.881 208.837 842.543C207.455 837.755 208.432 825.154 208.462 819.454C208.363 812.582 208.101 805.705 208.075 798.834Q207.846 784.114 208.013 769.394C220.343 760.104 232.308 746.608 243.542 735.7C256.612 723.011 269.198 709.964 282.095 697.128C289.64 689.619 297.697 682.516 304.723 674.51Z"/>
	<path fill="#5BC1E7" d="M208.075 798.834C208.237 800.163 208.215 802.414 208.982 803.448C219.135 794.121 228.559 784.326 238.403 774.709L309.564 705.023C314.972 699.757 319.769 693.652 325.265 688.555C326.343 687.554 327.883 686.571 329.404 686.498C329.74 686.482 330.079 686.466 330.413 686.5C332.145 686.681 333.616 687.792 334.473 689.277C335.477 691.016 335.558 693.223 334.824 695.075C333.982 697.196 332.243 699.092 330.658 700.695C327.562 703.829 324.13 706.645 320.969 709.719L285.407 744.323L239.761 789.524C232.659 796.624 215.638 815.425 208.462 819.454C208.363 812.582 208.101 805.705 208.075 798.834Z"/>
	<path fill="#FBA646" d="M688.563 255.78C688.562 255.596 688.559 255.412 688.56 255.228C688.639 238.167 696.359 221.213 708.379 209.284Q709.549 208.12 710.774 207.016Q712 205.911 713.279 204.869Q714.558 203.827 715.887 202.849Q717.216 201.871 718.592 200.96Q719.968 200.049 721.387 199.208Q722.806 198.366 724.265 197.596Q725.724 196.825 727.219 196.128Q728.715 195.431 730.243 194.809Q731.771 194.186 733.328 193.64Q734.885 193.094 736.467 192.626Q738.049 192.158 739.652 191.768Q741.256 191.379 742.877 191.07Q744.497 190.76 746.131 190.531Q747.765 190.302 749.408 190.154Q751.052 190.006 752.7 189.94Q754.349 189.874 755.999 189.889C776.561 190.009 792.599 199.033 806.714 213.434C788.605 233.06 769.427 252.295 750.202 270.833C744.088 265.639 722.957 242.875 717.999 241.938C715.783 241.519 713.494 242.104 711.681 243.433C709.851 244.776 708.479 246.84 708.222 249.122C707.909 251.901 709.261 254.196 710.924 256.299C715.195 261.701 721.109 266.697 725.958 271.672C731.864 277.732 737.692 285.052 744.236 290.305C746.076 291.782 748.26 293.11 750.666 293.286C752.783 293.442 754.166 292.339 755.723 291.05C760.75 286.889 765.001 281.467 769.567 276.77C782.718 263.243 795.813 248.984 809.829 236.382C814.913 247.61 812.376 263.585 808.158 274.672C802.4 289.809 792.145 300.541 777.37 307.152Q775.994 307.773 774.59 308.325Q773.186 308.878 771.756 309.361Q770.326 309.844 768.875 310.256Q767.423 310.668 765.953 311.009Q764.483 311.349 762.997 311.617Q761.512 311.885 760.016 312.08Q758.52 312.275 757.015 312.396Q755.511 312.518 754.003 312.565Q752.494 312.612 750.986 312.586Q749.477 312.559 747.971 312.458Q746.465 312.358 744.966 312.183Q743.467 312.009 741.979 311.761Q740.49 311.513 739.015 311.193Q737.541 310.873 736.083 310.48Q734.626 310.088 733.19 309.625Q731.754 309.161 730.342 308.628C713.368 302.127 700.9 288.605 693.685 272.109C691.497 267.108 689.263 261.199 688.563 255.78Z"/>
	<path fill="#FEFEFE" d="M507.442 815.047L626.949 815.125C627.068 828.704 625.362 860.293 628.28 871.467C629.786 877.236 632.637 882.139 635.665 887.209C632.767 889.564 630.024 892.063 627.276 894.59L619.005 903.138C608.233 903.492 597.324 903.076 586.536 903.034L527.431 902.947C526.774 900.419 525.809 897.84 524.627 895.507C520.96 888.269 515.194 883.069 507.471 880.511L507.442 815.047Z"/>
	<path fill="#F9D156" d="M581.211 838.093C584.289 837.734 587.064 837.931 589.944 839.173C593.879 840.869 596.829 844.178 598.313 848.173C599.829 852.254 599.703 856.698 597.726 860.598C595.301 865.381 591.236 867.936 586.255 869.484C583.408 870.013 581.032 869.848 578.331 868.734C574.323 867.08 571.408 863.706 569.832 859.718C568.245 855.702 568.027 851.27 569.822 847.287C572.1 842.23 576.297 839.962 581.211 838.093Z"/>
	<path fill="#1792C0" d="M331.362 463.035C353.395 438.242 380.275 417.882 404.562 395.371C427.687 373.938 450.163 352.75 473.661 331.644C481.362 324.728 488.647 316.815 496.855 310.54C500.641 307.647 504.419 305.551 509.292 305.255C513.681 304.989 517.425 305.496 520.75 308.575C526.109 313.537 531.101 318.909 536.332 324.007L571.96 358.085C594.392 379.143 617.456 399.477 640.265 420.115L687.853 463.732C687.813 484.546 688.472 505.597 687.732 526.382C687.444 526.042 687.162 525.696 686.861 525.368C680.119 518.006 672.375 511.236 665.325 504.131C641.78 480.403 617.736 457.217 594 433.689L540.668 380.996C532.667 373.184 525.183 364.618 516.451 357.593C514.1 355.702 511.784 354.886 508.791 354.772C501.308 358.818 491.348 369.638 484.783 375.61C455.623 402.136 427.585 429.756 399.035 456.919C376.637 478.228 353.049 498.083 331.223 520.041L331.362 463.035Z"/>
	<path fill="#FEFEFE" d="M506.749 236.188C508.734 236.125 510.87 236.186 512.84 236.445C518.876 237.238 523.685 239.849 528.34 243.609C537.801 251.25 546.487 260.07 555.671 268.079C601.018 307.629 644.161 349.606 688.783 389.967C699.567 399.721 710.94 408.906 721.968 418.393C731.468 426.567 740.697 435.093 750.059 443.428C757.457 450.016 766.726 456.7 772.724 464.566C775.66 468.417 778.257 473.852 777.34 478.814Q777.232 479.391 777.096 479.963Q776.96 480.534 776.797 481.098Q776.634 481.663 776.445 482.219Q776.256 482.775 776.04 483.321Q775.825 483.867 775.583 484.403Q775.342 484.938 775.076 485.462Q774.809 485.985 774.518 486.495Q774.228 487.005 773.913 487.501Q773.598 487.997 773.26 488.477Q772.922 488.958 772.561 489.421Q772.201 489.885 771.819 490.331Q771.437 490.777 771.034 491.205Q770.631 491.632 770.209 492.04Q769.786 492.448 769.345 492.835Q768.903 493.222 768.444 493.588Q767.984 493.954 767.508 494.298C761.777 498.37 753.759 499.923 747.164 497.014C738.588 493.232 707.959 463.467 699.588 455.837L576.767 344.124Q559.952 328.631 543.618 312.631C538.729 307.906 534.121 302.54 528.842 298.267C524.27 294.566 519.591 292.315 513.719 291.435L513.035 291.338C505.816 291.247 499.415 292.202 493.164 296.036C485.964 300.453 480.046 307.364 473.871 313.088C466.001 320.384 457.876 327.423 449.963 334.679L329.815 444.5C317.961 455.338 305.983 466.18 294.29 477.182C289.174 481.995 284.453 487.435 278.978 491.833C275.558 494.581 271.743 496.784 267.398 497.659C261.423 498.862 254.975 497.87 249.97 494.283C245.019 490.735 241.295 484.677 240.493 478.627C239.83 473.625 241.091 467.532 244.287 463.544C246.863 460.329 251.261 457.729 254.506 455.148Q264.05 447.682 273.199 439.736L375.171 349.745Q417.748 311.906 459.133 272.767C469.439 263.085 478.863 252.055 489.642 242.944C494.842 238.549 500.123 236.861 506.749 236.188Z"/>
	<path fill="#FEFEFE" d="M641.011 816.936Q640.986 816.245 640.972 815.553C640.635 790.532 641.466 765.379 641.419 740.335L641.265 711.565C641.228 705.376 640.808 698.769 641.798 692.644Q641.976 691.595 642.234 690.563Q642.492 689.53 642.828 688.521Q643.165 687.511 643.577 686.53Q643.989 685.549 644.475 684.602Q644.961 683.656 645.518 682.749Q646.075 681.842 646.699 680.981Q647.324 680.119 648.012 679.308Q648.701 678.496 649.449 677.74C653.778 673.417 659.492 669.591 665.504 668.151C672.495 666.476 701.759 667.548 710.604 667.558L797.827 667.326C809.34 667.41 816.804 668.933 825.019 677.394C829.157 681.656 832.625 687.22 834 693.031C836.256 702.565 835.012 715.415 835.01 725.339L834.923 780.934C834.193 789.16 834.49 797.534 834.557 805.786C834.595 810.421 834.969 815.331 834.095 819.888C832.696 827.179 828.195 834.795 822.485 839.539C817.841 843.397 811.806 846.552 805.813 847.529C798.331 848.75 790.11 848.197 782.535 848.141Q765.625 847.987 748.715 848.009L700.148 848.113C691.451 848.128 682.126 848.692 673.487 847.831C664.729 846.959 656.422 840.984 651.021 834.288Q649.422 832.296 648.079 830.122Q646.736 827.949 645.67 825.627C644.693 823.551 643.6 819.458 642.194 817.836C641.698 817.264 641.586 817.254 641.011 816.936Z"/>
	<path fill="#0F3F80" d="M734.115 783.552C737.482 783.368 740.575 783.342 743.738 784.678Q744.468 784.985 745.164 785.362Q745.86 785.74 746.515 786.185Q747.17 786.63 747.777 787.137Q748.385 787.645 748.939 788.211Q749.493 788.776 749.988 789.394Q750.483 790.012 750.914 790.676Q751.346 791.341 751.709 792.044Q752.072 792.748 752.363 793.484C753.788 797.091 753.835 801.231 752.279 804.807C750.291 809.375 746.663 811.854 742.153 813.553C738.674 814.113 735.276 814.044 731.954 812.742Q731.265 812.473 730.607 812.136Q729.949 811.799 729.329 811.398Q728.708 810.997 728.13 810.535Q727.553 810.073 727.025 809.556Q726.497 809.039 726.023 808.471Q725.55 807.903 725.136 807.291Q724.722 806.678 724.372 806.028Q724.021 805.377 723.738 804.694Q723.457 804.003 723.246 803.288Q723.036 802.573 722.897 801.841Q722.759 801.108 722.694 800.365Q722.63 799.623 722.639 798.877Q722.649 798.132 722.733 797.391Q722.817 796.65 722.974 795.922Q723.132 795.193 723.361 794.483Q723.59 793.774 723.889 793.091C725.902 788.378 729.455 785.426 734.115 783.552Z"/>
	<path fill="#5BC1E7" d="M737.137 752.706Q739.732 752.667 742.319 752.866C757.481 754.064 767.12 760.277 776.797 771.668C773.864 774.396 770.654 776.703 767.419 779.052C757.877 771.063 750.105 766.372 737.376 765.798Q734.692 765.766 732.032 766.122C722.65 767.369 714.733 773.656 709.098 780.895C705.493 778.02 702.233 775.051 699.401 771.397C711.562 759.146 719.559 754.024 737.137 752.706Z"/>
	<path fill="#5BC1E7" d="M730.232 723.193C733.606 722.813 737.289 722.835 740.691 722.953C763.699 723.755 787.028 736.127 802.477 752.854L793.35 759.96C780.628 748.039 767.762 740.87 750.904 736.557C745.51 735.513 739.994 734.781 734.49 735.084C715.288 736.141 699.233 745.47 686.669 759.525C683.434 756.879 680.673 753.761 678.268 750.35Q679.134 749.262 680.018 748.189C692.109 733.58 711.644 724.95 730.232 723.193Z"/>
	<path fill="#FEFEFE" d="M331.223 520.041C353.049 498.083 376.637 478.228 399.035 456.919C427.585 429.756 455.623 402.136 484.783 375.61C491.348 369.638 501.308 358.818 508.791 354.772C511.784 354.886 514.1 355.702 516.451 357.593C525.183 364.618 532.667 373.184 540.668 380.996L594 433.689C617.736 457.217 641.78 480.403 665.325 504.131C672.375 511.236 680.119 518.006 686.861 525.368C687.162 525.696 687.444 526.042 687.732 526.382C688.422 569.043 687.784 611.777 687.928 654.45C670.65 654.211 654.91 653.223 641.463 666.139C631.331 675.871 627.496 688.748 627.319 702.472C626.894 735.436 627.266 768.434 627.289 801.402L604.544 801.412L411.548 801.527Q383.18 801.731 354.813 801.488L354.924 689.101L354.93 657.902C354.927 651.322 355.31 644.465 354.404 637.938C353.762 633.313 352.303 629.353 349.195 625.788C344.329 620.208 338.539 618.624 331.467 618.239C331.041 598.795 331.449 579.282 331.253 559.827C331.132 547.832 330.035 531.74 331.223 520.041Z"/>
	<path fill="#0F3F80" d="M506.645 482.514C507.864 482.46 509.11 482.389 510.308 482.677C512.478 483.2 514.616 484.757 515.653 486.749C516.578 488.525 516.647 490.584 516.016 492.469C515.038 495.387 513.051 496.508 510.415 497.781C509.235 497.884 508.188 497.946 507.019 497.704C504.823 497.249 502.76 495.985 501.611 494.017C500.504 492.121 500.406 489.879 501.113 487.821C502.054 485.085 504.192 483.76 506.645 482.514Z"/>
	<path fill="#0F3F80" d="M506.895 460.198C509.531 460.145 512.309 460.342 514.895 460.866C521.056 462.112 529.291 465.537 532.734 471.045C533.989 473.053 534.365 475.28 533.763 477.574C533.369 479.077 532.638 480.639 531.134 481.318C526.443 483.435 520.685 476.767 517.265 474.479C515.879 473.552 514.227 473.086 512.645 472.61L511.958 472.408C496.335 471.403 497.254 480.93 490.272 482.028C489.083 482.215 487.478 481.542 486.495 480.91C485.122 480.028 484.406 478.869 484.184 477.237C483.83 474.646 485.65 471.573 487.154 469.628C492.218 463.08 499.092 461.086 506.895 460.198Z"/>
	<path fill="#0F3F80" d="M504.497 438.191C506.774 437.921 509.267 437.937 511.554 438.057C525.329 438.785 539.754 446.158 548.727 456.643C550.167 458.326 551.51 460.506 551.087 462.821C550.798 464.399 549.631 465.901 548.267 466.716C546.346 467.863 543.553 467.974 541.561 466.953C539.271 465.78 537.139 463.227 535.288 461.439C529.744 456.084 522.459 453.17 515.004 451.613C503.065 449.701 492.7 453.121 483.505 460.754C480.899 462.917 478.08 465.794 474.792 466.801C473.01 467.346 471.153 467.213 469.529 466.245C468.282 465.502 467.227 464.417 467.065 462.899C466.814 460.54 468.513 458.146 469.889 456.403C478.196 445.887 491.384 439.691 504.497 438.191Z"/>
	<path fill="#0F3F80" d="M503.277 415.694C506.746 415.078 510.962 415.345 514.477 415.652C532.46 417.224 553.147 426.472 564.591 440.812C566.393 443.069 568.606 446.845 567.819 449.888C567.518 451.051 566.848 451.673 565.804 452.182C563.135 453.487 559.472 452.409 556.835 451.572C545.358 438.779 532.674 431.597 515.615 429.049Q514.032 428.886 512.443 428.805Q510.854 428.725 509.263 428.726Q507.671 428.727 506.082 428.811Q504.493 428.895 502.911 429.06Q501.328 429.226 499.756 429.473Q498.184 429.72 496.627 430.047Q495.07 430.375 493.532 430.783Q491.994 431.191 490.479 431.678Q488.964 432.164 487.476 432.729Q485.988 433.293 484.532 433.933Q483.075 434.574 481.653 435.289Q480.232 436.003 478.849 436.791Q477.466 437.578 476.125 438.435Q474.785 439.293 473.491 440.219Q472.196 441.144 470.952 442.136Q469.707 443.127 468.515 444.181C465.323 446.98 462.089 451.836 457.763 452.777C456.371 453.08 455.19 452.878 454.001 452.082C452.39 451.004 451.11 449.295 450.873 447.345C450.531 444.513 452.195 441.736 453.884 439.61C465.505 424.981 485.264 417.582 503.277 415.694Z"/>
	<path fill="#5BC1E7" d="M411.548 801.527L411.618 638.88L411.577 594.569C411.535 586.65 410.755 577.947 411.796 570.1C412.262 566.59 414.451 563.16 416.936 560.709Q417.389 560.258 417.877 559.844Q418.365 559.43 418.884 559.057Q419.404 558.683 419.951 558.353Q420.499 558.022 421.071 557.736Q421.644 557.451 422.237 557.212Q422.83 556.972 423.441 556.782Q424.051 556.591 424.675 556.449Q425.299 556.308 425.932 556.217C431.517 555.471 437.745 555.973 443.396 555.958L479.41 555.884L548.999 555.85C561.325 555.875 573.724 555.652 586.041 556.065C591.643 556.253 595.721 557.639 599.632 561.885C601.812 564.251 603.57 567.243 604.101 570.45C604.99 575.819 604.391 582.101 604.335 587.57L603.987 621.004L604.474 740.838L604.406 780.869C604.383 787.568 603.854 794.752 604.544 801.412L411.548 801.527Z"/>
	<path fill="#FEFEFE" d="M434.579 579.177C452.648 579.165 470.765 579.416 488.826 578.932L490.114 579.559C490.143 580.763 490.021 581.063 489.322 582.103C484.451 589.347 477.636 595.805 471.803 602.33C460.479 614.997 449.288 627.713 437.544 640Q436.023 641.586 434.448 643.118C433.852 621.877 434.42 600.428 434.579 579.177Z"/>
	<path fill="#CBDEE5" d="M574.319 578.994L582.577 578.985L583.006 647.592C563.631 665.834 544.667 684.554 525.44 702.951C521.045 707.157 516.283 710.98 511.836 715.138L482.976 742.43Q472.87 751.788 462.96 761.353C458.588 765.56 454.336 770.022 449.629 773.859C447.58 775.529 445.115 777.815 442.336 777.802C439.57 777.789 437.025 775.938 435.258 773.97Q434.794 773.45 434.35 772.913L434.373 685.949C434.385 671.767 433.759 657.259 434.448 643.118Q436.023 641.586 437.544 640C449.288 627.713 460.479 614.997 471.803 602.33C477.636 595.805 484.451 589.347 489.322 582.103C490.021 581.063 490.143 580.763 490.114 579.559L488.826 578.932C493.354 579.616 497.991 579.498 502.554 579.338C506.521 579.26 510.523 579.289 514.478 578.996L520.4 578.989L574.319 578.994Z"/>
	<path fill="#0F3F80" d="M532.361 660.589C534.324 660.776 536.411 661.065 538.164 662.017Q538.597 662.252 539.003 662.53Q539.409 662.808 539.785 663.127Q540.16 663.446 540.5 663.802Q540.841 664.157 541.143 664.546Q541.445 664.935 541.705 665.354Q541.965 665.772 542.18 666.214Q542.396 666.657 542.564 667.12Q542.733 667.582 542.853 668.06Q542.971 668.534 543.042 669.017Q543.112 669.5 543.133 669.987Q543.154 670.475 543.127 670.962Q543.099 671.449 543.023 671.931Q542.947 672.414 542.822 672.886Q542.698 673.358 542.527 673.815Q542.356 674.272 542.14 674.709Q541.924 675.147 541.665 675.561C539.911 678.421 537.441 679.542 534.316 680.389C532.512 680.368 530.743 680.092 529.135 679.233Q528.657 678.98 528.208 678.678Q527.759 678.377 527.344 678.03Q526.928 677.683 526.551 677.295Q526.174 676.908 525.839 676.483Q525.505 676.058 525.216 675.6Q524.927 675.143 524.688 674.658Q524.448 674.173 524.26 673.665Q524.072 673.158 523.938 672.634C523.298 670.062 523.666 667.345 525.069 665.089C526.825 662.267 529.25 661.28 532.361 660.589Z"/>
	<path fill="#0F3F80" d="M480.728 660.06C482.547 659.961 484.373 660.063 486.065 660.795Q486.573 661.014 487.055 661.284Q487.537 661.555 487.988 661.875Q488.439 662.195 488.854 662.56Q489.269 662.926 489.643 663.333Q490.017 663.74 490.346 664.184Q490.676 664.628 490.957 665.104Q491.237 665.58 491.467 666.083Q491.696 666.587 491.871 667.111Q492.03 667.569 492.141 668.041Q492.253 668.512 492.317 668.993Q492.381 669.473 492.396 669.958Q492.412 670.442 492.378 670.926Q492.345 671.41 492.263 671.887Q492.182 672.365 492.052 672.832Q491.923 673.299 491.748 673.751Q491.572 674.203 491.352 674.635C489.877 677.588 487.36 678.927 484.358 679.956C482.346 680.012 480.284 679.896 478.395 679.14Q477.929 678.954 477.484 678.721Q477.04 678.488 476.622 678.21Q476.204 677.933 475.816 677.614Q475.429 677.295 475.076 676.938Q474.724 676.58 474.41 676.189Q474.096 675.797 473.824 675.376Q473.552 674.954 473.324 674.507Q473.097 674.059 472.917 673.591Q472.744 673.122 472.619 672.639Q472.493 672.155 472.417 671.661Q472.341 671.167 472.314 670.668Q472.288 670.169 472.312 669.67Q472.335 669.171 472.409 668.677Q472.482 668.183 472.604 667.698Q472.727 667.214 472.897 666.744Q473.068 666.274 473.284 665.824C474.874 662.547 477.391 661.135 480.728 660.06Z"/>
	<path fill="#0F3F80" d="M502.554 579.338C506.521 579.26 510.523 579.289 514.478 578.996L514.604 659.486C514.609 674.511 514.891 689.6 514.47 704.616C513.926 705.654 513.374 706.715 512.615 707.616C511.48 708.966 509.463 709.923 507.685 709.937C506.335 709.948 505.423 709.527 504.441 708.617C503.171 707.44 502.533 705.51 502.349 703.845C501.824 699.093 502.222 694.032 502.263 689.253L502.381 664.11L502.554 579.338Z"/>
	<path fill="#FEFEFE" d="M520.4 578.989L574.319 578.994C567.013 589.753 557.145 599.549 548.592 609.389C540.521 618.675 533.007 628.588 524.246 637.262C523.122 638.376 521.832 639.251 520.486 640.073C519.819 619.789 520.409 599.294 520.4 578.989Z"/>
</svg>
